<svg width="33" height="25" viewBox="0 0 33 25" fill="none" xmlns="http://www.w3.org/2000/svg">
<path d="M32.822 6.48906L32.7808 6.21974L32.7381 6.22936C32.4457 4.89724 31.7723 3.673 30.7958 2.69829C29.8192 1.72358 28.5794 1.03824 27.2198 0.721561C25.8602 0.404884 24.4363 0.469815 23.113 0.908842C21.7897 1.34787 20.621 2.14305 19.7421 3.20237C18.8632 4.2617 18.3101 5.54187 18.1467 6.89476C17.9833 8.24766 18.2164 9.61799 18.8189 10.8472C19.4214 12.0764 20.3688 13.1142 21.5513 13.8406C22.7339 14.567 24.1034 14.9523 25.5013 14.9518C25.8682 14.9518 26.2202 14.8973 26.5706 14.8476C26.4571 15.2195 26.3403 15.5979 26.1528 15.9377C25.9652 16.4315 25.6724 16.8595 25.3812 17.2907C25.1378 17.7572 24.7084 18.0731 24.3925 18.4722C24.0619 18.8602 23.6111 19.1183 23.2541 19.4405C22.9037 19.7771 22.4448 19.9455 22.0795 20.1827C21.6979 20.3959 21.3656 20.6316 21.0102 20.7438L20.1235 21.0997L19.3438 21.4155L20.14 24.5239L21.1221 24.2931C21.4363 24.2161 21.8196 24.1264 22.2556 24.0189C22.7014 23.9388 23.1768 23.7192 23.7065 23.5188C24.228 23.2895 24.8351 23.1372 25.3977 22.7701C25.9636 22.4207 26.6167 22.1289 27.1925 21.6608C27.7502 21.1783 28.423 20.7598 28.9198 20.1475C29.4627 19.5736 29.999 18.9708 30.4152 18.2847C30.8972 17.6306 31.2246 16.9124 31.57 16.2022C31.8826 15.4921 32.1343 14.7659 32.3399 14.0605C32.7298 12.6466 32.9042 11.3032 32.9717 10.1537C33.0276 9.00272 32.9947 8.04567 32.9256 7.35313C32.9025 7.06391 32.8679 6.77567 32.822 6.48906ZM14.726 6.48906L14.6849 6.21974L14.6421 6.22936C14.3498 4.89724 13.6764 3.673 12.6998 2.69829C11.7233 1.72358 10.4834 1.03824 9.12383 0.721561C7.76422 0.404884 6.34038 0.469815 5.01705 0.908842C3.69373 1.34787 2.52501 2.14305 1.64613 3.20237C0.767244 4.2617 0.214113 5.54187 0.0507362 6.89476C-0.11264 8.24766 0.120415 9.61799 0.722937 10.8472C1.32546 12.0764 2.27282 13.1142 3.45541 13.8406C4.63799 14.567 6.00747 14.9523 7.40538 14.9518C7.77223 14.9518 8.12428 14.8973 8.47469 14.8476C8.36117 15.2195 8.24437 15.5979 8.05683 15.9377C7.86929 16.4315 7.57647 16.8595 7.28529 17.2907C7.04182 17.7572 6.61245 18.0731 6.29659 18.4722C5.96593 18.8602 5.51518 19.1183 5.15819 19.4405C4.80779 19.7771 4.34881 19.9455 3.9836 20.1827C3.60194 20.3959 3.26963 20.6316 2.9143 20.7438L2.02759 21.0997C1.53242 21.2969 1.24947 21.4123 1.24947 21.4123L2.04569 24.5207L3.02781 24.2899C3.34202 24.2129 3.72532 24.1231 4.16127 24.0157C4.60709 23.9356 5.08252 23.716 5.61224 23.5156C6.13373 23.2863 6.74077 23.134 7.30338 22.7669C7.86929 22.4175 8.52239 22.1257 9.09817 21.6576C9.65586 21.1751 10.3287 20.7566 10.8255 20.1443C11.3684 19.5703 11.9047 18.9676 12.3209 18.2815C12.8029 17.6274 13.1303 16.9092 13.4757 16.199C13.7883 15.4889 14.04 14.7627 14.2456 14.0573C14.6355 12.6434 14.8099 11.3 14.8774 10.1505C14.9333 8.99951 14.9004 8.04246 14.8313 7.34992C14.8067 7.06184 14.7716 6.7747 14.726 6.48906Z" fill="#0084FF"/>
</svg>
