<svg width="135" height="28" viewBox="0 0 135 28" fill="none" xmlns="http://www.w3.org/2000/svg">
<path d="M13.4998 19.6036L8.89489 22.3554C8.69146 22.4838 8.47879 22.5388 8.25687 22.5205C8.03494 22.5021 7.84076 22.4288 7.67432 22.3003C7.50788 22.1719 7.37842 22.0116 7.28595 21.8193C7.19349 21.6263 7.17499 21.4106 7.23047 21.1721L8.45105 15.9713L4.37322 12.4765C4.18828 12.3114 4.07288 12.1232 4.02702 11.9119C3.98042 11.7013 3.9941 11.4951 4.06807 11.2933C4.14205 11.0915 4.25301 10.9264 4.40096 10.798C4.54891 10.6695 4.75234 10.587 5.01125 10.5503L10.3929 10.0825L12.4734 5.18435C12.5659 4.96421 12.7094 4.7991 12.9039 4.68903C13.0977 4.57896 13.2964 4.52393 13.4998 4.52393C13.7032 4.52393 13.9022 4.57896 14.0968 4.68903C14.2906 4.7991 14.4337 4.96421 14.5262 5.18435L16.6067 10.0825L21.9883 10.5503C22.2472 10.587 22.4507 10.6695 22.5986 10.798C22.7466 10.9264 22.8575 11.0915 22.9315 11.2933C23.0055 11.4951 23.0195 11.7013 22.9737 11.9119C22.9271 12.1232 22.8113 12.3114 22.6264 12.4765L18.5485 15.9713L19.7691 21.1721C19.8246 21.4106 19.8061 21.6263 19.7136 21.8193C19.6212 22.0116 19.4917 22.1719 19.3253 22.3003C19.1588 22.4288 18.9646 22.5021 18.7427 22.5205C18.5208 22.5388 18.3081 22.4838 18.1047 22.3554L13.4998 19.6036Z" fill="#FBBC05"/>
<path d="M40.4998 19.6036L35.8949 22.3554C35.6915 22.4838 35.4788 22.5388 35.2569 22.5205C35.0349 22.5021 34.8408 22.4288 34.6743 22.3003C34.5079 22.1719 34.3784 22.0116 34.286 21.8193C34.1935 21.6263 34.175 21.4106 34.2305 21.1721L35.451 15.9713L31.3732 12.4765C31.1883 12.3114 31.0729 12.1232 31.027 11.9119C30.9804 11.7013 30.9941 11.4951 31.0681 11.2933C31.142 11.0915 31.253 10.9264 31.401 10.798C31.5489 10.6695 31.7523 10.587 32.0112 10.5503L37.3929 10.0825L39.4734 5.18435C39.5659 4.96421 39.7094 4.7991 39.9039 4.68903C40.0977 4.57896 40.2964 4.52393 40.4998 4.52393C40.7032 4.52393 40.9022 4.57896 41.0968 4.68903C41.2906 4.7991 41.4337 4.96421 41.5262 5.18435L43.6067 10.0825L48.9883 10.5503C49.2472 10.587 49.4507 10.6695 49.5986 10.798C49.7466 10.9264 49.8575 11.0915 49.9315 11.2933C50.0055 11.4951 50.0195 11.7013 49.9737 11.9119C49.9271 12.1232 49.8113 12.3114 49.6264 12.4765L45.5485 15.9713L46.7691 21.1721C46.8246 21.4106 46.8061 21.6263 46.7136 21.8193C46.6212 22.0116 46.4917 22.1719 46.3253 22.3003C46.1588 22.4288 45.9646 22.5021 45.7427 22.5205C45.5208 22.5388 45.3081 22.4838 45.1047 22.3554L40.4998 19.6036Z" fill="#FBBC05"/>
<path d="M67.4998 19.6036L62.8949 22.3554C62.6915 22.4838 62.4788 22.5388 62.2569 22.5205C62.0349 22.5021 61.8408 22.4288 61.6743 22.3003C61.5079 22.1719 61.3784 22.0116 61.286 21.8193C61.1935 21.6263 61.175 21.4106 61.2305 21.1721L62.451 15.9713L58.3732 12.4765C58.1883 12.3114 58.0729 12.1232 58.027 11.9119C57.9804 11.7013 57.9941 11.4951 58.0681 11.2933C58.142 11.0915 58.253 10.9264 58.401 10.798C58.5489 10.6695 58.7523 10.587 59.0112 10.5503L64.3929 10.0825L66.4734 5.18435C66.5659 4.96421 66.7094 4.7991 66.9039 4.68903C67.0977 4.57896 67.2964 4.52393 67.4998 4.52393C67.7032 4.52393 67.9022 4.57896 68.0968 4.68903C68.2906 4.7991 68.4337 4.96421 68.5262 5.18435L70.6067 10.0825L75.9883 10.5503C76.2472 10.587 76.4507 10.6695 76.5986 10.798C76.7466 10.9264 76.8575 11.0915 76.9315 11.2933C77.0055 11.4951 77.0195 11.7013 76.9737 11.9119C76.9271 12.1232 76.8113 12.3114 76.6264 12.4765L72.5485 15.9713L73.7691 21.1721C73.8246 21.4106 73.8061 21.6263 73.7136 21.8193C73.6212 22.0116 73.4917 22.1719 73.3253 22.3003C73.1588 22.4288 72.9646 22.5021 72.7427 22.5205C72.5208 22.5388 72.3081 22.4838 72.1047 22.3554L67.4998 19.6036Z" fill="#FBBC05"/>
<path d="M94.4998 19.6036L89.8949 22.3554C89.6915 22.4838 89.4788 22.5388 89.2569 22.5205C89.0349 22.5021 88.8408 22.4288 88.6743 22.3003C88.5079 22.1719 88.3784 22.0116 88.286 21.8193C88.1935 21.6263 88.175 21.4106 88.2305 21.1721L89.451 15.9713L85.3732 12.4765C85.1883 12.3114 85.0729 12.1232 85.027 11.9119C84.9804 11.7013 84.9941 11.4951 85.0681 11.2933C85.142 11.0915 85.253 10.9264 85.401 10.798C85.5489 10.6695 85.7523 10.587 86.0112 10.5503L91.3929 10.0825L93.4734 5.18435C93.5659 4.96421 93.7094 4.7991 93.9039 4.68903C94.0977 4.57896 94.2964 4.52393 94.4998 4.52393C94.7032 4.52393 94.9022 4.57896 95.0968 4.68903C95.2906 4.7991 95.4337 4.96421 95.5262 5.18435L97.6067 10.0825L102.988 10.5503C103.247 10.587 103.451 10.6695 103.599 10.798C103.747 10.9264 103.858 11.0915 103.932 11.2933C104.005 11.4951 104.02 11.7013 103.974 11.9119C103.927 12.1232 103.811 12.3114 103.626 12.4765L99.5485 15.9713L100.769 21.1721C100.825 21.4106 100.806 21.6263 100.714 21.8193C100.621 22.0116 100.492 22.1719 100.325 22.3003C100.159 22.4288 99.9646 22.5021 99.7427 22.5205C99.5208 22.5388 99.3081 22.4838 99.1047 22.3554L94.4998 19.6036Z" fill="#FBBC05"/>
<path d="M121.5 19.6036L116.895 22.3554C116.691 22.4838 116.479 22.5388 116.257 22.5205C116.035 22.5021 115.841 22.4288 115.674 22.3003C115.508 22.1719 115.378 22.0116 115.286 21.8193C115.193 21.6263 115.175 21.4106 115.23 21.1721L116.451 15.9713L112.373 12.4765C112.188 12.3114 112.073 12.1232 112.027 11.9119C111.98 11.7013 111.994 11.4951 112.068 11.2933C112.142 11.0915 112.253 10.9264 112.401 10.798C112.549 10.6695 112.752 10.587 113.011 10.5503L118.393 10.0825L120.473 5.18435C120.566 4.96421 120.709 4.7991 120.904 4.68903C121.098 4.57896 121.296 4.52393 121.5 4.52393C121.703 4.52393 121.902 4.57896 122.097 4.68903C122.291 4.7991 122.434 4.96421 122.526 5.18435L124.607 10.0825L129.988 10.5503C130.247 10.587 130.451 10.6695 130.599 10.798C130.747 10.9264 130.858 11.0915 130.932 11.2933C131.005 11.4951 131.02 11.7013 130.974 11.9119C130.927 12.1232 130.811 12.3114 130.626 12.4765L126.549 15.9713L127.769 21.1721C127.825 21.4106 127.806 21.6263 127.714 21.8193C127.621 22.0116 127.492 22.1719 127.325 22.3003C127.159 22.4288 126.965 22.5021 126.743 22.5205C126.521 22.5388 126.308 22.4838 126.105 22.3554L121.5 19.6036Z" fill="#FBBC05"/>
</svg>
