<svg width="36" height="37" viewBox="0 0 36 37" fill="none" xmlns="http://www.w3.org/2000/svg">
<g clip-path="url(#clip0_1097_6509)">
<path d="M18 32.0239C25.4558 32.0239 31.5 25.9798 31.5 18.5239C31.5 11.0681 25.4558 5.02393 18 5.02393C10.5442 5.02393 4.5 11.0681 4.5 18.5239C4.5 25.9798 10.5442 32.0239 18 32.0239Z" stroke="white" stroke-width="2.5" stroke-linecap="round" stroke-linejoin="round"/>
<path d="M23.625 12.899H21.375C20.9313 12.8971 20.4916 12.9831 20.0813 13.1521C19.671 13.321 19.2982 13.5696 18.9844 13.8833C18.6706 14.1971 18.4221 14.5699 18.2531 14.9802C18.0842 15.3905 17.9982 15.8302 18 16.274V32.024" stroke="white" stroke-width="2.5" stroke-linecap="round" stroke-linejoin="round"/>
<path d="M13.5 20.7739H22.5" stroke="white" stroke-width="2.5" stroke-linecap="round" stroke-linejoin="round"/>
</g>
<defs>
<clipPath id="clip0_1097_6509">
<rect width="36" height="36" fill="white" transform="translate(0 0.523926)"/>
</clipPath>
</defs>
</svg>
