<svg width="36" height="37" viewBox="0 0 36 37" fill="none" xmlns="http://www.w3.org/2000/svg">
<g clip-path="url(#clip0_1097_6507)">
<path d="M18 24.1489C21.1066 24.1489 23.625 21.6305 23.625 18.5239C23.625 15.4173 21.1066 12.8989 18 12.8989C14.8934 12.8989 12.375 15.4173 12.375 18.5239C12.375 21.6305 14.8934 24.1489 18 24.1489Z" stroke="white" stroke-width="2.5" stroke-miterlimit="10"/>
<path d="M24.1875 5.58643H11.8125C8.08458 5.58643 5.0625 8.6085 5.0625 12.3364V24.7114C5.0625 28.4393 8.08458 31.4614 11.8125 31.4614H24.1875C27.9154 31.4614 30.9375 28.4393 30.9375 24.7114V12.3364C30.9375 8.6085 27.9154 5.58643 24.1875 5.58643Z" stroke="white" stroke-width="2.5" stroke-linecap="round" stroke-linejoin="round"/>
<path d="M25.3125 12.8989C26.2445 12.8989 27 12.1434 27 11.2114C27 10.2794 26.2445 9.52393 25.3125 9.52393C24.3805 9.52393 23.625 10.2794 23.625 11.2114C23.625 12.1434 24.3805 12.8989 25.3125 12.8989Z" fill="white"/>
</g>
<defs>
<clipPath id="clip0_1097_6507">
<rect width="36" height="36" fill="white" transform="translate(0 0.523926)"/>
</clipPath>
</defs>
</svg>
