<svg width="43" height="43" viewBox="0 0 43 43" fill="none" xmlns="http://www.w3.org/2000/svg">
<g clip-path="url(#clip0_2134_9288)">
<rect y="0.523926" width="42.3987" height="42" rx="8" fill="#E6F3FF"/>
<path d="M21.2211 12.2655H21.1778C20.5426 12.2655 20.0278 12.7804 20.0278 13.4155V29.6324C20.0278 30.2675 20.5426 30.7824 21.1778 30.7824H21.2211C21.8562 30.7824 22.3711 30.2675 22.3711 29.6324V13.4155C22.3711 12.7804 21.8562 12.2655 21.2211 12.2655Z" fill="#415D78" stroke="#415D78" stroke-width="0.3" stroke-linecap="round"/>
<path d="M29.3942 20.3618H13.0044C12.3693 20.3618 11.8544 20.8767 11.8544 21.5118V21.5359C11.8544 22.1711 12.3693 22.6859 13.0044 22.6859H29.3942C30.0293 22.6859 30.5442 22.1711 30.5442 21.5359V21.5118C30.5442 20.8767 30.0293 20.3618 29.3942 20.3618Z" fill="#415D78" stroke="#415D78" stroke-width="0.3" stroke-linecap="round"/>
</g>
<defs>
<clipPath id="clip0_2134_9288">
<rect width="42.3987" height="42" fill="white" transform="translate(0 0.523926)"/>
</clipPath>
</defs>
</svg>
