<svg width="36" height="37" viewBox="0 0 36 37" fill="none" xmlns="http://www.w3.org/2000/svg">
<g clip-path="url(#clip0_1097_6505)">
<path d="M23.625 15.4304C25.92 17.0783 28.6747 17.9637 31.5 17.9617V12.3367C29.4114 12.3367 27.4084 11.507 25.9315 10.0301C24.4547 8.55329 23.625 6.55025 23.625 4.46167H18V22.4617C18 23.1663 17.8108 23.858 17.4523 24.4647C17.0938 25.0713 16.5791 25.5706 15.9619 25.9105C15.3447 26.2504 14.6475 26.4185 13.9432 26.3971C13.2389 26.3758 12.5532 26.1658 11.9577 25.7891C11.3622 25.4125 10.8787 24.8829 10.5576 24.2557C10.2365 23.6285 10.0896 22.9266 10.1322 22.2232C10.1748 21.5199 10.4054 20.8409 10.7999 20.257C11.1944 19.6731 11.7384 19.2058 12.375 18.9039V13.0539C10.5843 13.3749 8.92225 14.2001 7.58408 15.4327C6.24591 16.6652 5.28712 18.2539 4.82024 20.0123C4.35336 21.7707 4.39778 23.6258 4.94827 25.3598C5.49877 27.0938 6.5325 28.6348 7.92812 29.8019C9.32374 30.969 11.0233 31.7137 12.8274 31.9487C14.6315 32.1837 16.4651 31.8991 18.1131 31.1285C19.7611 30.3578 21.1551 29.1331 22.1314 27.5979C23.1077 26.0628 23.6259 24.281 23.625 22.4617V15.4304Z" stroke="white" stroke-width="2.5" stroke-linecap="round" stroke-linejoin="round"/>
<path d="M15.9619 25.9105C16.5791 25.5706 17.0939 25.0713 17.4523 24.4647C17.8108 23.858 18 23.1663 18 22.4617V4.46167H23.625C23.625 6.55025 24.4547 8.55329 25.9315 10.0301C27.4084 11.507 29.4114 12.3367 31.5 12.3367V17.9617C28.6747 17.9637 25.9201 17.0783 23.625 15.4304V22.4617C23.6259 24.281 23.1078 26.0628 22.1314 27.5979C21.1551 29.1331 19.7612 30.3578 18.1131 31.1285" stroke="white" stroke-width="2.5" stroke-linecap="round" stroke-linejoin="round"/>
</g>
<defs>
<clipPath id="clip0_1097_6505">
<rect width="36" height="36" fill="white" transform="translate(0 0.523926)"/>
</clipPath>
</defs>
</svg>
