<svg width="36" height="37" viewBox="0 0 36 37" fill="none" xmlns="http://www.w3.org/2000/svg">
<g clip-path="url(#clip0_1097_6506)">
<path d="M22.5 18.5239L15.75 14.0239V23.0239L22.5 18.5239Z" stroke="white" stroke-width="2.5" stroke-linecap="round" stroke-linejoin="round"/>
<path d="M3.375 18.5239C3.375 22.7145 3.81094 25.1614 4.13437 26.427C4.22356 26.7704 4.3922 27.0881 4.6267 27.3543C4.8612 27.6206 5.15499 27.828 5.48438 27.9599C10.1953 29.7599 18 29.7177 18 29.7177C18 29.7177 25.8047 29.7599 30.5156 27.9599C30.845 27.828 31.1388 27.6206 31.3733 27.3543C31.6078 27.0881 31.7764 26.7704 31.8656 26.427C32.1891 25.1614 32.625 22.7145 32.625 18.5239C32.625 14.3333 32.1891 11.8864 31.8656 10.6208C31.7764 10.2774 31.6078 9.95975 31.3733 9.69349C31.1388 9.42724 30.845 9.21982 30.5156 9.08798C25.8047 7.28798 18 7.33016 18 7.33016C18 7.33016 10.1953 7.28798 5.48438 9.08798C5.15499 9.21982 4.8612 9.42724 4.6267 9.69349C4.3922 9.95975 4.22356 10.2774 4.13437 10.6208C3.81094 11.8864 3.375 14.3333 3.375 18.5239Z" stroke="white" stroke-width="2.5" stroke-linecap="round" stroke-linejoin="round"/>
</g>
<defs>
<clipPath id="clip0_1097_6506">
<rect width="36" height="36" fill="white" transform="translate(0 0.523926)"/>
</clipPath>
</defs>
</svg>
