<svg width="298" height="63" viewBox="0 0 298 63" fill="none" xmlns="http://www.w3.org/2000/svg">
<path d="M43.1793 20.3524C43.4148 20.3737 43.6162 20.3891 43.7831 20.3993C43.9499 20.41 44.1 20.4175 44.2323 20.4228C44.3651 20.4286 44.4904 20.4312 44.6081 20.4312H45.006C45.3986 20.4312 45.7541 20.4205 46.0736 20.3993C46.3928 20.379 46.6796 20.3471 46.9354 20.3055V28.6528H53.2693V20.3524C53.7703 20.3839 54.1625 20.4046 54.4475 20.4153C54.7325 20.4254 54.9729 20.4312 55.1694 20.4312C55.6705 20.4312 56.0923 20.4153 56.4362 20.3839C56.7797 20.3524 56.9762 20.3263 57.0253 20.3055V41.3538C56.9465 41.3436 56.8169 41.3325 56.6349 41.3227C56.453 41.3122 56.2397 41.3015 55.994 41.2913C55.7483 41.2807 55.4788 41.2732 55.184 41.2679C54.8892 41.2621 54.5949 41.2599 54.3001 41.2599H53.2693V32.4115H46.9354V41.3538C46.788 41.3325 46.4587 41.3122 45.9488 41.2913C45.438 41.2701 44.6718 41.2599 43.6503 41.2599H43.1793V20.3524Z" fill="#0084FF"/>
<path d="M59.634 29.796C59.634 29.1856 59.6287 28.6726 59.6194 28.2574C59.6092 27.8418 59.5995 27.5121 59.5897 27.2677C59.58 27.0238 59.5654 26.8331 59.5459 26.6959C59.5162 26.5104 59.4818 26.3493 59.4424 26.2126C59.4034 26.0758 59.364 25.9687 59.3251 25.8898C59.58 25.9191 59.9142 25.9363 60.3262 25.9412C60.7387 25.9465 61.1907 25.9487 61.6816 25.9487C61.8484 25.9487 62.0617 25.9465 62.322 25.9412C62.5823 25.9363 62.889 25.9244 63.2427 25.9045V34.3917C63.2427 35.1442 63.3117 35.7545 63.4489 36.2237C63.5866 36.6928 63.7778 37.0642 64.0234 37.3373C64.2691 37.6113 64.5586 37.7972 64.8928 37.8946C65.2265 37.9924 65.5899 38.041 65.9829 38.041C66.4835 38.041 66.9523 37.9167 67.3891 37.6671C67.8264 37.4183 68.2411 37.0545 68.6342 36.5755V25.9487H72.2429V39.3897C72.2429 39.8293 72.25 40.1913 72.265 40.4741C72.2796 40.7578 72.3115 41.0217 72.3606 41.2655H68.6342V40.0789C68.3195 40.333 68.0176 40.5502 67.7281 40.7308C67.4383 40.9114 67.1488 41.0584 66.8589 41.1704C66.5694 41.2828 66.2671 41.3634 65.9533 41.4125C65.6386 41.4612 65.3004 41.4855 64.9366 41.4855C64.1314 41.4855 63.4025 41.3465 62.7496 41.0681C62.0963 40.7893 61.5391 40.3963 61.0778 39.8881C60.6162 39.3805 60.2603 38.7647 60.0098 38.041C59.7592 37.3178 59.634 36.5118 59.634 35.6226V29.796Z" fill="#0084FF"/>
<path d="M78.1514 35.4615C78.1514 35.9692 78.2222 36.3901 78.3647 36.7221C78.5072 37.0545 78.706 37.3178 78.9614 37.5135C79.2168 37.7091 79.5235 37.8459 79.8821 37.9237C80.2406 38.0021 80.6407 38.041 81.0824 38.041C81.5927 38.041 82.0694 37.9291 82.5112 37.7038C82.9534 37.4794 83.3336 37.1593 83.6531 36.7438C83.9714 36.329 84.2224 35.8302 84.4043 35.249C84.5853 34.6675 84.6765 34.0203 84.6765 33.3068C84.6765 32.5641 84.5804 31.9241 84.3896 31.3867C84.1976 30.8494 83.9329 30.4045 83.5938 30.0527C83.2548 29.7008 82.8551 29.4419 82.3934 29.2759C81.9318 29.1099 81.4361 29.0267 80.9058 29.0267C80.4836 29.0267 80.0219 29.1316 79.5213 29.3419C79.0202 29.5521 78.5639 29.8327 78.1514 30.1846V35.4615ZM74.5427 20.3053H78.1514V26.4763C78.6817 26.1931 79.2385 25.9855 79.8227 25.8535C80.4074 25.7212 80.9939 25.6557 81.5834 25.6557C82.4961 25.6557 83.3584 25.8439 84.1684 26.2201C84.9783 26.5963 85.6905 27.1234 86.304 27.8029C86.9179 28.4818 87.4013 29.3029 87.7549 30.2656C88.1085 31.2278 88.2856 32.2954 88.2856 33.4679C88.2856 34.7383 88.0939 35.8696 87.7111 36.8611C87.3277 37.8529 86.8024 38.6913 86.1344 39.3751C85.4666 40.0594 84.684 40.5817 83.7855 40.9433C82.8866 41.3045 81.9221 41.4855 80.8907 41.4855C80.0267 41.4855 79.2092 41.366 78.4382 41.1265C77.6676 40.8875 76.9949 40.5211 76.4207 40.0271C75.8462 39.534 75.3895 38.9108 75.0504 38.1583C74.7118 37.4064 74.5427 36.522 74.5427 35.5057V20.3053Z" fill="#0084FF"/>
<path d="M110.9 28.5149C113.892 28.5149 116.327 30.9493 116.327 33.9414C116.327 36.934 113.892 39.3679 110.9 39.3679C107.908 39.3679 105.473 36.934 105.473 33.9414C105.473 30.9493 107.908 28.5149 110.9 28.5149ZM110.9 26.4368C106.762 26.4368 103.395 29.8033 103.395 33.9414C103.395 38.0794 106.762 41.446 110.9 41.446C115.038 41.446 118.405 38.0794 118.405 33.9414C118.405 29.8033 115.038 26.4368 110.9 26.4368Z" fill="#0084FF"/>
<path d="M130.992 37.3534C130.074 38.5485 128.405 39.3678 126.722 39.3678C123.73 39.3678 121.296 36.9338 121.296 33.9412C121.296 30.9492 123.73 28.5148 126.722 28.5148C128.006 28.5148 129.654 29.2137 130.729 30.2144L131.331 30.7744L131.833 28.4533L131.629 28.2643C130.29 27.0169 128.731 26.4367 126.722 26.4367C122.584 26.4367 119.217 29.8033 119.217 33.9412C119.217 38.0797 122.584 41.4459 126.722 41.4459C128.729 41.4459 130.364 40.7974 131.867 39.405L132.051 39.2341L131.777 36.3787L130.992 37.3534Z" fill="#0084FF"/>
<path d="M92.3912 20.3053H90.3136V41.446H103.409V39.441H92.3912V20.3053Z" fill="#0084FF"/>
<path d="M147.031 41.4459H149.109V20.3051H147.031V41.4459Z" fill="#0084FF"/>
<path d="M139.018 34.3009C139.89 34.3009 140.927 34.4231 141.633 34.524C141.633 34.6201 141.634 34.7152 141.633 34.8148C141.626 36.1847 141.687 37.7573 141.718 38.4576C140.92 38.9732 139.832 39.2662 138.669 39.2662C137.305 39.2662 135.016 38.9639 135.016 36.9421C135.016 35.1273 137.091 34.3009 139.018 34.3009ZM144.627 39.5225C144.394 39.4167 143.935 39.1755 143.806 38.6187L143.804 38.5682C143.737 37.0939 143.62 35.8306 143.712 34.8263C144.194 29.5375 143.594 28.2442 140.737 27.2319C138.216 26.3395 135.06 27.7635 134.219 28.1658L133.879 28.3229L134.02 30.5551L134.794 30.1885C135.915 29.6428 138.509 28.6478 140.042 29.1909C141.238 29.6145 141.718 30.3169 141.547 32.4136C140.809 32.3185 139.863 32.2228 139.018 32.2228C135.438 32.2228 132.938 34.1633 132.938 36.9421C132.938 39.6987 135.081 41.3443 138.669 41.3443C140.03 41.3443 141.34 41.0257 142.406 40.4573C142.874 41.0974 143.941 41.2168 143.941 41.2168L145.492 39.7655C145.492 39.7655 144.876 39.6363 144.627 39.5225Z" fill="#0084FF"/>
<path d="M19.8388 12.7612C17.8268 12.8155 15.7792 14.018 13.8165 14.8132C12.1177 15.5014 10.9151 15.3763 10.3327 14.0372C9.67628 12.527 10.6195 11.5915 11.8089 11.0776C13.6136 10.2973 15.4721 9.50383 17.3876 9.14301C22.3273 8.21346 26.7576 9.67438 30.6851 12.6658C34.8461 15.8353 37.061 20.1872 37.3571 25.3233C37.4761 27.3901 36.7193 29.5414 36.1589 31.5988C35.8529 32.7235 34.6859 33.2445 33.7022 32.6967C33.0299 32.3221 32.4217 31.2781 32.3636 30.4906C32.2841 29.4092 32.867 28.2982 32.9674 27.1822C33.6501 19.6103 27.5692 13.0227 19.8388 12.7612Z" fill="#0084FF"/>
<path d="M20.2067 48.2629C23.4059 43.9922 26.3495 40.0648 29.2894 36.1345C29.4583 35.9092 29.58 35.6482 29.7484 35.4228C30.4717 34.456 31.4626 34.2334 32.4442 34.8113C33.5173 35.4425 33.5398 36.5458 32.9317 37.4879C31.7368 39.337 30.4694 41.1456 29.1314 42.8944C26.7953 45.9477 24.3995 48.9571 21.9955 51.9568C20.7216 53.5459 19.4927 53.5558 18.2413 52.0056C16.2524 49.5406 14.3128 47.0373 12.3326 44.5658C11.5182 43.5502 11.232 42.5407 12.377 41.6227C13.5905 40.6488 14.57 41.1905 15.4122 42.2517C16.9104 44.1403 18.4178 46.0217 20.2067 48.2629Z" fill="#00D98C"/>
<path d="M20.1735 37.273C18.3979 34.4725 15.9505 30.9552 14.5773 27.9753C13.1236 24.8205 15.0648 21.2611 18.2322 20.4166C21.9217 19.4328 26.1793 21.7069 26.1793 25.3129C26.1793 29.5162 21.8498 34.4549 20.1735 37.273ZM25.1713 17.2393C21.3837 15.1653 16.6206 15.5947 13.3973 18.3009C10.3845 20.83 9.10185 25.4775 10.3686 29.0644C11.9111 33.43 14.9755 36.8008 17.7415 40.3549C17.8094 40.442 17.8753 40.5182 17.9405 40.5939C18.1083 40.8297 18.2739 41.0677 18.4352 41.3062C19.5533 42.9662 20.6516 42.9552 21.7895 41.2552C22.7289 39.8509 23.6622 38.4405 24.595 37.0289C24.8692 36.6758 27.1087 33.2781 27.418 32.7215C28.0563 31.6472 29.6641 29.0726 30.0809 27.0168C30.8657 23.1529 28.7149 19.1794 25.1713 17.2393Z" fill="#0084FF"/>
<path d="M2.89118 25.6801C2.88188 22.4068 3.87713 19.445 5.67308 16.7437C6.44408 15.5851 7.53975 15.2143 8.74125 15.9963C9.89828 16.7482 9.9306 17.9052 9.23858 18.9729C6.09645 23.8227 6.73853 28.5996 9.41243 33.3644C9.74363 33.955 10.0469 34.5653 10.428 35.1219C11.2424 36.3097 10.9446 37.3396 9.85605 38.0409C8.75655 38.7489 7.62855 38.5027 6.89708 37.3828C4.57358 33.8261 2.93123 30.0237 2.89118 25.6801Z" fill="#0084FF"/>
<path d="M182.688 31.75H177.84V36.718H175.296V31.75H170.448V29.446H175.296V24.478H177.84V29.446H182.688V31.75Z" fill="#0058C9"/>
<g clip-path="url(#clip0_2130_13664)">
<path d="M265.978 3.53697e-06C259.784 -0.00294863 253.729 1.8422 248.588 5.29943C248.234 5.54133 245.789 7.28839 245.681 7.3735C241.618 10.4286 238.89 10.9572 235.154 10.021C234.925 9.96274 233.855 9.59541 233.519 9.4655C230.029 8.15169 226.276 7.6947 222.573 8.13292C218.87 8.57115 215.327 9.89179 212.24 11.9839C209.154 14.0759 206.615 16.8783 204.837 20.1554C203.058 23.4325 202.093 27.0886 202.021 30.8165C201.949 34.5443 202.773 38.235 204.424 41.5782C206.074 44.9215 208.503 47.8196 211.507 50.0291C214.51 52.2386 218 53.6949 221.683 54.2756C225.366 54.8563 229.135 54.5443 232.672 53.3661C238.245 51.6996 241.269 52.1566 244.767 54.6248C245.466 55.1176 247.15 56.1972 247.5 56.4525C251.482 59.3746 256.1 61.3113 260.975 62.1039C265.85 62.8966 270.843 62.5225 275.546 61.0126C280.248 59.5026 284.526 56.8996 288.028 53.417C291.531 49.9344 294.158 45.6714 295.694 40.9774C297.231 36.2834 297.633 31.2921 296.868 26.4127C296.102 21.5332 294.192 16.9046 291.292 12.9062C288.393 8.90784 284.587 5.65355 280.187 3.41015C275.787 1.16674 270.917 -0.00190702 265.978 3.53697e-06Z" fill="#007858"/>
<path d="M254.703 36.0881C253.813 36.9637 252.653 37.5122 251.412 37.644C250.17 37.7758 248.921 37.4831 247.867 36.8138L245.793 40.1063C247.59 41.2419 249.718 41.7376 251.831 41.5132C253.945 41.2888 255.922 40.3574 257.44 38.8699L254.703 36.0881ZM250.967 22.676C249.254 22.6488 247.566 23.0881 246.083 23.9469C244.601 24.8058 243.38 26.0517 242.551 27.5513C241.723 29.0509 241.318 30.7477 241.38 32.4598C241.442 34.172 241.969 35.835 242.904 37.2707L260.007 29.9599C259.526 27.9129 258.375 26.085 256.738 24.7656C255.1 23.4463 253.069 22.7109 250.967 22.676ZM245.3 32.7014C245.171 31.5183 245.425 30.325 246.026 29.2975C246.626 28.2699 247.541 27.4627 248.636 26.9948C249.73 26.527 250.946 26.4233 252.104 26.6991C253.261 26.9748 254.3 27.6155 255.066 28.5264L245.3 32.7014ZM265.378 18.4248V36.6525L268.541 37.965L267.049 41.5487L263.913 40.2497C263.282 39.9795 262.745 39.5272 262.372 38.9506C261.955 38.2793 261.745 37.5005 261.767 36.7107V18.4248H265.378ZM237.837 18.4248V36.6525L240.973 37.965L239.481 41.5487L236.345 40.2497C235.735 39.9774 235.217 39.5339 234.854 38.973C234.435 38.3022 234.224 37.5233 234.244 36.7331V18.4248H237.837Z" fill="white"/>
<path d="M280.94 27.1064C281.597 27.4234 282.186 27.8667 282.672 28.4111C283.157 28.9555 283.531 29.5903 283.772 30.2792C284.012 30.968 284.114 31.6976 284.073 32.426C284.031 33.1545 283.847 33.8676 283.529 34.5247L287.028 36.2046C287.975 34.2295 288.206 31.9867 287.681 29.8601C287.157 27.7335 285.909 25.8554 284.152 24.5474C282.395 23.2394 280.238 22.5828 278.051 22.69C275.863 22.7973 273.781 23.6617 272.16 25.1354L274.776 28.0068C275.596 27.2573 276.621 26.7708 277.72 26.6103C278.819 26.4498 279.941 26.6226 280.94 27.1064Z" fill="#C7D540"/>
<path d="M276.125 37.1273C274.797 36.4877 273.777 35.3473 273.289 33.9565C272.801 32.5657 272.885 31.038 273.522 29.709L270.023 28.0246C269.086 29.9971 268.861 32.2336 269.387 34.3532C269.913 36.4729 271.157 38.3447 272.908 39.65C274.659 40.9552 276.809 41.6131 278.99 41.5117C281.172 41.4103 283.251 40.5559 284.873 39.0938L282.257 36.2269C281.44 36.9689 280.42 37.4507 279.328 37.6111C278.236 37.7714 277.121 37.603 276.125 37.1273ZM230.67 37.3916V32.1145C230.67 30.254 230.118 28.4352 229.084 26.8881C228.051 25.3411 226.581 24.1354 224.862 23.4234C223.143 22.7114 221.252 22.5251 219.427 22.888C217.602 23.251 215.926 24.147 214.61 25.4626C213.295 26.7782 212.399 28.4544 212.036 30.2793C211.673 32.1041 211.859 33.9956 212.571 35.7145C213.283 37.4335 214.489 38.9027 216.036 39.9364C217.583 40.9701 219.402 41.5218 221.262 41.5218C222.721 41.522 224.159 41.1831 225.464 40.5318L223.95 36.9929C223.102 37.4616 222.147 37.7009 221.178 37.6871C220.21 37.6732 219.262 37.4067 218.428 36.9139C217.594 36.4211 216.903 35.7191 216.423 34.8774C215.944 34.0356 215.693 33.0833 215.694 32.1145C215.689 31.2045 215.909 30.3073 216.335 29.5029C216.709 28.8009 217.23 28.1871 217.861 27.7027C218.492 27.2183 219.22 26.8744 219.995 26.6942C220.406 26.5968 220.827 26.5472 221.249 26.5463C222.727 26.5451 224.146 27.131 225.192 28.1751C226.239 29.2192 226.828 30.6362 226.831 32.1145V37.3468C226.808 38.1365 227.019 38.9154 227.435 39.5866C227.811 40.1609 228.347 40.6125 228.976 40.8857L230.741 41.5845L232.238 38.0008L230.67 37.3916Z" fill="white"/>
</g>
<defs>
<clipPath id="clip0_2130_13664">
<rect width="95.2808" height="62.5241" fill="white" transform="translate(202)"/>
</clipPath>
</defs>
</svg>
