<svg width="197" height="198" viewBox="0 0 197 198" fill="none" xmlns="http://www.w3.org/2000/svg">
<g filter="url(#filter0_d_1097_6379)">
<circle cx="87" cy="87.5239" r="55" fill="white"/>
</g>
<path d="M86.6095 58.0296C83.3656 58.1171 80.0644 60.0559 76.9001 61.3379C74.1612 62.4475 72.2223 62.2459 71.2833 60.0869C70.2251 57.6521 71.7457 56.1438 73.6634 55.3153C76.573 54.0573 79.5693 52.778 82.6575 52.1963C90.6216 50.6976 97.7643 53.053 104.096 57.8758C110.805 62.9859 114.376 70.0022 114.853 78.2828C115.045 81.615 113.825 85.0834 112.921 88.4005C112.428 90.2138 110.547 91.0537 108.961 90.1705C107.877 89.5667 106.896 87.8834 106.803 86.6137C106.674 84.8703 107.614 83.079 107.776 81.2799C108.877 69.0721 99.0728 58.4512 86.6095 58.0296Z" fill="#0084FF"/>
<path d="M87.2026 115.267C92.3605 108.382 97.1064 102.05 101.846 95.7132C102.118 95.3498 102.315 94.929 102.586 94.5657C103.752 93.0069 105.35 92.648 106.932 93.5798C108.663 94.5975 108.699 96.3763 107.718 97.8952C105.792 100.876 103.749 103.792 101.592 106.612C97.8252 111.534 93.9626 116.386 90.0866 121.223C88.0328 123.785 86.0515 123.801 84.0339 121.301C80.8273 117.327 77.7002 113.291 74.5076 109.306C73.1947 107.669 72.7333 106.041 74.5792 104.561C76.5358 102.991 78.1149 103.865 79.4728 105.576C81.8883 108.62 84.3186 111.654 87.2026 115.267Z" fill="#00D98C"/>
<path d="M87.1492 97.5486C84.2864 93.0335 80.3406 87.3628 78.1267 82.5585C75.783 77.4722 78.9127 71.7335 84.0193 70.372C89.9676 68.7859 96.8319 72.4523 96.8319 78.2661C96.8319 85.0429 89.8518 93.0052 87.1492 97.5486ZM95.2069 65.2494C89.1003 61.9056 81.421 62.5979 76.2242 66.961C71.3669 71.0386 69.2989 78.5314 71.3413 84.3143C73.8282 91.3528 78.7687 96.7874 83.2281 102.517C83.3377 102.658 83.4439 102.781 83.5491 102.903C83.8196 103.283 84.0865 103.667 84.3465 104.051C86.1492 106.728 87.92 106.71 89.7546 103.969C91.2691 101.705 92.7738 99.431 94.2777 97.1552C94.7197 96.5859 98.3305 91.1079 98.8291 90.2106C99.8582 88.4785 102.45 84.3276 103.122 81.0132C104.388 74.7837 100.92 68.3774 95.2069 65.2494Z" fill="#0084FF"/>
<path d="M59.2858 78.858C59.2708 73.5808 60.8754 68.8056 63.7709 64.4505C65.014 62.5824 66.7805 61.9847 68.7176 63.2454C70.583 64.4576 70.6351 66.323 69.5194 68.0444C64.4535 75.8635 65.4887 83.565 69.7997 91.2471C70.3337 92.1992 70.8226 93.1832 71.437 94.0806C72.75 95.9957 72.2699 97.656 70.5149 98.7867C68.7422 99.9282 66.9236 99.5312 65.7443 97.7258C61.9983 91.9915 59.3504 85.861 59.2858 78.858Z" fill="#0084FF"/>
<defs>
<filter id="filter0_d_1097_6379" x="0.174556" y="0.698482" width="196.797" height="196.797" filterUnits="userSpaceOnUse" color-interpolation-filters="sRGB">
<feFlood flood-opacity="0" result="BackgroundImageFix"/>
<feColorMatrix in="SourceAlpha" type="matrix" values="0 0 0 0 0 0 0 0 0 0 0 0 0 0 0 0 0 0 127 0" result="hardAlpha"/>
<feOffset dx="11.5729" dy="11.5729"/>
<feGaussianBlur stdDeviation="21.6992"/>
<feComposite in2="hardAlpha" operator="out"/>
<feColorMatrix type="matrix" values="0 0 0 0 0.192157 0 0 0 0 0.180392 0 0 0 0 0.505882 0 0 0 0.15 0"/>
<feBlend mode="normal" in2="BackgroundImageFix" result="effect1_dropShadow_1097_6379"/>
<feBlend mode="normal" in="SourceGraphic" in2="effect1_dropShadow_1097_6379" result="shape"/>
</filter>
</defs>
</svg>
