<svg width="152" height="50" viewBox="0 0 152 50" fill="none" xmlns="http://www.w3.org/2000/svg">
<path d="M41.8812 13.4246C42.1261 13.4477 42.3354 13.4644 42.5089 13.4755C42.6823 13.4871 42.8384 13.4952 42.9759 13.501C43.114 13.5073 43.2442 13.5101 43.3666 13.5101H43.7802C44.1883 13.5101 44.5578 13.4985 44.89 13.4755C45.2218 13.4534 45.5199 13.4188 45.7859 13.3737V22.4347H52.3702V13.4246C52.8911 13.4587 53.2987 13.4813 53.5951 13.4928C53.8914 13.5038 54.1412 13.5101 54.3455 13.5101C54.8664 13.5101 55.3049 13.4928 55.6624 13.4587C56.0194 13.4246 56.2237 13.3962 56.2748 13.3737V36.2215C56.1929 36.2104 56.0581 36.1983 55.869 36.1877C55.6799 36.1763 55.4581 36.1647 55.2027 36.1536C54.9473 36.1422 54.6671 36.1339 54.3607 36.1282C54.0542 36.122 53.7483 36.1195 53.4418 36.1195H52.3702V26.5147H45.7859V36.2215C45.6327 36.1983 45.2903 36.1763 44.7602 36.1536C44.2293 36.1306 43.4328 36.1195 42.3709 36.1195H41.8812V13.4246Z" fill="white"/>
<path d="M58.9867 23.6756C58.9867 23.0131 58.9811 22.4562 58.9714 22.0055C58.9609 21.5543 58.9508 21.1964 58.9406 20.9312C58.9305 20.6664 58.9153 20.4594 58.8951 20.3104C58.8642 20.1091 58.8284 19.9342 58.7874 19.7858C58.7469 19.6373 58.706 19.521 58.6655 19.4355C58.9305 19.4672 59.2779 19.486 59.7063 19.4913C60.1351 19.497 60.6049 19.4994 61.1152 19.4994C61.2887 19.4994 61.5104 19.497 61.7809 19.4913C62.0516 19.486 62.3704 19.473 62.7381 19.4514V28.6642C62.7381 29.481 62.8098 30.1435 62.9525 30.6528C63.0955 31.1621 63.2943 31.5652 63.5497 31.8616C63.805 32.159 64.106 32.3609 64.4534 32.4665C64.8003 32.5727 65.1781 32.6255 65.5866 32.6255C66.107 32.6255 66.5943 32.4906 67.0485 32.2196C67.503 31.9496 67.9342 31.5546 68.3428 31.0347V19.4994H72.0941V34.0895C72.0941 34.5666 72.1015 34.9596 72.1171 35.2666C72.1323 35.5746 72.1655 35.861 72.2165 36.1257H68.3428V34.8376C68.0157 35.1134 67.7018 35.3493 67.4009 35.5453C67.0996 35.7413 66.7986 35.9008 66.4973 36.0225C66.1963 36.1445 65.882 36.2319 65.5558 36.2853C65.2287 36.3381 64.8771 36.3645 64.4989 36.3645C63.662 36.3645 62.9041 36.2136 62.2254 35.9114C61.5463 35.6087 60.9671 35.1821 60.4876 34.6306C60.0077 34.0795 59.6377 33.4111 59.3773 32.6255C59.1169 31.8405 58.9867 30.9655 58.9867 30.0003V23.6756Z" fill="white"/>
<path d="M78.2364 29.8256C78.2364 30.3766 78.31 30.8336 78.4582 31.1939C78.6063 31.5548 78.8129 31.8406 79.0784 32.053C79.3439 32.2653 79.6627 32.4138 80.0355 32.4983C80.4082 32.5834 80.8241 32.6256 81.2833 32.6256C81.8138 32.6256 82.3094 32.5041 82.7686 32.2595C83.2283 32.016 83.6235 31.6686 83.9557 31.2175C84.2865 30.7673 84.5475 30.2258 84.7365 29.5949C84.9247 28.9637 85.0196 28.2611 85.0196 27.4867C85.0196 26.6805 84.9197 25.9858 84.7213 25.4024C84.5217 24.8192 84.2465 24.3363 83.894 23.9544C83.5416 23.5724 83.1261 23.2914 82.6462 23.1111C82.1663 22.9309 81.651 22.8407 81.0997 22.8407C80.6608 22.8407 80.1809 22.9545 79.6605 23.1827C79.1396 23.4109 78.6653 23.7156 78.2364 24.0975V29.8256ZM74.485 13.3737H78.2364V20.0722C78.7877 19.7647 79.3665 19.5394 79.9738 19.3962C80.5816 19.2526 81.1913 19.1814 81.8042 19.1814C82.7529 19.1814 83.6493 19.3857 84.4913 19.7941C85.3333 20.2024 86.0736 20.7747 86.7114 21.5122C87.3496 22.2492 87.8521 23.1404 88.2197 24.1854C88.5873 25.2299 88.7714 26.3888 88.7714 27.6615C88.7714 29.0405 88.5721 30.2685 88.1741 31.3448C87.7756 32.4215 87.2295 33.3315 86.5351 34.0738C85.8408 34.8166 85.0274 35.3835 84.0933 35.7761C83.1588 36.1681 82.1562 36.3646 81.0841 36.3646C80.1859 36.3646 79.3361 36.2349 78.5346 35.9749C77.7335 35.7155 77.0341 35.3177 76.4373 34.7815C75.8401 34.2462 75.3653 33.5698 75.0128 32.753C74.6608 31.9367 74.485 30.9767 74.485 29.8736V13.3737Z" fill="white"/>
<path d="M112.28 22.2849C115.39 22.2849 117.921 24.9275 117.921 28.1753C117.921 31.4237 115.39 34.0658 112.28 34.0658C109.17 34.0658 106.639 31.4237 106.639 28.1753C106.639 24.9275 109.17 22.2849 112.28 22.2849ZM112.28 20.0291C107.978 20.0291 104.479 23.6835 104.479 28.1753C104.479 32.6671 107.978 36.3215 112.28 36.3215C116.582 36.3215 120.081 32.6671 120.081 28.1753C120.081 23.6835 116.582 20.0291 112.28 20.0291Z" fill="white"/>
<path d="M133.166 31.8792C132.213 33.1765 130.478 34.0658 128.728 34.0658C125.617 34.0658 123.087 31.4237 123.087 28.1753C123.087 24.9275 125.617 22.2849 128.728 22.2849C130.062 22.2849 131.776 23.0436 132.894 24.1299L133.519 24.7377L134.04 22.2182L133.829 22.013C132.437 20.659 130.816 20.0291 128.728 20.0291C124.426 20.0291 120.926 23.6836 120.926 28.1753C120.926 32.6676 124.426 36.3216 128.728 36.3216C130.814 36.3216 132.514 35.6177 134.076 34.1062L134.267 33.9206L133.983 30.8212L133.166 31.8792Z" fill="white"/>
<path d="M93.0396 13.3734H90.8798V36.3216H104.493V34.1451H93.0396V13.3734Z" fill="white"/>
<path d="M149.84 36.3216H152V13.3734H149.84V36.3216Z" fill="white"/>
<path d="M141.51 28.5656C142.417 28.5656 143.495 28.6983 144.229 28.8078C144.229 28.9121 144.229 29.0154 144.229 29.1235C144.221 30.6105 144.284 32.3175 144.317 33.0777C143.488 33.6374 142.356 33.9554 141.147 33.9554C139.729 33.9554 137.35 33.6273 137.35 31.4326C137.35 29.4626 139.507 28.5656 141.51 28.5656ZM147.341 34.2336C147.099 34.1188 146.621 33.8569 146.487 33.2525L146.485 33.1977C146.415 31.5973 146.294 30.2261 146.389 29.1359C146.891 23.3949 146.267 21.9911 143.296 20.8922C140.677 19.9236 137.395 21.4693 136.521 21.906L136.168 22.0765L136.314 24.4995L137.118 24.1017C138.284 23.5093 140.981 22.4292 142.575 23.0187C143.818 23.4785 144.317 24.241 144.139 26.517C143.372 26.4137 142.389 26.3099 141.51 26.3099C137.789 26.3099 135.19 28.4163 135.19 31.4326C135.19 34.4249 137.417 36.2112 141.147 36.2112C142.562 36.2112 143.924 35.8653 145.032 35.2484C145.518 35.9431 146.628 36.0728 146.628 36.0728L148.241 34.4974C148.241 34.4974 147.6 34.3571 147.341 34.2336Z" fill="white"/>
<path d="M17.6178 5.18457C15.5262 5.24351 13.3976 6.54887 11.3573 7.412C9.59132 8.15904 8.34114 8.02332 7.73573 6.56971C7.05338 4.9304 8.03388 3.91487 9.27034 3.35711C11.1464 2.5101 13.0784 1.64876 15.0696 1.25709C20.2047 0.248067 24.8102 1.83389 28.893 5.08101C33.2185 8.52157 35.521 13.2455 35.8288 18.8207C35.9526 21.0641 35.1659 23.3994 34.5832 25.6327C34.2651 26.8536 33.0521 27.4191 32.0294 26.8245C31.3305 26.4179 30.6983 25.2845 30.6379 24.4297C30.5552 23.2559 31.1612 22.0499 31.2656 20.8386C31.9753 12.6193 25.6539 5.46845 17.6178 5.18457Z" fill="white"/>
<path d="M18.0002 43.7215C21.3259 39.0857 24.386 34.8225 27.4421 30.5562C27.6177 30.3116 27.7443 30.0283 27.9193 29.7836C28.6712 28.7341 29.7013 28.4925 30.7217 29.1199C31.8372 29.805 31.8606 31.0027 31.2285 32.0253C29.9863 34.0325 28.6689 35.9957 27.2779 37.894C24.8495 41.2083 22.3589 44.4751 19.8598 47.7312C18.5355 49.4562 17.258 49.4669 15.9571 47.7842C13.8895 45.1085 11.8733 42.3911 9.81472 39.7083C8.96817 38.6058 8.67065 37.51 9.86088 36.5135C11.1224 35.4564 12.1406 36.0445 13.0162 37.1964C14.5736 39.2464 16.1407 41.2887 18.0002 43.7215Z" fill="#00D98C"/>
<path d="M17.9659 31.7919C16.12 28.752 13.5758 24.934 12.1484 21.6993C10.6371 18.2748 12.6551 14.4111 15.9478 13.4944C19.7832 12.4265 24.2092 14.895 24.2092 18.8094C24.2092 23.372 19.7085 28.7329 17.9659 31.7919ZM23.1614 10.0454C19.2239 7.79416 14.2725 8.26024 10.9216 11.1978C7.78975 13.9432 6.45637 18.988 7.77322 22.8815C9.37675 27.6203 12.5623 31.2794 15.4377 35.1373C15.5083 35.2319 15.5768 35.3146 15.6446 35.3967C15.819 35.6527 15.9911 35.9111 16.1588 36.17C17.3211 37.9719 18.4629 37.9599 19.6458 36.1146C20.6223 34.5902 21.5925 33.0592 22.5622 31.527C22.8472 31.1437 25.1754 27.4555 25.4969 26.8513C26.1604 25.6852 27.8318 22.8905 28.2651 20.6589C29.0809 16.4647 26.8451 12.1515 23.1614 10.0454Z" fill="white"/>
<path d="M6.71484e-05 19.208C-0.00960064 15.6549 1.02501 12.4399 2.89198 9.50764C3.69347 8.2499 4.83248 7.84749 6.08149 8.69629C7.28427 9.51244 7.31788 10.7684 6.59849 11.9274C3.3321 17.1918 3.99957 22.3771 6.77921 27.5493C7.12351 28.1903 7.4388 28.8528 7.83495 29.457C8.6815 30.7464 8.37198 31.8643 7.24038 32.6256C6.0974 33.3941 4.92479 33.1268 4.16439 31.9113C1.749 28.0505 0.041701 23.9229 6.71484e-05 19.208Z" fill="white"/>
</svg>
