<svg width="1060" height="1135" viewBox="0 0 1060 1135" fill="none" xmlns="http://www.w3.org/2000/svg">
<g filter="url(#filter0_d_2129_13606)">
<g clip-path="url(#clip0_2129_13606)">
<rect x="4" y="2.5" width="1052" height="1126" rx="18.1067" fill="white"/>
<rect x="4" y="66.5" width="1050" height="244" fill="white"/>
<rect x="4" y="2.5" width="1052" height="62" fill="#0084FF"/>
<circle cx="40" cy="34.5" r="6" fill="white"/>
<circle cx="64.085" cy="34.5" r="6" fill="#00D98C"/>
<circle cx="88.1697" cy="34.5" r="6" fill="white"/>
<rect x="138.753" y="187.253" width="770.493" height="98.4931" rx="49.2466" fill="white"/>
<path d="M217.754 244.057C217.754 234.063 203.402 237.232 203.402 231.544C203.402 229.228 205.046 228.131 207.25 228.212C209.656 228.253 211.139 229.715 211.259 231.584H217.433C217.072 226.465 213.144 223.499 207.411 223.499C201.638 223.499 197.549 226.587 197.549 231.706C197.509 241.985 211.941 238.288 211.941 244.423C211.941 246.454 210.377 247.876 207.732 247.876C205.126 247.876 203.642 246.373 203.482 244.098H197.469C197.549 249.461 202.039 252.548 207.852 252.548C214.226 252.548 217.754 248.526 217.754 244.057Z" fill="#02132F"/>
<path d="M242.784 229.756H237.132V242.148C237.132 245.763 235.208 247.714 232.161 247.714C229.194 247.714 227.23 245.763 227.23 242.148V229.756H221.617V242.96C221.617 249.136 225.346 252.548 230.517 252.548C233.283 252.548 235.729 251.329 237.132 249.42V252.264H242.784V229.756Z" fill="#02132F"/>
<path d="M253.133 233.006V229.756H247.52V262.99H253.133V249.054C254.496 250.883 256.981 252.63 260.469 252.63C266.162 252.63 270.612 247.957 270.612 240.929C270.612 233.9 266.162 229.39 260.469 229.39C257.021 229.39 254.456 231.097 253.133 233.006ZM264.879 240.929C264.879 245.195 262.033 247.632 258.986 247.632C255.979 247.632 253.133 245.276 253.133 241.01C253.133 236.744 255.979 234.388 258.986 234.388C262.033 234.388 264.879 236.663 264.879 240.929Z" fill="#02132F"/>
<path d="M283.429 234.063C286.316 234.063 288.641 235.931 288.721 238.897H278.178C278.619 235.81 280.743 234.063 283.429 234.063ZM293.973 245.195H287.919C287.198 246.698 285.875 247.917 283.47 247.917C280.663 247.917 278.418 246.048 278.138 242.716H294.374C294.494 241.985 294.534 241.254 294.534 240.522C294.534 233.819 290.004 229.39 283.59 229.39C277.015 229.39 272.445 233.9 272.445 241.01C272.445 248.079 277.135 252.63 283.59 252.63C289.082 252.63 292.77 249.339 293.973 245.195Z" fill="#02132F"/>
<path d="M303.441 241.051C303.441 236.703 305.446 235.403 308.773 235.403H310.257V229.431C307.17 229.431 304.845 230.934 303.441 233.25V229.756H297.829V252.264H303.441V241.051Z" fill="#02132F"/>
<path d="M344.304 252.264H349.917V239.06C349.917 232.844 346.148 229.431 340.816 229.431C337.569 229.431 334.643 231.178 333.199 233.738C331.676 230.934 328.83 229.431 325.382 229.431C322.616 229.431 320.251 230.609 318.847 232.478V229.756H313.235V252.264H318.847V239.832C318.847 236.256 320.812 234.388 323.859 234.388C326.825 234.388 328.79 236.256 328.79 239.832V252.264H334.402V239.832C334.402 236.256 336.366 234.388 339.373 234.388C342.34 234.388 344.304 236.256 344.304 239.832V252.264Z" fill="#02132F"/>
<path d="M363.982 234.063C366.868 234.063 369.193 235.931 369.274 238.897H358.73C359.171 235.81 361.296 234.063 363.982 234.063ZM374.525 245.195H368.472C367.75 246.698 366.427 247.917 364.022 247.917C361.216 247.917 358.971 246.048 358.69 242.716H374.926C375.046 241.985 375.087 241.254 375.087 240.522C375.087 233.819 370.556 229.39 364.142 229.39C357.568 229.39 352.997 233.9 352.997 241.01C352.997 248.079 357.688 252.63 364.142 252.63C369.634 252.63 373.323 249.339 374.525 245.195Z" fill="#02132F"/>
<path d="M383.994 241.051C383.994 236.703 385.998 235.403 389.326 235.403H390.809V229.431C387.722 229.431 385.397 230.934 383.994 233.25V229.756H378.381V252.264H383.994V241.051Z" fill="#02132F"/>
<path d="M392.344 241.01C392.344 248.079 396.914 252.63 403.329 252.63C408.861 252.63 412.589 249.461 413.792 244.666H407.738C407.057 246.698 405.614 247.754 403.289 247.754C400.162 247.754 398.077 245.398 398.077 241.01C398.077 236.622 400.162 234.225 403.289 234.225C405.614 234.225 407.097 235.444 407.738 237.353H413.792C412.589 232.316 408.861 229.39 403.329 229.39C396.914 229.39 392.344 233.941 392.344 241.01Z" fill="#02132F"/>
<path d="M415.659 240.929C415.659 247.957 420.148 252.63 425.761 252.63C429.289 252.63 431.814 250.923 433.137 248.973V252.264H438.79V229.756H433.137V232.966C431.814 231.097 429.369 229.39 425.801 229.39C420.148 229.39 415.659 233.9 415.659 240.929ZM433.137 241.01C433.137 245.276 430.331 247.632 427.244 247.632C424.238 247.632 421.391 245.195 421.391 240.929C421.391 236.663 424.238 234.388 427.244 234.388C430.331 234.388 433.137 236.744 433.137 241.01Z" fill="#02132F"/>
<path d="M442.026 240.929C442.026 247.957 446.516 252.63 452.169 252.63C455.657 252.63 458.142 251.004 459.465 248.932V252.264H465.158V222.199H459.465V232.884C457.942 230.772 455.136 229.39 452.209 229.39C446.516 229.39 442.026 233.9 442.026 240.929ZM459.505 241.01C459.505 245.276 456.699 247.632 453.612 247.632C450.606 247.632 447.759 245.195 447.759 240.929C447.759 236.663 450.606 234.388 453.612 234.388C456.699 234.388 459.505 236.744 459.505 241.01Z" fill="#02132F"/>
<path d="M491.285 241.01C491.285 233.9 486.274 229.39 479.86 229.39C473.446 229.39 468.435 233.9 468.435 241.01C468.435 248.079 473.285 252.63 479.7 252.63C486.154 252.63 491.285 248.079 491.285 241.01ZM474.127 241.01C474.127 236.5 476.813 234.347 479.78 234.347C482.746 234.347 485.512 236.5 485.512 241.01C485.512 245.479 482.666 247.673 479.7 247.673C476.693 247.673 474.127 245.479 474.127 241.01Z" fill="#02132F"/>
<path d="M534.42 252.264H540.033V239.06C540.033 232.844 536.264 229.431 530.932 229.431C527.685 229.431 524.759 231.178 523.316 233.738C521.792 230.934 518.946 229.431 515.498 229.431C512.732 229.431 510.367 230.609 508.964 232.478V229.756H503.351V252.264H508.964V239.832C508.964 236.256 510.928 234.388 513.975 234.388C516.941 234.388 518.906 236.256 518.906 239.832V252.264H524.518V239.832C524.518 236.256 526.483 234.388 529.489 234.388C532.456 234.388 534.42 236.256 534.42 239.832V252.264Z" fill="#02132F"/>
<path d="M543.114 240.929C543.114 247.957 547.604 252.63 553.216 252.63C556.744 252.63 559.269 250.923 560.592 248.973V252.264H566.245V229.756H560.592V232.966C559.269 231.097 556.824 229.39 553.256 229.39C547.604 229.39 543.114 233.9 543.114 240.929ZM560.592 241.01C560.592 245.276 557.786 247.632 554.699 247.632C551.693 247.632 548.846 245.195 548.846 240.929C548.846 236.663 551.693 234.388 554.699 234.388C557.786 234.388 560.592 236.744 560.592 241.01Z" fill="#02132F"/>
<path d="M570.925 252.264H576.537V229.756H570.925V252.264ZM573.771 227.075C575.735 227.075 577.219 225.612 577.219 223.743C577.219 221.874 575.735 220.412 573.771 220.412C571.767 220.412 570.323 221.874 570.323 223.743C570.323 225.612 571.767 227.075 573.771 227.075Z" fill="#02132F"/>
<path d="M598.519 245.845C598.359 237.597 586.051 240.157 586.051 236.053C586.051 234.753 587.134 233.9 589.218 233.9C591.423 233.9 592.786 235.078 592.946 236.825H598.318C597.998 232.356 594.75 229.39 589.379 229.39C583.886 229.39 580.599 232.397 580.599 236.135C580.599 244.382 593.147 241.822 593.147 245.845C593.147 247.145 591.944 248.16 589.739 248.16C587.494 248.16 585.931 246.86 585.73 245.154H580.078C580.318 249.339 584.207 252.63 589.779 252.63C595.191 252.63 598.519 249.704 598.519 245.845Z" fill="#02132F"/>
<path d="M616.687 233.006V229.756H611.075V262.99H616.687V249.054C618.05 250.883 620.536 252.63 624.024 252.63C629.716 252.63 634.166 247.957 634.166 240.929C634.166 233.9 629.716 229.39 624.024 229.39C620.576 229.39 618.01 231.097 616.687 233.006ZM628.433 240.929C628.433 245.195 625.587 247.632 622.54 247.632C619.534 247.632 616.687 245.276 616.687 241.01C616.687 236.744 619.534 234.388 622.54 234.388C625.587 234.388 628.433 236.663 628.433 240.929Z" fill="#02132F"/>
<path d="M643.055 241.051C643.055 236.703 645.06 235.403 648.387 235.403H649.87V229.431C646.784 229.431 644.458 230.934 643.055 233.25V229.756H637.443V252.264H643.055V241.051Z" fill="#02132F"/>
<path d="M674.297 241.01C674.297 233.9 669.285 229.39 662.871 229.39C656.457 229.39 651.446 233.9 651.446 241.01C651.446 248.079 656.297 252.63 662.711 252.63C669.165 252.63 674.297 248.079 674.297 241.01ZM657.138 241.01C657.138 236.5 659.824 234.347 662.791 234.347C665.758 234.347 668.524 236.5 668.524 241.01C668.524 245.479 665.677 247.673 662.711 247.673C659.704 247.673 657.138 245.479 657.138 241.01ZM658.261 223.824V227.887L667.481 223.621V218.99L658.261 223.824Z" fill="#02132F"/>
<path d="M689.879 252.264H696.213L688.837 240.969L696.133 229.756H690.12L686.03 236.703L681.5 229.756H675.166L682.503 240.969L675.247 252.264H681.26L685.309 245.276L689.879 252.264Z" fill="#02132F"/>
<path d="M698.46 252.264H704.072V229.756H698.46V252.264ZM701.306 227.075C703.27 227.075 704.754 225.612 704.754 223.743C704.754 221.874 703.27 220.412 701.306 220.412C699.302 220.412 697.858 221.874 697.858 223.743C697.858 225.612 699.302 227.075 701.306 227.075Z" fill="#02132F"/>
<path d="M739.884 252.264H745.497V239.06C745.497 232.844 741.729 229.431 736.397 229.431C733.15 229.431 730.223 231.178 728.78 233.738C727.256 230.934 724.41 229.431 720.962 229.431C718.196 229.431 715.831 230.609 714.428 232.478V229.756H708.815V252.264H714.428V239.832C714.428 236.256 716.392 234.388 719.439 234.388C722.406 234.388 724.37 236.256 724.37 239.832V252.264H729.982V239.832C729.982 236.256 731.947 234.388 734.954 234.388C737.92 234.388 739.884 236.256 739.884 239.832V252.264Z" fill="#02132F"/>
<path d="M771.469 241.01C771.469 233.9 766.458 229.39 760.043 229.39C753.629 229.39 748.618 233.9 748.618 241.01C748.618 248.079 753.469 252.63 759.883 252.63C766.337 252.63 771.469 248.079 771.469 241.01ZM754.311 241.01C754.311 236.5 756.997 234.347 759.963 234.347C762.93 234.347 765.696 236.5 765.696 241.01C765.696 245.479 762.85 247.673 759.883 247.673C756.876 247.673 754.311 245.479 754.311 241.01Z" fill="#02132F"/>
<g clip-path="url(#clip1_2129_13606)">
<path d="M834.025 245.358L844.656 255.99" stroke="#00D98C" stroke-width="4.66665" stroke-linecap="round" stroke-linejoin="round"/>
<path d="M821.031 250.74C831.179 250.74 839.406 242.513 839.406 232.365C839.406 222.216 831.179 213.99 821.031 213.99C810.883 213.99 802.656 222.216 802.656 232.365C802.656 242.513 810.883 250.74 821.031 250.74Z" stroke="#0084FF" stroke-width="4.66665" stroke-linecap="round" stroke-linejoin="round"/>
</g>
<rect x="138.753" y="187.253" width="770.493" height="98.4931" rx="49.2466" stroke="#DBE7F3" stroke-width="2.49312"/>
<g clip-path="url(#clip2_2129_13606)">
<rect x="46" y="338.5" width="98" height="232" fill="#E6F3FF"/>
<path d="M93.7203 504.542H85.2028V499.818C85.2028 496.456 86.7972 494.967 89.4825 494.967C92.0839 494.967 93.7203 496.456 93.7203 499.818V504.542ZM89.4825 488.839C84.4056 488.839 80.4196 492.414 80.4196 499.563L80.4196 510.5H109.706V504.542H98.4615V499.563C98.4615 491.903 93.9301 488.839 89.4825 488.839Z" fill="#B3D3EE"/>
<path d="M109.706 464.437V458.139L80.3776 468.82L80.3776 475.757L109.706 486.439V480.183L104.126 478.225V466.395L109.706 464.437ZM99.4266 468.012L99.4266 476.608L87.1748 472.31L99.4266 468.012Z" fill="#B3D3EE"/>
<path d="M80.042 440.443C80.042 449.039 86.2517 455.593 95.021 455.593C103.79 455.593 109.958 449.039 109.958 440.4C109.958 432.485 104.503 427.08 98.5455 425.889H93.4266L93.4266 441.975H97.9161V431.762C102.07 432.655 104.671 435.592 104.671 440.188C104.671 445.72 100.979 449.465 95.021 449.465C89.1888 449.465 85.4545 445.763 85.4545 440.443C85.4545 437.294 86.7552 434.826 89.2308 433.464V426.612C83.3566 428.527 80.042 433.804 80.042 440.443Z" fill="#B3D3EE"/>
<path d="M94.979 392.5C86.2098 392.5 80 399.224 80 407.693C80 416.076 86.2098 422.928 94.979 422.928C103.79 422.928 110 416.076 110 407.693C110 399.266 103.79 392.5 94.979 392.5ZM94.979 416.8C89.021 416.8 85.2867 413.097 85.2867 407.693C85.2867 402.331 89.021 398.628 94.979 398.628C100.937 398.628 104.755 402.331 104.755 407.693C104.755 413.097 100.937 416.8 94.979 416.8Z" fill="#B3D3EE"/>
<path d="M206.253 403.343H208.195L204.166 391.239H202.03L198 403.343H199.926L200.735 400.874H205.444L206.253 403.343ZM204.926 399.257H201.253L203.098 393.639L204.926 399.257Z" fill="#052646"/>
<path d="M215.951 403.343H217.78V397.691C217.78 395.013 216.21 393.604 214.122 393.604C213.054 393.604 212.067 394.074 211.468 394.857V393.761H209.624V403.343H211.468V397.987C211.468 396.23 212.359 395.326 213.718 395.326C215.061 395.326 215.951 396.23 215.951 397.987V403.343Z" fill="#052646"/>
<path d="M227.885 393.761H226.04V399.1C226.04 400.857 225.15 401.761 223.79 401.761C222.447 401.761 221.557 400.857 221.557 399.1V393.761H219.728V399.396C219.728 402.074 221.314 403.483 223.402 403.483C224.454 403.483 225.457 403.013 226.04 402.196V403.343H227.885V393.761ZM221.946 391.622V393.083L225.522 391.187V389.5L221.946 391.622Z" fill="#052646"/>
<path d="M236.323 403.343H238.151V397.691C238.151 395.013 236.582 393.604 234.494 393.604C233.426 393.604 232.439 394.074 231.84 394.857V393.761H229.995V403.343H231.84V397.987C231.84 396.23 232.73 395.326 234.089 395.326C235.433 395.326 236.323 396.23 236.323 397.987V403.343Z" fill="#052646"/>
<path d="M239.566 398.543C239.566 401.552 241.378 403.5 243.935 403.5C246.12 403.5 247.544 402.196 248.046 400.317H246.055C245.715 401.309 245.036 401.83 243.935 401.83C242.446 401.83 241.459 400.648 241.459 398.543C241.459 396.457 242.446 395.274 243.935 395.274C245.036 395.274 245.748 395.865 246.055 396.787H248.046C247.544 394.77 246.12 393.604 243.935 393.604C241.378 393.604 239.566 395.552 239.566 398.543Z" fill="#052646"/>
<path d="M249.561 403.343H251.406V393.761H249.561V403.343ZM250.499 392.491C251.147 392.491 251.664 391.935 251.664 391.222C251.664 390.509 251.147 389.952 250.499 389.952C249.836 389.952 249.318 390.509 249.318 391.222C249.318 391.935 249.836 392.491 250.499 392.491Z" fill="#052646"/>
<path d="M262 398.543C262 395.535 259.993 393.604 257.453 393.604C254.912 393.604 252.905 395.535 252.905 398.543C252.905 401.552 254.831 403.5 257.372 403.5C259.929 403.5 262 401.552 262 398.543ZM254.782 398.543C254.782 396.37 256.029 395.326 257.42 395.326C258.796 395.326 260.107 396.37 260.107 398.543C260.107 400.717 258.747 401.778 257.372 401.778C255.98 401.778 254.782 400.717 254.782 398.543Z" fill="#052646"/>
<rect x="271.901" y="388.5" width="444" height="16" rx="8" fill="#CFDBE7"/>
<rect x="192" y="424.5" width="576" height="26" rx="13" fill="#B1C6DC"/>
<rect x="192" y="466.5" width="750" height="16" rx="8" fill="#EBF3FB"/>
<rect x="192" y="500.5" width="644" height="16" rx="8" fill="#EBF3FB"/>
</g>
<rect x="44" y="336.5" width="962" height="234" rx="16.3017" stroke="#E6F3FF" stroke-width="4.34712"/>
<g clip-path="url(#clip3_2129_13606)">
<rect x="50" y="798.5" width="98" height="740" fill="#00C57F"/>
<path d="M84.042 1043.17C84.042 1051.87 90.2518 1058.5 99.021 1058.5C107.79 1058.5 113.958 1051.87 113.958 1043.12C113.958 1035.11 108.504 1029.64 102.545 1028.44H97.4266V1044.72H101.916V1034.38C106.07 1035.29 108.671 1038.26 108.671 1042.91C108.671 1048.51 104.979 1052.3 99.021 1052.3C93.1888 1052.3 89.4546 1048.55 89.4546 1043.17C89.4546 1039.98 90.7552 1037.48 93.2308 1036.1V1029.17C87.3566 1031.11 84.042 1036.45 84.042 1043.17Z" fill="white"/>
<path d="M93.5245 1008.04C96.1678 1008.04 97.8881 1009.55 97.8881 1012.91L97.8881 1017.95H89.2867L89.2867 1012.91C89.2867 1009.55 90.9231 1008.04 93.5245 1008.04ZM84.4196 1023.98H113.706V1017.95H102.294V1015.11L113.706 1008.47V1001.5L101.832 1008.69C100.573 1003.87 96.965 1001.84 93.3986 1001.84C88.4895 1001.84 84.4196 1005.46 84.4196 1012.69L84.4196 1023.98Z" fill="white"/>
<path d="M113.706 975.973V969.599L84.3776 980.409L84.3776 987.429L113.706 998.239V991.908L108.126 989.927V977.954L113.706 975.973ZM103.427 979.591V988.291L91.1748 983.941L103.427 979.591Z" fill="white"/>
<path d="M89.1608 967.152L89.1608 959.142H113.706V953.112H89.1608L89.1608 945.101H84.4196L84.4196 967.152H89.1608Z" fill="white"/>
<path d="M102.503 940.788C110.224 940.788 114 935.362 114 928.772C114 922.183 110.224 916.498 102.503 916.498H84.4196L84.4196 922.571H102.545C106.573 922.571 108.671 924.81 108.671 928.686C108.671 932.519 106.573 934.759 102.545 934.759H84.4196L84.4196 940.788H102.503Z" fill="white"/>
<path d="M113.706 910.672V904.643H84.4196L84.4196 910.672H113.706Z" fill="white"/>
<path d="M89.1608 900.279L89.1608 892.269H113.706V886.239H89.1608L89.1608 878.229H84.4196L84.4196 900.279H89.1608Z" fill="white"/>
<path d="M98.979 844.5C90.2098 844.5 84 851.305 84 859.875C84 868.36 90.2098 875.294 98.979 875.294C107.79 875.294 114 868.36 114 859.875C114 851.348 107.79 844.5 98.979 844.5ZM98.979 869.092C93.021 869.092 89.2867 865.345 89.2867 859.875C89.2867 854.449 93.021 850.702 98.979 850.702C104.937 850.702 108.755 854.449 108.755 859.875C108.755 865.345 104.937 869.092 98.979 869.092Z" fill="white"/>
<rect x="200" y="854.5" width="252" height="16" rx="8" fill="#CFDBE7"/>
<path d="M215.784 909.794C215.784 901.684 204.28 904.255 204.28 899.64C204.28 897.761 205.597 896.871 207.365 896.937C209.293 896.97 210.482 898.156 210.578 899.673H215.527C215.238 895.519 212.089 893.113 207.493 893.113C202.866 893.113 199.588 895.618 199.588 899.772C199.556 908.113 211.125 905.113 211.125 910.091C211.125 911.739 209.871 912.893 207.75 912.893C205.661 912.893 204.472 911.673 204.344 909.827H199.523C199.588 914.178 203.187 916.684 207.847 916.684C212.956 916.684 215.784 913.42 215.784 909.794Z" fill="#02132F"/>
<path d="M227.333 901.684C229.647 901.684 231.511 903.2 231.575 905.607H223.123C223.477 903.102 225.18 901.684 227.333 901.684ZM235.785 910.717H230.932C230.354 911.937 229.294 912.926 227.365 912.926C225.116 912.926 223.316 911.409 223.091 908.706H236.106C236.203 908.113 236.235 907.519 236.235 906.926C236.235 901.486 232.604 897.893 227.462 897.893C222.191 897.893 218.528 901.552 218.528 907.321C218.528 913.058 222.288 916.75 227.462 916.75C231.864 916.75 234.821 914.08 235.785 910.717Z" fill="#02132F"/>
<path d="M256.326 898.189H251.795V908.244C251.795 911.178 250.252 912.761 247.81 912.761C245.432 912.761 243.857 911.178 243.857 908.244V898.189H239.358V908.904C239.358 913.915 242.347 916.684 246.492 916.684C248.71 916.684 250.67 915.695 251.795 914.145V916.453H256.326V898.189Z" fill="#02132F"/>
<path d="M280.891 916.453H285.39V905.739C285.39 900.695 282.434 897.926 278.288 897.926C276.007 897.926 274.078 898.915 272.922 900.464V898.189H268.423V916.453H272.922V906.365C272.922 903.431 274.496 901.849 276.939 901.849C279.317 901.849 280.891 903.431 280.891 906.365V916.453Z" fill="#02132F"/>
<path d="M297.317 901.684C299.631 901.684 301.495 903.2 301.559 905.607H293.107C293.461 903.102 295.164 901.684 297.317 901.684ZM305.769 910.717H300.916C300.338 911.937 299.277 912.926 297.349 912.926C295.1 912.926 293.3 911.409 293.075 908.706H306.09C306.187 908.113 306.219 907.519 306.219 906.926C306.219 901.486 302.587 897.893 297.446 897.893C292.175 897.893 288.512 901.552 288.512 907.321C288.512 913.058 292.272 916.75 297.446 916.75C301.848 916.75 304.805 914.08 305.769 910.717Z" fill="#02132F"/>
<path d="M308.346 907.255C308.346 912.959 311.945 916.75 316.476 916.75C319.272 916.75 321.297 915.332 322.357 913.75V916.585C322.357 919.981 320.429 921.431 317.955 921.431C315.705 921.431 314.034 920.343 313.584 918.695H309.117C309.567 922.882 313.07 925.453 318.083 925.453C323.932 925.453 326.888 921.53 326.888 916.585V898.189H322.357V900.794C321.297 899.211 319.272 897.893 316.476 897.893C311.945 897.893 308.346 901.552 308.346 907.255ZM322.357 907.321C322.357 910.783 320.108 912.695 317.633 912.695C315.223 912.695 312.941 910.717 312.941 907.255C312.941 903.794 315.223 901.948 317.633 901.948C320.108 901.948 322.357 903.86 322.357 907.321Z" fill="#02132F"/>
<path d="M348.475 907.321C348.475 901.552 344.458 897.893 339.317 897.893C334.175 897.893 330.158 901.552 330.158 907.321C330.158 913.058 334.046 916.75 339.188 916.75C344.362 916.75 348.475 913.058 348.475 907.321ZM334.721 907.321C334.721 903.662 336.874 901.915 339.252 901.915C341.63 901.915 343.848 903.662 343.848 907.321C343.848 910.948 341.566 912.728 339.188 912.728C336.778 912.728 334.721 910.948 334.721 907.321ZM335.621 893.376V896.673L343.012 893.211V889.453L335.621 893.376Z" fill="#02132F"/>
<path d="M350.619 907.321C350.619 913.058 354.282 916.75 359.424 916.75C363.859 916.75 366.847 914.178 367.811 910.288H362.959C362.413 911.937 361.256 912.794 359.392 912.794C356.885 912.794 355.214 910.882 355.214 907.321C355.214 903.761 356.885 901.816 359.392 901.816C361.256 901.816 362.445 902.805 362.959 904.354H367.811C366.847 900.266 363.859 897.893 359.424 897.893C354.282 897.893 350.619 901.585 350.619 907.321Z" fill="#02132F"/>
<path d="M371.107 916.453H375.607V898.189H371.107V916.453ZM373.389 896.014C374.964 896.014 376.153 894.827 376.153 893.31C376.153 891.794 374.964 890.607 373.389 890.607C371.782 890.607 370.625 891.794 370.625 893.31C370.625 894.827 371.782 896.014 373.389 896.014Z" fill="#02132F"/>
<path d="M397.244 907.321C397.244 901.552 393.227 897.893 388.086 897.893C382.944 897.893 378.927 901.552 378.927 907.321C378.927 913.058 382.815 916.75 387.957 916.75C393.131 916.75 397.244 913.058 397.244 907.321ZM383.49 907.321C383.49 903.662 385.643 901.915 388.021 901.915C390.399 901.915 392.617 903.662 392.617 907.321C392.617 910.948 390.335 912.728 387.957 912.728C385.547 912.728 383.49 910.948 383.49 907.321Z" fill="#02132F"/>
<path d="M420.671 916.453H425.17V905.739C425.17 900.695 422.213 897.926 418.068 897.926C415.786 897.926 413.858 898.915 412.701 900.464V898.189H408.202V916.453H412.701V906.365C412.701 903.431 414.276 901.849 416.718 901.849C419.096 901.849 420.671 903.431 420.671 906.365V916.453Z" fill="#02132F"/>
<path d="M446.641 907.321C446.641 901.552 442.624 897.893 437.482 897.893C432.341 897.893 428.324 901.552 428.324 907.321C428.324 913.058 432.212 916.75 437.354 916.75C442.528 916.75 446.641 913.058 446.641 907.321ZM432.887 907.321C432.887 903.662 435.04 901.915 437.418 901.915C439.796 901.915 442.014 903.662 442.014 907.321C442.014 910.948 439.732 912.728 437.354 912.728C434.944 912.728 432.887 910.948 432.887 907.321Z" fill="#02132F"/>
<path d="M458.306 910.783C458.306 914.97 460.587 916.453 463.994 916.453H466.822V912.563H464.733C463.319 912.563 462.837 912.036 462.837 910.816V901.981H466.822V898.189H462.837V893.673H458.306V898.189H456.185V901.981H458.306V910.783Z" fill="#02132F"/>
<path d="M487.251 907.321C487.251 901.552 483.234 897.893 478.092 897.893C472.95 897.893 468.933 901.552 468.933 907.321C468.933 913.058 472.822 916.75 477.963 916.75C483.137 916.75 487.251 913.058 487.251 907.321ZM473.496 907.321C473.496 903.662 475.65 901.915 478.028 901.915C480.406 901.915 482.623 903.662 482.623 907.321C482.623 910.948 480.341 912.728 477.963 912.728C475.553 912.728 473.496 910.948 473.496 907.321Z" fill="#02132F"/>
<path d="M495.05 900.827V898.189H490.551V925.156H495.05V913.849C496.143 915.332 498.135 916.75 500.931 916.75C505.494 916.75 509.061 912.959 509.061 907.255C509.061 901.552 505.494 897.893 500.931 897.893C498.167 897.893 496.11 899.277 495.05 900.827ZM504.466 907.255C504.466 910.717 502.184 912.695 499.742 912.695C497.332 912.695 495.05 910.783 495.05 907.321C495.05 903.86 497.332 901.948 499.742 901.948C502.184 901.948 504.466 903.794 504.466 907.255Z" fill="#02132F"/>
<path d="M529.523 907.321C529.523 901.552 525.506 897.893 520.365 897.893C515.223 897.893 511.206 901.552 511.206 907.321C511.206 913.058 515.094 916.75 520.236 916.75C525.41 916.75 529.523 913.058 529.523 907.321ZM515.769 907.321C515.769 903.662 517.922 901.915 520.3 901.915C522.678 901.915 524.896 903.662 524.896 907.321C524.896 910.948 522.614 912.728 520.236 912.728C517.826 912.728 515.769 910.948 515.769 907.321Z" fill="#02132F"/>
<path d="M566.476 916.91L559.69 921.191C559.39 921.391 559.077 921.476 558.75 921.448C558.423 921.419 558.137 921.305 557.891 921.105C557.646 920.906 557.455 920.656 557.319 920.357C557.183 920.057 557.155 919.721 557.237 919.35L559.036 911.26L553.027 905.824C552.754 905.567 552.584 905.274 552.516 904.946C552.448 904.618 552.468 904.297 552.577 903.983C552.686 903.669 552.849 903.413 553.067 903.213C553.285 903.013 553.585 902.885 553.967 902.828L561.898 902.1L564.964 894.481C565.1 894.138 565.311 893.881 565.598 893.71C565.884 893.539 566.176 893.453 566.476 893.453C566.776 893.453 567.069 893.539 567.356 893.71C567.642 893.881 567.853 894.138 567.989 894.481L571.055 902.1L578.986 902.828C579.367 902.885 579.667 903.013 579.885 903.213C580.103 903.413 580.267 903.669 580.376 903.983C580.485 904.297 580.505 904.618 580.438 904.946C580.369 905.274 580.198 905.567 579.926 905.824L573.917 911.26L575.715 919.35C575.797 919.721 575.77 920.057 575.633 920.357C575.497 920.656 575.306 920.906 575.061 921.105C574.816 921.305 574.53 921.419 574.203 921.448C573.876 921.476 573.562 921.391 573.262 921.191L566.476 916.91Z" fill="#FBBC05"/>
<path d="M606.476 916.91L599.69 921.191C599.39 921.391 599.077 921.476 598.75 921.448C598.423 921.419 598.137 921.305 597.891 921.105C597.646 920.906 597.455 920.656 597.319 920.357C597.183 920.057 597.155 919.721 597.237 919.35L599.036 911.26L593.027 905.824C592.754 905.567 592.584 905.274 592.516 904.946C592.448 904.618 592.468 904.297 592.577 903.983C592.686 903.669 592.849 903.413 593.067 903.213C593.285 903.013 593.585 902.885 593.967 902.828L601.898 902.1L604.964 894.481C605.1 894.138 605.311 893.881 605.598 893.71C605.884 893.539 606.176 893.453 606.476 893.453C606.776 893.453 607.069 893.539 607.356 893.71C607.642 893.881 607.853 894.138 607.989 894.481L611.055 902.1L618.986 902.828C619.367 902.885 619.667 903.013 619.885 903.213C620.103 903.413 620.267 903.669 620.376 903.983C620.485 904.297 620.505 904.618 620.438 904.946C620.369 905.274 620.198 905.567 619.926 905.824L613.917 911.26L615.715 919.35C615.797 919.721 615.77 920.057 615.633 920.357C615.497 920.656 615.306 920.906 615.061 921.105C614.816 921.305 614.53 921.419 614.203 921.448C613.876 921.476 613.562 921.391 613.262 921.191L606.476 916.91Z" fill="#FBBC05"/>
<path d="M646.476 916.91L639.69 921.191C639.39 921.391 639.077 921.476 638.75 921.448C638.423 921.419 638.137 921.305 637.891 921.105C637.646 920.906 637.455 920.656 637.319 920.357C637.183 920.057 637.155 919.721 637.237 919.35L639.036 911.26L633.027 905.824C632.754 905.567 632.584 905.274 632.516 904.946C632.448 904.618 632.468 904.297 632.577 903.983C632.686 903.669 632.849 903.413 633.067 903.213C633.285 903.013 633.585 902.885 633.967 902.828L641.898 902.1L644.964 894.481C645.1 894.138 645.311 893.881 645.598 893.71C645.884 893.539 646.176 893.453 646.476 893.453C646.776 893.453 647.069 893.539 647.356 893.71C647.642 893.881 647.853 894.138 647.989 894.481L651.055 902.1L658.986 902.828C659.367 902.885 659.667 903.013 659.885 903.213C660.103 903.413 660.267 903.669 660.376 903.983C660.485 904.297 660.505 904.618 660.438 904.946C660.369 905.274 660.198 905.567 659.926 905.824L653.917 911.26L655.715 919.35C655.797 919.721 655.77 920.057 655.633 920.357C655.497 920.656 655.306 920.906 655.061 921.105C654.816 921.305 654.53 921.419 654.203 921.448C653.876 921.476 653.562 921.391 653.262 921.191L646.476 916.91Z" fill="#FBBC05"/>
<path d="M686.476 916.91L679.69 921.191C679.39 921.391 679.077 921.476 678.75 921.448C678.423 921.419 678.137 921.305 677.891 921.105C677.646 920.906 677.455 920.656 677.319 920.357C677.183 920.057 677.155 919.721 677.237 919.35L679.036 911.26L673.027 905.824C672.754 905.567 672.584 905.274 672.516 904.946C672.448 904.618 672.468 904.297 672.577 903.983C672.686 903.669 672.849 903.413 673.067 903.213C673.285 903.013 673.585 902.885 673.967 902.828L681.898 902.1L684.964 894.481C685.1 894.138 685.311 893.881 685.598 893.71C685.884 893.539 686.176 893.453 686.476 893.453C686.776 893.453 687.069 893.539 687.356 893.71C687.642 893.881 687.853 894.138 687.989 894.481L691.055 902.1L698.986 902.828C699.367 902.885 699.667 903.013 699.885 903.213C700.103 903.413 700.267 903.669 700.376 903.983C700.485 904.297 700.505 904.618 700.438 904.946C700.369 905.274 700.198 905.567 699.926 905.824L693.917 911.26L695.715 919.35C695.797 919.721 695.77 920.057 695.633 920.357C695.497 920.656 695.306 920.906 695.061 921.105C694.816 921.305 694.53 921.419 694.203 921.448C693.876 921.476 693.562 921.391 693.262 921.191L686.476 916.91Z" fill="#FBBC05"/>
<path d="M726.476 916.91L719.69 921.191C719.39 921.391 719.077 921.476 718.75 921.448C718.423 921.419 718.137 921.305 717.891 921.105C717.646 920.906 717.455 920.656 717.319 920.357C717.183 920.057 717.155 919.721 717.237 919.35L719.036 911.26L713.027 905.824C712.754 905.567 712.584 905.274 712.516 904.946C712.448 904.618 712.468 904.297 712.577 903.983C712.686 903.669 712.849 903.413 713.067 903.213C713.285 903.013 713.585 902.885 713.967 902.828L721.898 902.1L724.964 894.481C725.1 894.138 725.311 893.881 725.598 893.71C725.884 893.539 726.176 893.453 726.476 893.453C726.776 893.453 727.069 893.539 727.356 893.71C727.642 893.881 727.853 894.138 727.989 894.481L731.055 902.1L738.986 902.828C739.367 902.885 739.667 903.013 739.885 903.213C740.103 903.413 740.267 903.669 740.376 903.983C740.485 904.297 740.505 904.618 740.438 904.946C740.369 905.274 740.198 905.567 739.926 905.824L733.917 911.26L735.715 919.35C735.797 919.721 735.77 920.057 735.633 920.357C735.497 920.656 735.306 920.906 735.061 921.105C734.816 921.305 734.53 921.419 734.203 921.448C733.876 921.476 733.562 921.391 733.262 921.191L726.476 916.91Z" fill="#FBC015"/>
<rect x="200" y="944.406" width="646" height="16" rx="8" fill="#EBF3FB"/>
<rect x="200" y="977.36" width="622" height="16" rx="8" fill="#EBF3FB"/>
<rect x="200" y="1046.36" width="266" height="16" rx="8" fill="#CFDBE7"/>
<rect x="200" y="1079.32" width="618" height="20" rx="10" fill="#B1C6DC"/>
<rect x="200.068" y="1116.27" width="658" height="16" rx="8" transform="rotate(0.243647 200.068 1116.27)" fill="#EBF3FB"/>
</g>
<rect x="48" y="796.5" width="962" height="720" rx="16.3017" stroke="#00C57F" stroke-width="4.34712"/>
<path d="M246 636.561V640.899H258.426L248.689 662.844H253.848L263.513 640.321V636.561H246Z" fill="#4285F4"/>
<path d="M265.833 649.323C265.833 657.023 268.158 662.772 275.643 662.772C283.127 662.772 285.453 657.023 285.453 649.323C285.453 641.695 283.127 635.982 275.643 635.982C268.158 635.982 265.833 641.695 265.833 649.323ZM280.439 649.323C280.439 654.023 279.93 658.072 275.643 658.072C271.355 658.072 270.847 654.023 270.847 649.323C270.847 644.804 271.355 640.682 275.643 640.682C279.93 640.682 280.439 644.804 280.439 649.323Z" fill="#4285F4"/>
<path d="M288.014 642.96C288.014 646.756 290.484 648.853 293.791 648.853C297.097 648.853 299.568 646.756 299.568 642.96C299.568 639.2 297.097 637.103 293.791 637.103C290.484 637.103 288.014 639.2 288.014 642.96ZM293.754 640.14C295.026 640.14 295.825 640.971 295.825 642.96C295.825 644.948 295.026 645.816 293.754 645.816C292.519 645.816 291.756 644.948 291.756 642.96C291.756 640.971 292.519 640.14 293.754 640.14ZM292.119 662.844H297.061L311.34 637.537H306.362L292.119 662.844ZM303.964 657.385C303.964 661.217 306.435 663.278 309.741 663.278C313.011 663.278 315.445 661.217 315.445 657.385C315.445 653.589 313.011 651.528 309.741 651.528C306.435 651.528 303.964 653.589 303.964 657.385ZM309.705 654.565C310.94 654.565 311.739 655.397 311.739 657.385C311.739 659.41 310.94 660.241 309.705 660.241C308.433 660.241 307.634 659.41 307.634 657.385C307.634 655.397 308.433 654.565 309.705 654.565Z" fill="#4285F4"/>
<path d="M325.197 652.757C325.197 659.012 329.266 663.17 334.389 663.17C337.55 663.17 339.803 661.723 341.002 659.88V662.844H346.161V636.091H341.002V645.599C339.621 643.719 337.078 642.49 334.425 642.49C329.266 642.49 325.197 646.503 325.197 652.757ZM341.038 652.83C341.038 656.626 338.495 658.723 335.697 658.723C332.972 658.723 330.392 656.553 330.392 652.757C330.392 648.961 332.972 646.937 335.697 646.937C338.495 646.937 341.038 649.034 341.038 652.83Z" fill="#4285F4"/>
<path d="M369.841 652.83C369.841 646.503 365.299 642.49 359.486 642.49C353.672 642.49 349.131 646.503 349.131 652.83C349.131 659.12 353.527 663.17 359.34 663.17C365.19 663.17 369.841 659.12 369.841 652.83ZM354.29 652.83C354.29 648.817 356.724 646.901 359.413 646.901C362.102 646.901 364.609 648.817 364.609 652.83C364.609 656.807 362.029 658.759 359.34 658.759C356.615 658.759 354.29 656.807 354.29 652.83Z" fill="#4285F4"/>
<path d="M388.469 657.132C388.323 649.793 377.169 652.07 377.169 648.419C377.169 647.262 378.15 646.503 380.039 646.503C382.038 646.503 383.273 647.551 383.418 649.106H388.287C387.996 645.129 385.053 642.49 380.185 642.49C375.207 642.49 372.228 645.165 372.228 648.491C372.228 655.83 383.6 653.553 383.6 657.132C383.6 658.289 382.51 659.193 380.512 659.193C378.477 659.193 377.06 658.036 376.878 656.517H371.755C371.973 660.241 375.498 663.17 380.548 663.17C385.453 663.17 388.469 660.567 388.469 657.132Z" fill="#4285F4"/>
<path d="M404.935 645.744V636.091H399.848V662.844H404.935V659.988C406.17 661.723 408.423 663.17 411.584 663.17C416.743 663.17 420.776 659.012 420.776 652.757C420.776 646.503 416.743 642.49 411.584 642.49C408.532 642.49 406.17 643.9 404.935 645.744ZM415.581 652.757C415.581 656.553 413.001 658.723 410.24 658.723C407.515 658.723 404.935 656.626 404.935 652.83C404.935 649.034 407.515 646.937 410.24 646.937C413.001 646.937 415.581 648.961 415.581 652.757Z" fill="#4285F4"/>
<path d="M428.833 652.866C428.833 648.997 430.649 647.841 433.665 647.841H435.009V642.526C432.212 642.526 430.104 643.864 428.833 645.924V642.815H423.746V662.844H428.833V652.866Z" fill="#4285F4"/>
<path d="M436.401 652.757C436.401 659.012 440.47 663.17 445.557 663.17C448.754 663.17 451.043 661.651 452.242 659.916V662.844H457.365V642.815H452.242V645.671C451.043 644.008 448.827 642.49 445.593 642.49C440.47 642.49 436.401 646.503 436.401 652.757ZM452.242 652.83C452.242 656.626 449.699 658.723 446.901 658.723C444.176 658.723 441.596 656.553 441.596 652.757C441.596 648.961 444.176 646.937 446.901 646.937C449.699 646.937 452.242 649.034 452.242 652.83Z" fill="#4285F4"/>
<path d="M477.23 657.132C477.085 649.793 465.93 652.07 465.93 648.419C465.93 647.262 466.911 646.503 468.8 646.503C470.799 646.503 472.034 647.551 472.18 649.106H477.048C476.758 645.129 473.815 642.49 468.946 642.49C463.968 642.49 460.989 645.165 460.989 648.491C460.989 655.83 472.361 653.553 472.361 657.132C472.361 658.289 471.271 659.193 469.273 659.193C467.238 659.193 465.821 658.036 465.639 656.517H460.516C460.734 660.241 464.259 663.17 469.309 663.17C474.214 663.17 477.23 660.567 477.23 657.132Z" fill="#4285F4"/>
<path d="M480.679 662.844H485.765V642.815H480.679V662.844ZM483.258 640.429C485.039 640.429 486.383 639.128 486.383 637.465C486.383 635.802 485.039 634.5 483.258 634.5C481.442 634.5 480.134 635.802 480.134 637.465C480.134 639.128 481.442 640.429 483.258 640.429Z" fill="#4285F4"/>
<path d="M490.064 662.844H495.151V636.091H490.064V662.844Z" fill="#4285F4"/>
<path d="M508.097 646.648C510.713 646.648 512.821 648.311 512.893 650.95H503.338C503.737 648.202 505.663 646.648 508.097 646.648ZM517.653 656.553H512.167C511.513 657.891 510.314 658.976 508.134 658.976C505.59 658.976 503.556 657.313 503.301 654.348H518.016C518.125 653.697 518.162 653.047 518.162 652.396C518.162 646.431 514.056 642.49 508.243 642.49C502.284 642.49 498.142 646.503 498.142 652.83C498.142 659.12 502.393 663.17 508.243 663.17C513.22 663.17 516.563 660.241 517.653 656.553Z" fill="#4285F4"/>
<path d="M521.148 662.844H526.234V642.815H521.148V662.844ZM523.727 640.429C525.508 640.429 526.852 639.128 526.852 637.465C526.852 635.802 525.508 634.5 523.727 634.5C521.911 634.5 520.603 635.802 520.603 637.465C520.603 639.128 521.911 640.429 523.727 640.429Z" fill="#4285F4"/>
<path d="M535.62 652.866C535.62 648.997 537.437 647.841 540.452 647.841H541.797V642.526C538.999 642.526 536.892 643.864 535.62 645.924V642.815H530.533V662.844H535.62V652.866Z" fill="#4285F4"/>
<path d="M563.935 652.83C563.935 646.503 559.393 642.49 553.58 642.49C547.766 642.49 543.225 646.503 543.225 652.83C543.225 659.12 547.621 663.17 553.434 663.17C559.284 663.17 563.935 659.12 563.935 652.83ZM548.384 652.83C548.384 648.817 550.818 646.901 553.507 646.901C556.196 646.901 558.703 648.817 558.703 652.83C558.703 656.807 556.123 658.759 553.434 658.759C550.709 658.759 548.384 656.807 548.384 652.83Z" fill="#4285F4"/>
<path d="M582.563 657.132C582.417 649.793 571.263 652.07 571.263 648.419C571.263 647.262 572.244 646.503 574.133 646.503C576.132 646.503 577.367 647.551 577.512 649.106H582.381C582.09 645.129 579.147 642.49 574.279 642.49C569.301 642.49 566.322 645.165 566.322 648.491C566.322 655.83 577.694 653.553 577.694 657.132C577.694 658.289 576.604 659.193 574.606 659.193C572.571 659.193 571.154 658.036 570.972 656.517H565.849C566.067 660.241 569.592 663.17 574.642 663.17C579.547 663.17 582.563 660.567 582.563 657.132Z" fill="#4285F4"/>
<path d="M599.029 645.708V642.815H593.942V672.389H599.029V659.988C600.264 661.615 602.517 663.17 605.678 663.17C610.837 663.17 614.87 659.012 614.87 652.757C614.87 646.503 610.837 642.49 605.678 642.49C602.553 642.49 600.228 644.008 599.029 645.708ZM609.675 652.757C609.675 656.553 607.095 658.723 604.334 658.723C601.609 658.723 599.029 656.626 599.029 652.83C599.029 649.034 601.609 646.937 604.334 646.937C607.095 646.937 609.675 648.961 609.675 652.757Z" fill="#4285F4"/>
<path d="M622.927 652.866C622.927 648.997 624.743 647.841 627.759 647.841H629.103V642.526C626.306 642.526 624.198 643.864 622.927 645.924V642.815H617.84V662.844H622.927V652.866Z" fill="#4285F4"/>
<path d="M640.45 646.648C643.066 646.648 645.173 648.311 645.246 650.95H635.69C636.09 648.202 638.016 646.648 640.45 646.648ZM650.006 656.553H644.52C643.866 657.891 642.666 658.976 640.486 658.976C637.943 658.976 635.908 657.313 635.654 654.348H650.369C650.478 653.697 650.515 653.047 650.515 652.396C650.515 646.431 646.409 642.49 640.595 642.49C634.637 642.49 630.495 646.503 630.495 652.83C630.495 659.12 634.746 663.17 640.595 663.17C645.573 663.17 648.916 660.241 650.006 656.553Z" fill="#4285F4"/>
<path d="M654.046 662.844H659.205V646.973H662.729V642.815H659.205V641.984C659.205 639.742 660.041 638.947 662.511 639.019V634.753C656.843 634.608 654.046 636.886 654.046 641.803V642.815H651.757V646.973H654.046V662.844Z" fill="#4285F4"/>
<path d="M673.946 646.648C676.562 646.648 678.67 648.311 678.742 650.95H669.187C669.586 648.202 671.512 646.648 673.946 646.648ZM683.502 656.553H678.016C677.362 657.891 676.163 658.976 673.983 658.976C671.439 658.976 669.405 657.313 669.15 654.348H683.865C683.974 653.697 684.011 653.047 684.011 652.396C684.011 646.431 679.905 642.49 674.092 642.49C668.133 642.49 663.991 646.503 663.991 652.83C663.991 659.12 668.242 663.17 674.092 663.17C679.069 663.17 682.412 660.241 683.502 656.553Z" fill="#4285F4"/>
<path d="M692.084 652.866C692.084 648.997 693.9 647.841 696.916 647.841H698.26V642.526C695.463 642.526 693.355 643.864 692.084 645.924V642.815H686.997V662.844H692.084V652.866Z" fill="#4285F4"/>
<path d="M709.607 646.648C712.223 646.648 714.33 648.311 714.403 650.95H704.847C705.247 648.202 707.173 646.648 709.607 646.648ZM719.163 656.553H713.676C713.022 657.891 711.823 658.976 709.643 658.976C707.1 658.976 705.065 657.313 704.811 654.348H719.526C719.635 653.697 719.671 653.047 719.671 652.396C719.671 646.431 715.566 642.49 709.752 642.49C703.794 642.49 699.652 646.503 699.652 652.83C699.652 659.12 703.903 663.17 709.752 663.17C714.73 663.17 718.073 660.241 719.163 656.553Z" fill="#4285F4"/>
<path d="M750.816 662.844H755.903V651.094C755.903 645.563 752.487 642.526 747.655 642.526C744.712 642.526 742.06 644.081 740.752 646.358C739.371 643.864 736.791 642.526 733.667 642.526C731.16 642.526 729.016 643.574 727.744 645.238V642.815H722.658V662.844H727.744V651.781C727.744 648.6 729.525 646.937 732.286 646.937C734.975 646.937 736.755 648.6 736.755 651.781V662.844H741.842V651.781C741.842 648.6 743.622 646.937 746.347 646.937C749.036 646.937 750.816 648.6 750.816 651.781V662.844Z" fill="#4285F4"/>
<path d="M787.372 652.83C787.372 646.503 782.83 642.49 777.017 642.49C771.204 642.49 766.662 646.503 766.662 652.83C766.662 659.12 771.058 663.17 776.872 663.17C782.721 663.17 787.372 659.12 787.372 652.83ZM771.821 652.83C771.821 648.817 774.256 646.901 776.944 646.901C779.633 646.901 782.14 648.817 782.14 652.83C782.14 656.807 779.56 658.759 776.872 658.759C774.147 658.759 771.821 656.807 771.821 652.83Z" fill="#4285F4"/>
<path d="M806 657.132C805.855 649.793 794.7 652.07 794.7 648.419C794.7 647.262 795.681 646.503 797.571 646.503C799.569 646.503 800.804 647.551 800.95 649.106H805.818C805.528 645.129 802.585 642.49 797.716 642.49C792.738 642.49 789.759 645.165 789.759 648.491C789.759 655.83 801.131 653.553 801.131 657.132C801.131 658.289 800.041 659.193 798.043 659.193C796.008 659.193 794.591 658.036 794.41 656.517H789.287C789.505 660.241 793.029 663.17 798.079 663.17C802.984 663.17 806 660.567 806 657.132Z" fill="#4285F4"/>
<path d="M357.051 706.652C357.051 702.783 358.867 701.627 361.883 701.627H363.228V696.312C360.43 696.312 358.322 697.65 357.051 699.71V696.601H351.964V716.63H357.051V706.652Z" fill="#4285F4"/>
<path d="M374.574 700.433C377.19 700.433 379.298 702.097 379.37 704.736H369.815C370.214 701.988 372.14 700.433 374.574 700.433ZM384.13 710.339H378.644C377.99 711.677 376.791 712.762 374.611 712.762C372.067 712.762 370.033 711.099 369.778 708.134H384.493C384.602 707.483 384.639 706.833 384.639 706.182C384.639 700.217 380.533 696.276 374.72 696.276C368.761 696.276 364.619 700.289 364.619 706.616C364.619 712.906 368.87 716.956 374.72 716.956C379.697 716.956 383.04 714.027 384.13 710.339Z" fill="#4285F4"/>
<path d="M403.248 710.918C403.103 703.579 391.948 705.856 391.948 702.205C391.948 701.048 392.929 700.289 394.819 700.289C396.817 700.289 398.052 701.337 398.198 702.892H403.066C402.776 698.915 399.833 696.276 394.964 696.276C389.986 696.276 387.007 698.951 387.007 702.277C387.007 709.616 398.379 707.339 398.379 710.918C398.379 712.075 397.289 712.979 395.291 712.979C393.256 712.979 391.839 711.822 391.658 710.303H386.535C386.753 714.027 390.277 716.956 395.327 716.956C400.232 716.956 403.248 714.353 403.248 710.918Z" fill="#4285F4"/>
<path d="M425.699 696.601H420.576V707.628C420.576 710.846 418.832 712.581 416.071 712.581C413.382 712.581 411.602 710.846 411.602 707.628V696.601H406.515V708.351C406.515 713.846 409.894 716.883 414.581 716.883C417.088 716.883 419.305 715.799 420.576 714.099V716.63H425.699V696.601Z" fill="#4285F4"/>
<path d="M429.991 716.63H435.078V689.877H429.991V716.63Z" fill="#4285F4"/>
<path d="M440.176 710.412C440.176 715.003 442.756 716.63 446.607 716.63H449.805V712.364H447.443C445.844 712.364 445.299 711.786 445.299 710.448V700.759H449.805V696.601H445.299V691.648H440.176V696.601H437.778V700.759H440.176V710.412Z" fill="#4285F4"/>
<path d="M451.429 706.543C451.429 712.798 455.498 716.956 460.585 716.956C463.782 716.956 466.071 715.437 467.27 713.702V716.63H472.393V696.601H467.27V699.457C466.071 697.794 463.855 696.276 460.621 696.276C455.498 696.276 451.429 700.289 451.429 706.543ZM467.27 706.616C467.27 710.412 464.727 712.509 461.929 712.509C459.204 712.509 456.624 710.339 456.624 706.543C456.624 702.747 459.204 700.723 461.929 700.723C464.727 700.723 467.27 702.82 467.27 706.616Z" fill="#4285F4"/>
<path d="M475.326 706.543C475.326 712.798 479.396 716.956 484.519 716.956C487.68 716.956 489.932 715.509 491.131 713.666V716.63H496.291V689.877H491.131V699.385C489.751 697.505 487.207 696.276 484.555 696.276C479.396 696.276 475.326 700.289 475.326 706.543ZM491.168 706.616C491.168 710.412 488.624 712.509 485.827 712.509C483.102 712.509 480.522 710.339 480.522 706.543C480.522 702.747 483.102 700.723 485.827 700.723C488.624 700.723 491.168 702.82 491.168 706.616Z" fill="#4285F4"/>
<path d="M519.971 706.616C519.971 700.289 515.429 696.276 509.616 696.276C503.802 696.276 499.261 700.289 499.261 706.616C499.261 712.906 503.657 716.956 509.47 716.956C515.32 716.956 519.971 712.906 519.971 706.616ZM504.42 706.616C504.42 702.603 506.854 700.687 509.543 700.687C512.232 700.687 514.739 702.603 514.739 706.616C514.739 710.593 512.159 712.545 509.47 712.545C506.745 712.545 504.42 710.593 504.42 706.616Z" fill="#4285F4"/>
<path d="M538.598 710.918C538.453 703.579 527.299 705.856 527.299 702.205C527.299 701.048 528.28 700.289 530.169 700.289C532.167 700.289 533.403 701.337 533.548 702.892H538.417C538.126 698.915 535.183 696.276 530.314 696.276C525.337 696.276 522.357 698.951 522.357 702.277C522.357 709.616 533.73 707.339 533.73 710.918C533.73 712.075 532.64 712.979 530.641 712.979C528.607 712.979 527.19 711.822 527.008 710.303H521.885C522.103 714.027 525.627 716.956 530.678 716.956C535.583 716.956 538.598 714.353 538.598 710.918Z" fill="#4285F4"/>
<path d="M548.67 706.543C548.67 712.798 552.74 716.956 557.863 716.956C561.024 716.956 563.313 715.401 564.512 713.666V716.775C564.512 720.499 562.332 722.089 559.534 722.089C556.991 722.089 555.101 720.896 554.593 719.089H549.542C550.051 723.68 554.011 726.5 559.679 726.5C566.292 726.5 569.635 722.198 569.635 716.775V696.601H564.512V699.457C563.313 697.722 561.024 696.276 557.863 696.276C552.74 696.276 548.67 700.289 548.67 706.543ZM564.512 706.616C564.512 710.412 561.968 712.509 559.171 712.509C556.446 712.509 553.866 710.339 553.866 706.543C553.866 702.747 556.446 700.723 559.171 700.723C561.968 700.723 564.512 702.82 564.512 706.616Z" fill="#4285F4"/>
<path d="M578.963 706.652C578.963 702.783 580.779 701.627 583.795 701.627H585.139V696.312C582.342 696.312 580.234 697.65 578.963 699.71V696.601H573.876V716.63H578.963V706.652Z" fill="#4285F4"/>
<path d="M586.531 706.543C586.531 712.798 590.6 716.956 595.687 716.956C598.884 716.956 601.173 715.437 602.372 713.702V716.63H607.495V696.601H602.372V699.457C601.173 697.794 598.957 696.276 595.723 696.276C590.6 696.276 586.531 700.289 586.531 706.543ZM602.372 706.616C602.372 710.412 599.829 712.509 597.031 712.509C594.306 712.509 591.726 710.339 591.726 706.543C591.726 702.747 594.306 700.723 597.031 700.723C599.829 700.723 602.372 702.82 602.372 706.616Z" fill="#4285F4"/>
<path d="M612.536 710.412C612.536 715.003 615.115 716.63 618.967 716.63H622.164V712.364H619.802C618.204 712.364 617.659 711.786 617.659 710.448V700.759H622.164V696.601H617.659V691.648H612.536V696.601H610.138V700.759H612.536V710.412Z" fill="#4285F4"/>
<path d="M644.098 696.601H638.975V707.628C638.975 710.846 637.231 712.581 634.47 712.581C631.781 712.581 630.001 710.846 630.001 707.628V696.601H624.914V708.351C624.914 713.846 628.293 716.883 632.98 716.883C635.487 716.883 637.704 715.799 638.975 714.099V716.63H644.098V696.601Z" fill="#4285F4"/>
<path d="M648.391 716.63H653.477V696.601H648.391V716.63ZM650.97 694.215C652.751 694.215 654.095 692.914 654.095 691.251C654.095 689.588 652.751 688.286 650.97 688.286C649.154 688.286 647.846 689.588 647.846 691.251C647.846 692.914 649.154 694.215 650.97 694.215Z" fill="#4285F4"/>
<path d="M658.576 710.412C658.576 715.003 661.155 716.63 665.007 716.63H668.204V712.364H665.842C664.244 712.364 663.699 711.786 663.699 710.448V700.759H668.204V696.601H663.699V691.648H658.576V696.601H656.178V700.759H658.576V710.412Z" fill="#4285F4"/>
<path d="M690.574 706.616C690.574 700.289 686.032 696.276 680.219 696.276C674.406 696.276 669.864 700.289 669.864 706.616C669.864 712.906 674.26 716.956 680.074 716.956C685.924 716.956 690.574 712.906 690.574 706.616ZM675.023 706.616C675.023 702.603 677.458 700.687 680.146 700.687C682.835 700.687 685.342 702.603 685.342 706.616C685.342 710.593 682.763 712.545 680.074 712.545C677.349 712.545 675.023 710.593 675.023 706.616Z" fill="#4285F4"/>
<path d="M709.202 710.918C709.057 703.579 697.902 705.856 697.902 702.205C697.902 701.048 698.883 700.289 700.773 700.289C702.771 700.289 704.006 701.337 704.152 702.892H709.02C708.73 698.915 705.787 696.276 700.918 696.276C695.94 696.276 692.961 698.951 692.961 702.277C692.961 709.616 704.333 707.339 704.333 710.918C704.333 712.075 703.243 712.979 701.245 712.979C699.21 712.979 697.793 711.822 697.612 710.303H692.489C692.707 714.027 696.231 716.956 701.281 716.956C706.186 716.956 709.202 714.353 709.202 710.918Z" fill="#4285F4"/>
<circle cx="542" cy="792.5" r="18" fill="white"/>
<path d="M531.45 795.95L540.55 805.05C541.192 805.692 542.008 806.012 543 806.012C543.992 806.012 544.808 805.692 545.45 805.05L554.637 795.862C555.279 795.221 555.586 794.419 555.558 793.458C555.528 792.494 555.192 791.692 554.55 791.05C553.908 790.408 553.092 790.087 552.1 790.087C551.108 790.087 550.292 790.408 549.65 791.05L546.5 794.2L546.5 782.912C546.5 781.921 546.165 781.104 545.496 780.462C544.824 779.821 543.992 779.5 543 779.5C542.008 779.5 541.178 779.836 540.508 780.508C539.836 781.178 539.5 782.008 539.5 783L539.5 794.2L536.262 790.962C535.621 790.321 534.818 790.014 533.854 790.042C532.893 790.072 532.092 790.408 531.45 791.05C530.808 791.692 530.487 792.508 530.487 793.5C530.487 794.492 530.808 795.308 531.45 795.95V795.95ZM508 793.5C508 788.658 508.919 784.108 510.758 779.85C512.594 775.592 515.087 771.887 518.237 768.737C521.387 765.587 525.092 763.094 529.35 761.258C533.608 759.419 538.158 758.5 543 758.5C547.842 758.5 552.392 759.419 556.65 761.258C560.908 763.094 564.612 765.588 567.762 768.738C570.912 771.888 573.407 775.592 575.245 779.85C577.082 784.108 578 788.658 578 793.5C578 798.342 577.082 802.892 575.245 807.15C573.407 811.408 570.912 815.113 567.762 818.263C564.612 821.413 560.908 823.906 556.65 825.742C552.392 827.581 547.842 828.5 543 828.5C538.158 828.5 533.608 827.581 529.35 825.742C525.092 823.906 521.387 821.413 518.237 818.263C515.087 815.113 512.594 811.408 510.758 807.15C508.919 802.892 508 798.342 508 793.5Z" fill="#00D98C"/>
<path d="M388.953 140.5C386.901 140.5 385.062 140.175 383.436 139.526C381.811 138.877 380.505 137.917 379.519 136.645C378.56 135.373 378.053 133.841 378 132.049H385.275C385.382 133.062 385.742 133.841 386.355 134.386C386.968 134.905 387.767 135.165 388.753 135.165C389.766 135.165 390.565 134.944 391.152 134.503C391.738 134.035 392.031 133.399 392.031 132.595C392.031 131.92 391.791 131.361 391.311 130.92C390.858 130.479 390.285 130.115 389.593 129.83C388.926 129.544 387.967 129.22 386.714 128.856C384.902 128.311 383.423 127.766 382.277 127.22C381.131 126.675 380.145 125.87 379.319 124.806C378.493 123.742 378.08 122.353 378.08 120.639C378.08 118.095 379.026 116.109 380.918 114.681C382.81 113.227 385.275 112.5 388.313 112.5C391.405 112.5 393.896 113.227 395.789 114.681C397.681 116.109 398.693 118.108 398.827 120.678H391.431C391.378 119.795 391.045 119.107 390.432 118.614C389.819 118.095 389.033 117.835 388.074 117.835C387.247 117.835 386.581 118.056 386.075 118.497C385.568 118.913 385.315 119.523 385.315 120.328C385.315 121.21 385.742 121.898 386.594 122.392C387.447 122.885 388.78 123.417 390.592 123.988C392.404 124.585 393.87 125.156 394.989 125.702C396.135 126.247 397.121 127.039 397.947 128.077C398.773 129.116 399.186 130.453 399.186 132.088C399.186 133.646 398.773 135.061 397.947 136.333C397.148 137.605 395.975 138.618 394.429 139.371C392.884 140.124 391.058 140.5 388.953 140.5Z" fill="#4285F4"/>
<path d="M410.229 112.889V140.227H403.393V112.889H410.229Z" fill="#EB4335"/>
<path d="M435.369 112.889V118.225H427.934V140.227H421.098V118.225H413.663V112.889H435.369Z" fill="#FBBC06"/>
<path d="M445.635 118.225V123.755H454.79V128.895H445.635V134.892H455.989V140.227H438.8V112.889H455.989V118.225H445.635Z" fill="#4285F4"/>
<path d="M479.411 112.889C482.369 112.889 484.954 113.461 487.166 114.603C489.378 115.745 491.083 117.355 492.283 119.432C493.508 121.483 494.121 123.858 494.121 126.558C494.121 129.232 493.508 131.608 492.283 133.685C491.083 135.762 489.364 137.372 487.126 138.514C484.914 139.656 482.342 140.227 479.411 140.227H468.898V112.889H479.411ZM478.971 134.464C481.556 134.464 483.568 133.776 485.007 132.4C486.446 131.024 487.166 129.077 487.166 126.558C487.166 124.04 486.446 122.08 485.007 120.678C483.568 119.276 481.556 118.575 478.971 118.575H475.733V134.464H478.971Z" fill="#34A853"/>
<path d="M504.777 118.225V123.755H513.931V128.895H504.777V134.892H515.13V140.227H497.941V112.889H515.13V118.225H504.777Z" fill="#EB4335"/>
<path d="M545.028 126.208C546.654 126.545 547.96 127.337 548.946 128.583C549.932 129.804 550.425 131.206 550.425 132.789C550.425 135.074 549.599 136.891 547.946 138.241C546.321 139.565 544.042 140.227 541.111 140.227H528.039V112.889H540.671C543.523 112.889 545.748 113.525 547.347 114.798C548.972 116.07 549.785 117.796 549.785 119.977C549.785 121.587 549.345 122.924 548.466 123.988C547.613 125.053 546.467 125.793 545.028 126.208ZM534.875 123.949H539.352C540.471 123.949 541.324 123.716 541.91 123.248C542.523 122.755 542.83 122.041 542.83 121.106C542.83 120.172 542.523 119.458 541.91 118.965C541.324 118.471 540.471 118.225 539.352 118.225H534.875V123.949ZM539.912 134.853C541.057 134.853 541.937 134.607 542.55 134.113C543.189 133.594 543.509 132.854 543.509 131.894C543.509 130.933 543.176 130.18 542.51 129.635C541.87 129.09 540.978 128.817 539.832 128.817H534.875V134.853H539.912Z" fill="#4285F4"/>
<path d="M561.105 112.889V129.245C561.105 130.881 561.518 132.14 562.344 133.023C563.17 133.906 564.383 134.347 565.982 134.347C567.581 134.347 568.807 133.906 569.66 133.023C570.512 132.14 570.939 130.881 570.939 129.245V112.889H577.774V129.207C577.774 131.647 577.241 133.711 576.175 135.398C575.109 137.086 573.67 138.358 571.858 139.215C570.073 140.072 568.074 140.5 565.862 140.5C563.65 140.5 561.665 140.085 559.906 139.254C558.174 138.397 556.801 137.125 555.789 135.437C554.776 133.724 554.269 131.647 554.269 129.207V112.889H561.105Z" fill="#FBBC06"/>
<path d="M592.728 140.5C590.676 140.5 588.837 140.175 587.211 139.526C585.586 138.877 584.28 137.917 583.294 136.645C582.335 135.373 581.828 133.841 581.775 132.049H589.05C589.157 133.062 589.517 133.841 590.129 134.386C590.742 134.905 591.542 135.165 592.528 135.165C593.541 135.165 594.34 134.944 594.926 134.503C595.513 134.035 595.806 133.399 595.806 132.595C595.806 131.92 595.566 131.361 595.086 130.92C594.633 130.479 594.06 130.115 593.367 129.83C592.701 129.544 591.742 129.22 590.489 128.856C588.677 128.311 587.198 127.766 586.052 127.22C584.906 126.675 583.92 125.87 583.094 124.806C582.268 123.742 581.855 122.353 581.855 120.639C581.855 118.095 582.801 116.109 584.693 114.681C586.585 113.227 589.05 112.5 592.088 112.5C595.18 112.5 597.671 113.227 599.563 114.681C601.456 116.109 602.468 118.108 602.601 120.678H595.206C595.153 119.795 594.82 119.107 594.207 118.614C593.594 118.095 592.808 117.835 591.848 117.835C591.022 117.835 590.356 118.056 589.85 118.497C589.343 118.913 589.09 119.523 589.09 120.328C589.09 121.21 589.517 121.898 590.369 122.392C591.222 122.885 592.555 123.417 594.367 123.988C596.179 124.585 597.645 125.156 598.764 125.702C599.91 126.247 600.896 127.039 601.722 128.077C602.548 129.116 602.961 130.453 602.961 132.088C602.961 133.646 602.548 135.061 601.722 136.333C600.923 137.605 599.75 138.618 598.204 139.371C596.659 140.124 594.833 140.5 592.728 140.5Z" fill="#34A853"/>
<path d="M606.009 126.519C606.009 123.819 606.608 121.418 607.807 119.315C609.007 117.186 610.672 115.538 612.804 114.369C614.963 113.175 617.401 112.578 620.12 112.578C623.451 112.578 626.302 113.435 628.674 115.148C631.046 116.862 632.631 119.198 633.431 122.158H625.916C625.356 121.016 624.557 120.146 623.517 119.549C622.505 118.952 621.345 118.653 620.04 118.653C617.934 118.653 616.229 119.367 614.923 120.795C613.617 122.223 612.964 124.131 612.964 126.519C612.964 128.908 613.617 130.816 614.923 132.244C616.229 133.672 617.934 134.386 620.04 134.386C621.345 134.386 622.505 134.087 623.517 133.49C624.557 132.893 625.356 132.023 625.916 130.881H633.431C632.631 133.841 631.046 136.177 628.674 137.891C626.302 139.578 623.451 140.422 620.12 140.422C617.401 140.422 614.963 139.838 612.804 138.67C610.672 137.475 609.007 135.827 607.807 133.724C606.608 131.621 606.009 129.22 606.009 126.519Z" fill="#EB4335"/>
<path d="M655.086 135.398H644.612L642.934 140.227H635.778L645.932 112.889H653.847L664 140.227H656.765L655.086 135.398ZM653.327 130.258L649.849 120.25L646.411 130.258H653.327Z" fill="#4285F4"/>
</g>
</g>
<defs>
<filter id="filter0_d_2129_13606" x="0" y="0.5" width="1060" height="1134" filterUnits="userSpaceOnUse" color-interpolation-filters="sRGB">
<feFlood flood-opacity="0" result="BackgroundImageFix"/>
<feColorMatrix in="SourceAlpha" type="matrix" values="0 0 0 0 0 0 0 0 0 0 0 0 0 0 0 0 0 0 127 0" result="hardAlpha"/>
<feOffset dy="2"/>
<feGaussianBlur stdDeviation="2"/>
<feColorMatrix type="matrix" values="0 0 0 0 0.117647 0 0 0 0 0.160784 0 0 0 0 0.231373 0 0 0 0.05 0"/>
<feBlend mode="normal" in2="BackgroundImageFix" result="effect1_dropShadow_2129_13606"/>
<feBlend mode="normal" in="SourceGraphic" in2="effect1_dropShadow_2129_13606" result="shape"/>
</filter>
<clipPath id="clip0_2129_13606">
<rect x="4" y="2.5" width="1052" height="1126" rx="18.1067" fill="white"/>
</clipPath>
<clipPath id="clip1_2129_13606">
<rect width="55.9999" height="55.9999" fill="white" transform="translate(795.656 206.99)"/>
</clipPath>
<clipPath id="clip2_2129_13606">
<rect x="44" y="336.5" width="962" height="234" rx="16.3017" fill="white"/>
</clipPath>
<clipPath id="clip3_2129_13606">
<rect x="48" y="796.5" width="962" height="720" rx="16.3017" fill="white"/>
</clipPath>
</defs>
</svg>
