<svg width="166" height="123" viewBox="0 0 166 123" fill="none" xmlns="http://www.w3.org/2000/svg">
<path d="M0.834473 54.1483H165.986V66.2547H165.898C166.427 69.9473 164.576 73.7613 160.346 76.5814L96.9015 118.878C89.393 123.883 77.2335 123.862 69.7423 118.831L6.44372 76.317C2.33117 73.5548 0.480569 69.8568 0.890134 66.2547H0.834473V54.1483Z" fill="url(#paint0_linear_2129_13492)"/>
<path d="M6.44372 64.2105C-1.04746 59.1791 -1.03347 51.0425 6.47495 46.0369L69.9192 3.74071C77.4277 -1.26491 89.5872 -1.24401 97.0784 3.78737L160.377 46.3013C167.868 51.3327 167.854 59.4693 160.346 64.4749L96.9015 106.771C89.393 111.777 77.2335 111.756 69.7423 106.724L6.44372 64.2105Z" fill="white"/>
<g clip-path="url(#clip0_2129_13492)">
<path fill-rule="evenodd" clip-rule="evenodd" d="M95.1647 39.5262C95.4763 39.8298 95.806 40.2004 96.1427 40.6267C96.4787 41.0534 96.7991 41.5263 97.092 42.0269C97.3694 42.5436 97.6038 43.0437 97.789 43.5116C97.9728 43.9748 98.0953 44.3969 98.1567 44.7638C98.216 45.1217 98.2148 45.4163 98.1552 45.6387C98.1098 45.8064 98.0386 45.869 98.0104 45.8878C97.997 45.8967 97.9843 45.9023 97.9681 45.9066C97.9321 45.9155 97.7947 45.9336 97.4977 45.7823C97.2246 45.6441 96.9284 45.4207 96.6162 45.1194C96.2947 44.8091 95.9601 44.4362 95.6269 44.0113C95.2916 43.5879 94.9712 43.115 94.6748 42.6073C94.3804 42.1038 94.1425 41.6099 93.9679 41.1377C93.7926 40.667 93.6771 40.2458 93.6249 39.8851C93.5726 39.5338 93.5774 39.2416 93.6376 39.0159C93.6837 38.8477 93.7542 38.7856 93.7825 38.7668C93.7966 38.7574 93.8093 38.7517 93.8241 38.7485C93.8593 38.7391 93.9974 38.7214 94.2951 38.8723C94.5675 39.0109 94.8595 39.2306 95.1647 39.5262M85.2642 46.1266C85.5757 46.4302 85.9055 46.8008 86.2422 47.2271C86.5803 47.6561 86.9 48.1285 87.1915 48.6273C87.4696 49.1454 87.704 49.6454 87.8885 50.112C88.0722 50.5761 88.1955 50.9978 88.2562 51.3641C88.3154 51.722 88.3149 52.0162 88.254 52.2395C88.2086 52.4072 88.138 52.4693 88.1098 52.4881C88.0964 52.4971 88.0837 52.5027 88.0675 52.5069C88.0316 52.5158 87.8942 52.534 87.5972 52.3826C87.3248 52.245 87.0286 52.0224 86.7156 51.7197C86.3942 51.4104 86.0616 51.0379 85.7263 50.6117C85.3903 50.1878 85.0706 49.7154 84.7742 49.2077C84.4792 48.7028 84.2419 48.2084 84.0666 47.7385C83.892 47.2664 83.7765 46.8452 83.7243 46.4855C83.6728 46.1337 83.6775 45.8405 83.7371 45.6163C83.7824 45.4485 83.8537 45.3859 83.8819 45.3671C83.896 45.3577 83.9087 45.3521 83.9235 45.3488C83.9587 45.3395 84.0976 45.3213 84.3946 45.4727C84.667 45.6112 84.9589 45.8309 85.2642 46.1266M74.4385 53.2118C74.7832 53.5018 75.1419 53.856 75.5054 54.2653C75.8668 54.6742 76.2084 55.1301 76.521 55.6223C76.8315 56.1121 77.0977 56.5901 77.3104 57.0435C77.5181 57.487 77.6597 57.8888 77.7303 58.2392C77.7987 58.5796 77.8074 58.862 77.7549 59.0788C77.7166 59.239 77.6503 59.2983 77.6242 59.3157C77.6122 59.3237 77.5995 59.3293 77.5833 59.3335C77.5466 59.3429 77.4022 59.3629 77.0918 59.2148C76.8067 59.08 76.4901 58.872 76.1482 58.5971C75.8021 58.3174 75.4434 57.9699 75.0834 57.5639C74.7227 57.1574 74.3811 56.7005 74.0678 56.2069C73.753 55.7104 73.4883 55.2324 73.2784 54.7847C73.0699 54.3427 72.9248 53.9375 72.8465 53.5801C72.7696 53.2358 72.7588 52.9511 72.8106 52.7348C72.849 52.5746 72.9153 52.5153 72.9421 52.4974C72.9541 52.4895 72.9668 52.4838 72.9816 52.4805C73.0196 52.4702 73.1697 52.4493 73.4942 52.5927C73.7828 52.7204 74.1002 52.9289 74.4385 53.2128M92.9028 36.5837C93.4212 36.2381 94.0252 36.0473 94.6995 36.0168C95.3497 35.9873 96.03 36.111 96.7199 36.3847C97.3887 36.6498 98.0593 37.0625 98.715 37.6114C99.3614 38.1541 99.9787 38.8538 100.548 39.6919C101.087 40.4834 101.475 41.2369 101.703 41.9297C101.814 42.266 101.9 42.5929 101.962 42.9069C101.97 42.947 102.053 42.9509 102.07 42.9123C102.124 42.7903 102.172 42.665 102.213 42.5363C102.307 42.2447 102.377 41.9512 102.424 41.659C102.554 40.8428 102.306 40.0207 101.716 39.3051C101.359 38.875 101.023 38.4375 100.707 37.9952C100.186 37.2679 99.7382 36.5638 99.3751 35.9018C99.0121 35.2427 98.7664 34.7322 98.6437 34.3837C98.5035 33.9874 98.5915 33.6237 98.9069 33.3004C99.2019 32.9983 99.5651 32.7637 99.9824 32.6041C100.41 32.4413 100.851 32.3694 101.294 32.3923C101.778 32.4177 102.122 32.5837 102.289 32.8735C102.353 32.9693 102.486 33.1972 102.685 33.5515C102.885 33.9078 103.126 34.3188 103.424 34.809C103.711 35.28 104.033 35.7821 104.38 36.3003C104.722 36.8086 105.073 37.2622 105.423 37.6484C105.763 38.0242 106.094 38.3043 106.407 38.4811C106.706 38.6499 106.811 38.5799 106.868 38.5418C106.949 38.4882 107.053 38.3677 107.094 38.0991C107.131 37.8389 107.145 37.5467 107.132 37.2275C107.118 36.9079 107.077 36.5816 107.007 36.2591C106.944 35.9648 106.883 35.7078 106.826 35.4942C106.777 35.3079 106.865 35.1237 107.067 34.9888C107.281 34.8463 107.595 34.7799 107.869 34.819C108.135 34.8577 108.325 34.9891 108.387 35.1796C108.465 35.4187 108.585 35.8262 108.757 36.4266C108.926 37.0204 109.04 37.672 109.098 38.3641C109.155 39.0671 109.105 39.759 108.946 40.4215C108.78 41.1188 108.391 41.6749 107.792 42.0741C107.25 42.4352 106.659 42.5789 106.033 42.501C105.462 42.4293 104.891 42.2039 104.335 41.8306L104.246 41.771C104.182 41.7256 104.067 41.7523 104.057 41.8145C104.034 41.9512 104.007 42.0897 103.976 42.2287C103.795 43.0491 103.426 43.8885 102.879 44.7252C102.391 45.4725 101.665 46.1698 100.723 46.798L100.529 46.9245L100.33 47.0486C99.6871 47.4755 99.0105 47.6582 98.316 47.591C98.1934 47.5794 98.073 47.5637 97.9561 47.5427C97.8624 47.5261 97.7827 47.5924 97.8291 47.65C98.054 47.9304 98.2727 48.1999 98.485 48.4558C98.9398 49.0067 99.3356 49.4821 99.6963 49.9083C100.058 50.336 100.393 50.7217 100.695 51.0565C100.985 51.3789 101.231 51.633 101.429 51.811L101.435 51.8181C101.787 52.1704 101.644 52.4718 101.462 52.6638C101.381 52.749 101.284 52.8294 101.174 52.9028C100.975 53.0354 100.726 53.1495 100.436 53.2423C99.9932 53.383 99.5 53.4453 98.9681 53.4279C98.4166 53.4095 97.9223 53.2559 97.4987 52.9714C97.4129 52.9138 97.2469 52.773 96.7237 52.1961C96.3398 51.7693 95.8751 51.2297 95.3436 50.5905C94.983 50.1576 94.5978 49.6818 94.1922 49.1687C94.143 49.1073 94.0042 49.1217 93.985 49.19C93.7837 49.8939 93.4486 50.6099 92.9817 51.3232C92.493 52.071 91.7683 52.7678 90.826 53.396C90.6991 53.4806 90.5665 53.5652 90.4325 53.647C89.79 54.0735 89.1134 54.2562 88.4183 54.1895C88.2957 54.1779 88.1767 54.1622 88.0591 54.1408C87.9647 54.1246 87.8864 54.1909 87.9321 54.248C88.157 54.5293 88.3763 54.7994 88.5872 55.0543C89.0435 55.6071 89.44 56.0829 89.7992 56.5063C90.1606 56.934 90.4953 57.3202 90.7969 57.655C91.088 57.9779 91.3348 58.2314 91.5311 58.4095L91.5381 58.4161C91.8897 58.7684 91.7462 59.0703 91.5641 59.2623C91.4829 59.3475 91.387 59.4275 91.277 59.5008C91.0781 59.6334 90.8292 59.7475 90.5381 59.8408C90.0955 59.9815 89.603 60.0433 89.0711 60.0259C88.5196 60.0075 88.0253 59.8539 87.6017 59.5694C87.5151 59.5113 87.3484 59.371 86.8267 58.7941C86.4386 58.3635 85.9739 57.8239 85.4459 57.189C85.1317 56.8118 84.802 56.4063 84.4519 55.9645C84.3985 55.8984 84.2477 55.9217 84.2426 55.9976C84.2188 56.3337 84.171 56.664 84.0972 56.9863C83.9396 57.6781 83.5555 58.2317 82.956 58.6314C82.4143 58.9925 81.8223 59.1367 81.1969 59.0583C80.9448 59.0267 80.692 58.9646 80.4399 58.8736C80.2161 58.7921 79.9418 58.9043 79.9465 59.0755C79.9531 59.3159 79.9259 59.5572 79.8649 59.7947C79.7855 60.1038 79.6434 60.4132 79.4414 60.7155C79.2323 61.0263 78.9331 61.3133 78.5509 61.5681C78.0339 61.9128 77.4235 62.1097 76.7366 62.1524C76.0701 62.1955 75.3736 62.0911 74.6639 61.8419C73.9761 61.6008 73.273 61.2098 72.573 60.6792C71.8821 60.1548 71.2238 59.488 70.6158 58.6965C69.3711 57.044 68.7896 55.5887 68.8861 54.369C68.984 53.1265 69.5295 52.1658 70.5077 51.5137C70.9217 51.2377 71.3553 51.0598 71.7943 50.9856C72.2276 50.9133 72.651 50.9173 73.0531 50.9977C73.3228 51.0523 73.5798 51.1324 73.822 51.2385C73.8649 51.2569 73.9199 51.2297 73.9059 51.1966C73.8666 51.1042 73.8343 51.0193 73.8063 50.941C73.6675 50.5457 73.7512 50.1848 74.0561 49.8676C74.3419 49.5716 74.7037 49.337 75.1302 49.1713C75.568 49.0019 76.0147 48.9272 76.4585 48.9497C76.9417 48.975 77.2859 49.1411 77.4523 49.4312C77.5156 49.5256 77.6462 49.7474 77.8485 50.1088C78.0473 50.4623 78.2952 50.8855 78.5881 51.3664C78.8783 51.8425 79.2 52.3446 79.5436 52.8576C79.8851 53.3664 80.2366 53.8204 80.5867 54.2057C80.9278 54.582 81.2591 54.8621 81.5708 55.0384C81.8699 55.2072 81.975 55.1372 82.0315 55.0996C82.1126 55.0455 82.217 54.925 82.2576 54.6569C82.279 54.5079 82.2927 54.3472 82.2979 54.177C82.3174 53.5171 82.1267 52.9379 81.6952 52.347C81.1231 51.5626 80.5778 50.7754 80.072 50.0033C79.5352 49.1812 79.08 48.4253 78.719 47.7562C78.5336 47.409 78.5603 47.0738 78.7975 46.7631C79.0199 46.4717 79.3352 46.2314 79.73 46.052C80.1248 45.8735 80.547 45.7682 80.9852 45.7397C81.1797 45.7269 81.3593 45.7333 81.522 45.7576C81.5656 45.7643 81.5882 45.753 81.5897 45.7229C81.6121 45.3566 81.686 44.9853 81.8107 44.615C81.9912 44.0718 82.3936 43.5898 83.0058 43.1817C83.5234 42.8366 84.1282 42.6453 84.8017 42.6153C85.4534 42.5858 86.133 42.7091 86.8229 42.9827C87.491 43.2474 88.1623 43.6605 88.8179 44.2094C89.4637 44.7517 90.081 45.4523 90.6509 46.29C91.1898 47.0823 91.5781 47.8358 91.8051 48.5282C91.9166 48.8645 92.0027 49.1913 92.0641 49.5054C92.0718 49.5455 92.1556 49.5489 92.1726 49.5103C92.2263 49.3888 92.2745 49.2634 92.3155 49.1344C92.3828 48.9256 92.4374 48.716 92.4801 48.5067C92.6434 47.7123 92.4469 46.9054 91.9177 46.1903L91.7117 45.9104C91.0932 45.0703 90.5072 44.2274 89.969 43.4053C89.4315 42.5818 88.9763 41.8258 88.6167 41.1577C88.4307 40.8109 88.4573 40.4768 88.6952 40.1646C88.9176 39.8732 89.233 39.6329 89.6278 39.4535C90.0226 39.2751 90.444 39.1702 90.8815 39.1412C91.0767 39.1289 91.2563 39.1353 91.419 39.1596C91.4627 39.1663 91.4852 39.155 91.4867 39.1248C91.5092 38.7586 91.5831 38.3873 91.7077 38.017C91.889 37.4733 92.2913 36.9913 92.9028 36.5837L92.9028 36.5837ZM56.0817 55.2652C56.8251 54.7697 57.6557 54.3308 58.5503 53.9595C59.4519 53.5863 60.3745 53.3178 61.2913 53.1624C62.2193 53.0051 63.1309 52.9765 64.0008 53.0774C64.8868 53.1798 65.6803 53.4636 66.36 53.9201C67.0918 54.4116 67.6149 54.9819 67.9139 55.6151C68.2094 56.242 68.3308 56.9135 68.2761 57.6101C68.2228 58.3011 68.0109 59.0206 67.6455 59.7482C67.3443 60.3483 66.9622 60.9439 66.5054 61.5225C66.4765 61.5597 66.4835 61.5842 66.5278 61.6111C66.8656 61.8191 67.209 62.0186 67.5504 62.2035C67.9417 62.4163 68.3358 62.615 68.7237 62.7943C69.1045 62.9708 69.4896 63.1331 69.8669 63.278C70.1598 63.3898 70.4533 63.4926 70.7406 63.5845C70.9237 63.6433 71.1067 63.6983 71.2821 63.7471C71.6355 63.8458 71.989 63.9303 72.332 63.9983C72.6693 64.0654 73.0052 64.1183 73.3306 64.1556C73.6476 64.192 73.9631 64.2142 74.2696 64.2227C74.5682 64.2308 74.8627 64.2247 75.1459 64.2054C75.4214 64.1865 75.6941 64.1545 75.9541 64.1092C76.2085 64.0658 76.458 64.0087 76.6969 63.9398C76.9316 63.8719 77.1593 63.7917 77.3736 63.7006C77.5886 63.609 77.7945 63.5047 77.9898 63.3905C78.1838 63.2763 78.3721 63.1479 78.5449 63.0101C78.7213 62.8699 78.8878 62.7175 79.0381 62.5561C79.1927 62.3909 79.336 62.2134 79.4645 62.027C79.5959 61.8358 79.7124 61.6319 79.8142 61.4218C79.8531 61.3413 79.8899 61.2584 79.9246 61.175C80.0363 60.9027 80.4382 60.729 80.8516 60.7736C81.2658 60.8176 81.5577 61.0656 81.5262 61.3465C81.5105 61.4841 81.4919 61.6208 81.4706 61.7537C81.4186 62.0765 81.3504 62.3894 81.2668 62.6834C81.1874 62.9623 81.0925 63.2365 80.9829 63.497C80.9284 63.6275 80.8662 63.7613 80.7991 63.8945C80.6711 64.1512 80.5249 64.3994 80.3631 64.6334C80.2021 64.866 80.0242 65.0891 79.8337 65.2953C79.6438 65.5009 79.4356 65.6972 79.2155 65.8768C79.0582 66.0053 78.8925 66.128 78.7218 66.2418C78.6527 66.2879 78.5822 66.333 78.5095 66.3767C78.2627 66.5281 77.9997 66.6667 77.7269 66.7893C77.5922 66.8498 77.4512 66.908 77.3088 66.9615C77.1721 67.0141 77.0269 67.0648 76.876 67.1116C76.5877 67.2021 76.2833 67.2798 75.9725 67.3411C75.6681 67.4009 75.3503 67.4479 75.029 67.4794C74.769 67.5049 74.5006 67.521 74.2329 67.5271C73.9109 67.5346 73.5756 67.5274 73.2382 67.5075C72.905 67.4876 72.5634 67.4535 72.2233 67.4063C71.8831 67.36 71.5366 67.299 71.193 67.2268C70.85 67.1541 70.4986 67.0682 70.1508 66.9705C69.8058 66.8737 69.453 66.7623 69.0996 66.6391C68.7525 66.5183 68.397 66.3824 68.0422 66.2348C67.6888 66.0871 67.3333 65.9267 66.9849 65.7578C66.6759 65.6088 66.3641 65.4484 66.0559 65.2801C65.963 65.229 65.8297 65.3028 65.8873 65.3745C66.146 65.6899 66.4033 65.9911 66.6565 66.2743C66.9736 66.6298 67.2611 66.9542 67.5185 67.2459C67.7709 67.5316 67.9825 67.7558 68.1464 67.9131C68.4291 68.1974 68.4173 68.5037 68.1132 68.8035C67.8528 69.0618 67.4783 69.2757 67.0061 69.438C66.5387 69.5979 66.0208 69.6804 65.4643 69.6833C64.881 69.686 64.3691 69.5423 63.942 69.2555C63.5944 69.022 63.1337 68.5936 62.5339 67.9473C61.9482 67.316 61.2993 66.5376 60.6055 65.6318C59.9174 64.7336 59.195 63.7188 58.4593 62.6178C57.8269 61.6721 57.2355 60.6896 56.6947 59.6922C56.5178 59.3657 56.61 58.9981 56.938 58.7229C57.6795 58.1006 58.4298 57.6323 59.1877 57.3173C59.6445 57.1277 60.2395 57.2612 60.4256 57.5938C60.8997 58.4436 61.4027 59.2713 61.9212 60.0575C62.3414 60.6937 62.7651 61.318 63.1846 61.9207C63.2268 61.9802 63.355 61.9757 63.3896 61.914C63.5649 61.6041 63.7098 61.2796 63.8238 60.9437C64.01 60.393 64.0892 59.8307 64.0606 59.2726C64.0298 58.7158 63.8723 58.1701 63.5914 57.6502C63.3119 57.1359 62.8675 56.6713 62.268 56.2686C61.4975 55.7511 60.711 55.5136 59.9318 55.5632C59.1427 55.6137 58.3511 55.8994 57.5795 56.4138C56.7579 56.9615 56.1982 57.5908 55.9166 58.2842C55.6266 58.9955 55.5169 59.7052 55.591 60.3941C55.6659 61.0881 55.8804 61.7399 56.2302 62.3307C56.5765 62.9163 56.9773 63.3648 57.4227 63.6639C57.7414 63.878 57.8001 64.1468 57.5883 64.4208C57.4026 64.6614 57.0888 64.8536 56.6666 64.9835C56.2613 65.1086 55.7717 65.1479 55.2117 65.1012C54.6489 65.0545 54.0963 64.8513 53.5692 64.4973C53.1091 64.1882 52.745 63.7059 52.4559 63.0228C52.1732 62.3572 52.078 61.5891 52.171 60.7408C52.2647 59.8938 52.6136 58.9804 53.2112 58.0245C53.8117 57.063 54.7777 56.1346 56.0817 55.2652L56.0817 55.2652ZM96.0539 27.9655C97.1915 27.2071 99.021 27.2022 100.14 27.9536C101.259 28.7051 101.244 29.9292 100.107 30.6876C98.9693 31.446 97.1398 31.4509 96.021 30.6995C94.9022 29.948 94.9163 28.7239 96.0539 27.9655Z" fill="#FF441F"/>
</g>
<defs>
<linearGradient id="paint0_linear_2129_13492" x1="165.986" y1="141.4" x2="0.834473" y2="141.4" gradientUnits="userSpaceOnUse">
<stop offset="0.246861" stop-color="#E6ECF0"/>
<stop offset="0.484375" stop-color="#C0D2DD"/>
<stop offset="0.725132" stop-color="#C1D0DB"/>
</linearGradient>
<clipPath id="clip0_2129_13492">
<rect width="60.907" height="60.907" fill="white" transform="matrix(0.83205 -0.5547 0.830139 0.557556 32.748 50.5122)"/>
</clipPath>
</defs>
</svg>
