<svg width="167" height="123" viewBox="0 0 167 123" fill="none" xmlns="http://www.w3.org/2000/svg">
<path d="M0.924072 54.148H166.076V66.2545H165.988C166.517 69.9471 164.666 73.761 160.435 76.5812L96.9911 118.877C89.4826 123.883 77.3231 123.862 69.8319 118.831L6.53332 76.3167C2.42077 73.5546 0.570169 69.8566 0.979734 66.2545H0.924072V54.148Z" fill="url(#paint0_linear_2129_13460)"/>
<path d="M6.53332 64.2103C-0.957857 59.1789 -0.943873 51.0423 6.56455 46.0366L70.0088 3.74046C77.5173 -1.26515 89.6768 -1.24426 97.168 3.78713L160.467 46.3011C167.958 51.3325 167.944 59.4691 160.435 64.4747L96.9911 106.771C89.4826 111.776 77.3231 111.756 69.8319 106.724L6.53332 64.2103Z" fill="white"/>
<g clip-path="url(#clip0_2129_13460)">
<path d="M60.6828 35.2998C50.6691 41.9756 50.6858 52.8696 60.7119 59.6035C74.3517 68.7646 106.137 65.8287 106.137 65.8287C106.137 65.8287 110.643 44.5707 97.0027 35.4096C86.9411 28.6993 70.661 28.6476 60.6828 35.2998Z" fill="#FF6A00"/>
<path d="M87.4192 39.5228C88.482 40.2366 88.48 41.4233 87.4147 42.1335C86.3494 42.8437 84.576 42.8406 83.5131 42.1268C82.4503 41.4129 82.4523 40.2262 83.5176 39.516C84.5475 38.7821 86.3209 38.7851 87.4192 39.5228ZM66.9702 50.5002C65.8694 51.2341 65.9029 52.3971 66.9302 53.1346C68.0285 53.8723 69.7665 53.8515 70.8672 53.1651C71.968 52.4313 71.9346 51.2683 70.9072 50.5307C69.809 49.7931 68.071 49.7664 66.9702 50.5002ZM86.3452 45.312C86.0256 45.5251 85.8478 45.7858 85.8119 46.0469C85.7764 46.0705 85.5955 48.1351 82.9323 49.9106C80.269 51.6861 76.6153 51.9408 76.5444 51.9407C75.6575 52.0104 74.9828 52.5077 75.0526 53.1249C75.158 53.7184 75.9021 54.1706 76.8244 54.1247C77.321 54.0781 81.7551 53.7772 85.1996 51.4809C88.7505 49.1136 89.0391 46.3135 89.0392 46.2185C89.0757 45.6253 88.3673 45.1019 87.5161 45.053C87.0905 45.0522 86.6647 45.1464 86.3452 45.312Z" fill="#11100D"/>
</g>
<defs>
<linearGradient id="paint0_linear_2129_13460" x1="166.076" y1="141.399" x2="0.924072" y2="141.399" gradientUnits="userSpaceOnUse">
<stop offset="0.246861" stop-color="#E6ECF0"/>
<stop offset="0.484375" stop-color="#C0D2DD"/>
<stop offset="0.725132" stop-color="#C1D0DB"/>
</linearGradient>
<clipPath id="clip0_2129_13460">
<rect width="54.7548" height="54.7548" fill="white" transform="matrix(0.83205 -0.5547 0.830139 0.557556 37.8899 50.4946)"/>
</clipPath>
</defs>
</svg>
