<svg width="167" height="123" viewBox="0 0 167 123" fill="none" xmlns="http://www.w3.org/2000/svg">
<path d="M0.861816 54.1481H166.014V66.2546H165.925C166.455 69.9472 164.603 73.7612 160.373 76.5813L96.9288 118.877C89.4204 123.883 77.2608 123.862 69.7696 118.831L6.47106 76.3169C2.35852 73.5547 0.507913 69.8567 0.917478 66.2546H0.861816V54.1481Z" fill="url(#paint0_linear_2129_13406)"/>
<path d="M6.47106 64.2104C-1.02011 59.179 -1.00613 51.0424 6.50229 46.0368L69.9466 3.74059C77.455 -1.26503 89.6146 -1.24414 97.1058 3.78725L160.404 46.3012C167.895 51.3326 167.882 59.4692 160.373 64.4748L96.9288 106.771C89.4204 111.777 77.2608 111.756 69.7696 106.724L6.47106 64.2104Z" fill="white"/>
<path d="M74.4121 26.195L46.802 44.6017C41.8456 47.906 41.8364 53.277 46.7814 56.5983L74.3281 75.0998C79.2731 78.4211 87.2997 78.4349 92.2561 75.1306L119.866 56.7239C124.823 53.4196 124.832 48.0486 119.887 44.7273L92.3401 26.2258C87.3951 22.9045 79.3685 22.8907 74.4121 26.195Z" fill="#142328"/>
<path d="M90.1199 56.4829C88.832 55.5968 86.7154 55.5762 85.3929 56.4367C84.0704 57.2972 84.0426 58.7136 85.3305 59.5997C86.6183 60.4859 88.735 60.5065 90.0575 59.646C90.067 59.6396 90.0761 59.6335 90.0856 59.6272C91.3923 58.7791 91.4228 57.3816 90.1536 56.5061C90.1424 56.4985 90.1308 56.4907 90.1195 56.4832M88.2394 52.6349L95.8922 57.7749L93.9234 59.0875L93.2347 58.6249C93.0996 59.4726 92.5272 60.2617 91.6162 60.8568C89.4529 62.378 85.8537 62.4358 83.577 60.9858C81.3007 59.5361 81.2092 57.1276 83.3729 55.6062C83.4422 55.5576 83.5137 55.51 83.5865 55.4638C84.4912 54.8555 85.6849 54.478 86.9625 54.3967L86.2822 53.9398L88.2394 52.6349V52.6349ZM100.68 52.246L99.1999 53.2328C98.7483 53.5339 98.2629 53.5957 97.8576 53.3234L94.275 50.9172L96.4966 49.4361L94.7732 48.2786L92.56 49.754L90.3776 48.2882L88.3891 49.6139L90.5715 51.0797L89.0772 52.0759L90.809 53.2391L92.3061 52.241L96.3735 54.9728C97.3993 55.6618 98.9544 55.7142 100.29 54.824L102.42 53.4035L100.68 52.246V52.246ZM107.093 50.55C109.366 49.0349 109.59 47.4669 108.122 46.4807C107.079 45.7801 105.541 45.7624 103.618 46.5965L101.602 47.4894C100.452 48.0211 99.9665 48.1057 99.6152 47.8698C99.1534 47.5596 99.3389 47.0566 100.205 46.4791C101.143 45.8541 102.079 45.5633 103.126 45.9999L105.095 44.6873C103.394 43.6934 101.157 43.7616 98.7739 45.3506C96.7171 46.7218 96.1044 48.2456 97.7112 49.3248C98.8253 50.073 100.346 50.03 102.416 49.1239L104.719 48.1578C105.6 47.7608 105.991 47.7574 106.292 47.9594C106.771 48.2811 106.503 48.8616 105.608 49.4581C104.472 50.2157 103.575 50.4838 102.471 50.0812L100.483 51.4069C102.36 52.2872 104.636 52.1888 107.091 50.5524M68.9702 61.8506L76.3936 56.9017L78.1594 58.0877L72.7419 61.6994L75.273 63.3995L80.5456 59.8844L82.2461 61.0266L76.9736 64.5416L79.5244 66.2549L84.942 62.6432L86.7107 63.8311L79.2873 68.78L68.9702 61.8506V61.8506Z" fill="#06C167"/>
<path d="M90.9693 35.1894L89.5806 34.2567L89.0523 34.6089C88.2716 35.0895 87.9423 35.8157 88.1921 36.5064L87.2625 35.882L85.7541 36.8876L93.2907 41.9495L94.8135 40.9343L90.528 38.056C89.3603 37.2717 89.3307 36.2823 90.328 35.6174L90.97 35.1894L90.9693 35.1894ZM81.7692 43.6706C80.7323 42.6312 81.15 41.2275 82.7014 40.5354C83.8398 40.0275 85.325 40.03 86.4623 40.5419L81.7692 43.6706ZM80.9216 39.9114C78.7377 41.3424 78.7031 43.6884 80.8447 45.1518C80.857 45.16 80.8693 45.1683 80.8816 45.1765C83.1293 46.6862 86.5939 46.6293 88.9035 45.0896C90.2309 44.2399 90.8662 43.0145 90.6116 41.7962L88.7101 41.9941C88.9126 42.8123 88.4995 43.6443 87.6054 44.2178C86.355 45.073 84.3559 45.186 82.906 44.4831L89.1557 40.3166L88.6654 39.9873C86.4205 38.4795 83.1234 38.4435 80.9047 39.9227M78.7645 50.1117C77.3068 51.0708 74.9619 51.0567 73.5265 50.0799C72.0912 49.1031 72.109 47.534 73.5667 46.575C75.0177 45.6203 77.3496 45.6295 78.7878 46.5955C80.2326 47.5701 80.225 49.1427 78.7705 50.1082C78.7687 50.1094 78.7666 50.1108 78.7648 50.112M75.7651 53.6328L77.2735 52.6272L76.327 51.9914C77.7824 51.9937 79.1786 51.6091 80.2079 50.9215C82.4462 49.5072 82.5449 47.1449 80.4283 45.6451C78.3117 44.1453 74.7812 44.076 72.5429 45.4902C72.4704 45.5362 72.4 45.5831 72.331 45.6315C71.3041 46.3151 70.7287 47.2449 70.7316 48.2149L66.9421 45.6697L65.4192 46.6849L75.7644 53.6332L75.7651 53.6328ZM69.1827 56.3975C70.6457 55.4222 70.6683 53.9242 69.03 52.8238L62.6443 48.5349L64.2294 47.4782L74.5746 54.4264L73.0036 55.4738L72.0427 54.8284C72.0466 55.8171 71.4486 56.7633 70.3866 57.4497C68.114 58.9648 64.7739 59.0331 62.3365 57.3961L55.8687 53.052L57.4651 51.9877L63.8507 56.2766C65.52 57.3978 67.7138 57.3769 69.1937 56.3903" fill="#F6F0EA"/>
<defs>
<linearGradient id="paint0_linear_2129_13406" x1="166.014" y1="141.399" x2="0.861816" y2="141.399" gradientUnits="userSpaceOnUse">
<stop offset="0.246861" stop-color="#E6ECF0"/>
<stop offset="0.484375" stop-color="#C0D2DD"/>
<stop offset="0.725132" stop-color="#C1D0DB"/>
</linearGradient>
</defs>
</svg>
