<svg width="165" height="123" viewBox="0 0 165 123" fill="none" xmlns="http://www.w3.org/2000/svg">
<path d="M0 54.3168H165V66.461H164.912C165.441 70.1651 163.591 73.9909 159.365 76.8198L95.9787 119.248C88.4772 124.269 76.3288 124.248 68.8445 119.201L5.60409 76.5546C1.49533 73.7838 -0.353578 70.0743 0.0556106 66.461H0V54.3168Z" fill="url(#paint0_linear_2129_13254)"/>
<path d="M5.60409 64.4104C-1.8802 59.3633 -1.86623 51.2014 5.63529 46.1802L69.0213 3.75224C76.5228 -1.26897 88.6712 -1.24801 96.1555 3.79905L159.396 46.4454C166.88 51.4925 166.866 59.6544 159.365 64.6756L95.9787 107.104C88.4772 112.125 76.3288 112.104 68.8445 107.057L5.60409 64.4104Z" fill="white"/>
<g clip-path="url(#clip0_2129_13254)">
<path d="M91.088 21.76L125.061 44.5775C127.271 46.0618 128.51 48.072 128.507 50.1658C128.503 52.2596 127.257 54.2656 125.041 55.7423L90.9906 78.4428C88.7755 79.9196 85.7732 80.7462 82.6441 80.7408C79.515 80.7354 76.5156 79.8985 74.3055 78.4142L40.333 55.5968C38.1229 54.1124 36.8834 52.1022 36.8869 50.0084C36.8905 47.9146 38.137 45.9087 40.3521 44.4319L74.4029 21.7314C76.6181 20.2546 79.6204 19.428 82.7494 19.4334C85.8785 19.4388 88.878 20.2757 91.088 21.76V21.76Z" fill="#33CCFF"/>
<path fill-rule="evenodd" clip-rule="evenodd" d="M94.5188 56.0932L91.3782 58.1843C90.3569 57.7291 89.1237 57.5282 87.8885 57.6159C86.6534 57.7035 85.4927 58.0742 84.6039 58.665C83.9554 59.0915 83.476 59.6189 83.2106 60.1978C82.9451 60.7767 82.9024 61.3881 83.0863 61.9746L83.1095 61.9915C81.3784 62.3692 79.5737 62.5593 77.7646 62.5545C75.6137 62.5568 74.048 62.2915 73.1606 62.0556C73.6969 61.4736 73.9727 60.8036 73.9548 60.1267C73.9186 59.2155 73.3669 58.3548 72.4108 57.7182L70.1758 56.2171C67.5135 54.4289 65.8189 52.0782 65.3926 49.5533C64.7835 45.9445 66.6433 42.4583 70.4448 39.924C73.717 37.7426 78.0523 36.528 82.6514 36.5073C84.9116 36.492 87.1443 36.776 89.2211 37.343C91.2979 37.9099 93.1778 38.7486 94.7524 39.8108C97.9646 41.9682 99.7068 44.8474 99.6579 47.9203C99.6103 50.9212 97.8286 53.8866 94.5198 56.0925" fill="white"/>
<mask id="mask0_2129_13254" style="mask-type:alpha" maskUnits="userSpaceOnUse" x="51" y="30" width="62" height="41">
<path d="M51.9463 50.0343L81.9001 30.0651L112.615 50.6947L82.6614 70.6639L51.9463 50.0343Z" fill="#052646"/>
</mask>
<g mask="url(#mask0_2129_13254)">
<path fill-rule="evenodd" clip-rule="evenodd" d="M94.5537 56.5862L91.4922 58.6246C90.4569 58.1543 89.219 57.9344 87.9893 58.0026C86.7596 58.0708 85.614 58.4227 84.7476 58.9985C84.1152 59.4141 83.6551 59.9332 83.4104 60.5069C83.1657 61.0806 83.1444 61.6903 83.3485 62.2787L83.3722 62.2959C81.6576 62.6459 79.863 62.8074 78.0572 62.7743C75.9104 62.743 74.3384 62.4537 73.4445 62.2043C73.9594 61.6317 74.2114 60.9671 74.1699 60.2912C74.1019 59.381 73.5212 58.5132 72.5447 57.8627L70.2615 56.3293C67.5418 54.5026 65.7684 52.1294 65.2547 49.6022C64.5207 45.9901 66.2553 42.5391 69.9609 40.0687C73.1507 37.9421 77.4354 36.7975 82.025 36.8487C84.2803 36.8688 86.5187 37.1872 88.6113 37.7857C90.704 38.3841 92.6095 39.2508 94.2182 40.3357C97.4996 42.5396 99.3391 45.4411 99.3976 48.5078C99.4549 51.5028 97.7802 54.4353 94.5547 56.5856M95.7099 39.3412C93.9012 38.1213 91.7588 37.1468 89.406 36.4738C87.0533 35.8007 84.5366 35.4424 82.0009 35.4194C76.8419 35.3626 72.0245 36.6489 68.4364 39.0409C64.3229 41.7832 62.3692 45.602 63.1173 49.6068C63.6649 52.5083 65.6587 55.2255 68.7746 57.3166L71.0656 58.8554C72.2324 59.639 72.4846 61.0086 70.9717 62.0198C70.8488 62.1024 70.7698 62.2099 70.7462 62.3265C70.7227 62.4431 70.7558 62.5626 70.8409 62.6675C71.5171 63.4985 74.7715 64.1564 78.0677 64.2048C80.1664 64.2371 82.2495 64.034 84.2306 63.6041C84.6869 64.0366 85.2764 64.3995 85.958 64.6674C86.6395 64.9352 87.3966 65.1016 88.1761 65.1548C88.9556 65.208 89.7388 65.1468 90.4707 64.9754C91.2027 64.804 91.8657 64.5266 92.4133 64.1626C93.2836 63.588 93.8199 62.8234 93.93 62.0001C94.0401 61.1768 93.7171 60.3462 93.0166 59.6511L96.1602 57.558C98.7485 58.7364 102.435 58.2688 103.973 56.153C104.302 55.696 104.472 55.1927 104.469 54.6802C104.466 54.1678 104.291 53.6595 103.956 53.1929C103.306 52.2865 102.285 51.6667 101.134 51.3209C101.418 50.4049 101.552 49.4685 101.533 48.528C101.507 46.8306 100.979 45.145 99.9793 43.5682C98.98 41.9915 97.5294 40.5547 95.7109 39.3406" fill="#052646"/>
</g>
<path fill-rule="evenodd" clip-rule="evenodd" d="M87.5814 40.5635C86.7297 39.9914 85.3405 39.9924 84.4799 40.5661C83.6193 41.1398 83.6108 42.0694 84.4635 42.6421C85.3153 43.2142 86.7065 43.2133 87.5671 42.6396C88.4276 42.0658 88.4352 41.1356 87.5825 40.5628M78.2206 46.804C77.3689 46.232 75.9796 46.2329 75.1181 46.8073C74.2575 47.381 74.2489 48.3106 75.1017 48.8833C75.9535 49.4554 77.3447 49.4545 78.2053 48.8808C79.0668 48.3064 79.0734 47.3768 78.2206 46.804ZM82.1933 50.921C81.9971 50.8754 81.785 50.8681 81.5817 50.8999C81.3784 50.9318 81.1921 51.0015 81.0446 51.1009C80.9138 51.1879 80.8175 51.2954 80.7647 51.4133C80.7119 51.5313 80.7042 51.656 80.7425 51.7758C80.7807 51.8957 80.8636 52.0068 80.9834 52.099C81.1033 52.1912 81.2562 52.2615 81.4282 52.3033C82.9887 52.679 84.6814 52.7484 86.308 52.5034C87.9347 52.2584 89.4281 51.7091 90.6134 50.9198C91.7973 50.1296 92.6237 49.1324 92.9959 48.0448C93.368 46.9573 93.2706 45.8244 92.715 44.7787C92.6531 44.6635 92.5486 44.5608 92.4111 44.4802C92.2736 44.3997 92.1077 44.3438 91.9286 44.3179C91.7495 44.2919 91.563 44.2966 91.3865 44.3317C91.2099 44.3667 91.049 44.4309 90.9186 44.5183L90.8985 44.5317C90.7542 44.6293 90.654 44.7521 90.6095 44.8857C90.5651 45.0193 90.5782 45.1582 90.6474 45.2863C91.0605 46.0696 91.1314 46.9176 90.8521 47.7316C90.5727 48.5455 89.9545 49.292 89.0693 49.8841C88.1809 50.4737 87.0631 50.8842 85.8459 51.0678C84.6287 51.2513 83.3621 51.2004 82.1933 50.921" fill="#052646"/>
</g>
<defs>
<linearGradient id="paint0_linear_2129_13254" x1="165" y1="141.84" x2="0" y2="141.84" gradientUnits="userSpaceOnUse">
<stop offset="0.246861" stop-color="#E6ECF0"/>
<stop offset="0.484375" stop-color="#C0D2DD"/>
<stop offset="0.725132" stop-color="#C1D0DB"/>
</linearGradient>
<clipPath id="clip0_2129_13254">
<rect width="61" height="61" fill="white" transform="matrix(0.83205 -0.5547 0.830139 0.557556 32 50)"/>
</clipPath>
</defs>
</svg>
