<svg width="166" height="123" viewBox="0 0 166 123" fill="none" xmlns="http://www.w3.org/2000/svg">
<path d="M0.227539 54.148H165.379V66.2545H165.291C165.82 69.9471 163.969 73.761 159.739 76.5812L96.2945 118.877C88.7861 123.883 76.6265 123.862 69.1354 118.831L5.83679 76.3167C1.72424 73.5546 -0.126365 69.8566 0.283201 66.2545H0.227539V54.148Z" fill="url(#paint0_linear_2129_13470)"/>
<path d="M5.83679 64.2103C-1.65439 59.1789 -1.64041 51.0423 5.86802 46.0366L69.3123 3.74046C76.8207 -1.26515 88.9803 -1.24426 96.4715 3.78713L159.77 46.3011C167.261 51.3325 167.247 59.4691 159.739 64.4747L96.2945 106.771C88.7861 111.776 76.6265 111.756 69.1354 106.724L5.83679 64.2103Z" fill="white"/>
<g clip-path="url(#clip0_2129_13470)">
<path d="M100.719 45.1065L96.88 44.5493C95.6969 44.3777 94.6129 43.9808 93.7581 43.4067L83.9776 36.8377C80.0735 34.2156 72.0394 28.4401 60.8672 35.8882C51.7786 41.9473 53.8006 47.0666 55.9205 49.6534C56.7621 50.6804 58.7811 50.9514 60.1398 50.2153L64.0251 48.1104C64.9396 47.615 65.2956 46.79 64.9049 46.0463C64.1628 44.634 63.2309 42.4151 66.9039 39.9664C68.3269 39.0178 70.9283 38.0871 72.6839 39.2663C75.2313 40.9772 76.4352 41.7904 76.4352 41.7904C76.9763 42.1411 76.9833 42.7203 76.4503 43.0756L73.0072 45.371C70.4092 47.103 61.8663 54.5771 71.7157 61.1924C81.5651 67.8077 90.9074 60.0628 91.4403 59.4899C92.4345 58.421 93.9798 56.2052 94.0909 53.222C94.1096 52.7208 94.754 52.3338 95.499 52.388L99.622 52.6879C101.225 52.8045 102.637 51.9875 102.696 50.9097L102.911 46.9949C102.96 46.0937 102.036 45.2977 100.719 45.1065ZM85.0255 54.8339C81.5183 57.1721 78.4546 54.9806 77.762 53.4324C77.1139 51.9838 76.6234 48.977 81.8244 45.2826L84.4855 47.0069C86.4637 48.2886 87.4342 50.1396 86.9593 51.9528C86.6654 53.0764 86.0848 54.1278 85.0255 54.8339Z" fill="#171715"/>
<path d="M70.9028 76.2844C69.8886 76.317 69.6174 75.3581 70.5791 75.1411C77.338 73.6158 89.3127 70.241 98.7431 63.9541C108.38 57.5293 114.146 50.612 116.786 46.9549C117.215 46.3602 118.553 46.622 118.448 47.279C117.831 51.1725 114.942 58.4845 102.979 66.4598C91.0606 74.4051 78.089 76.0535 70.9028 76.2844Z" fill="#FFAC35"/>
<path d="M110.197 48.2127C110.526 46.7509 112.048 43.5934 118.116 41.4217C118.673 41.2221 119.362 41.2931 119.812 41.591C121.351 42.6097 124.608 45.239 124.592 49.2396C124.59 49.5174 124.037 49.6146 123.831 49.3732C122.462 47.7685 119.468 44.3649 118.575 44.207C117.551 44.0259 112.789 47.1591 110.887 48.4466C110.609 48.6345 110.139 48.474 110.197 48.2127Z" fill="#FFAC35"/>
</g>
<defs>
<linearGradient id="paint0_linear_2129_13470" x1="165.379" y1="141.399" x2="0.227539" y2="141.399" gradientUnits="userSpaceOnUse">
<stop offset="0.246861" stop-color="#E6ECF0"/>
<stop offset="0.484375" stop-color="#C0D2DD"/>
<stop offset="0.725132" stop-color="#C1D0DB"/>
</linearGradient>
<clipPath id="clip0_2129_13470">
<rect width="60.907" height="60.907" fill="white" transform="matrix(0.83205 -0.5547 0.830139 0.557556 32.1414 50.5294)"/>
</clipPath>
</defs>
</svg>
