<svg width="166" height="123" viewBox="0 0 166 123" fill="none" xmlns="http://www.w3.org/2000/svg">
<path d="M0.0136719 54.1481H165.165V66.2546H165.077C165.607 69.9472 163.755 73.7612 159.525 76.5813L96.0807 118.877C88.5722 123.883 76.4127 123.862 68.9215 118.831L5.62292 76.3169C1.51037 73.5547 -0.340232 69.8567 0.0693337 66.2546H0.0136719V54.1481Z" fill="url(#paint0_linear_2129_13415)"/>
<path d="M5.62292 64.2104C-1.86826 59.179 -1.85427 51.0424 5.65415 46.0368L69.0984 3.74059C76.6069 -1.26503 88.7664 -1.24414 96.2576 3.78725L159.556 46.3012C167.047 51.3326 167.033 59.4692 159.525 64.4748L96.0807 106.771C88.5722 111.777 76.4127 111.756 68.9215 106.724L5.62292 64.2104Z" fill="white"/>
<path d="M59.5623 35.3982C46.9584 43.8008 47.0353 57.4704 59.51 65.8489C71.9847 74.2275 92.4126 74.3297 105.016 65.9271C117.62 57.5245 117.543 43.8549 105.069 35.4764C92.5941 27.0979 72.165 26.9964 59.5623 35.3982ZM101.158 68.1158L96.652 65.0897C95.0503 64.0139 92.6392 63.7105 90.5163 64.2799C82.5724 66.4132 73.1385 65.3035 66.7571 61.0175C58.2512 55.3045 58.1986 45.9823 66.7928 40.2528C75.3871 34.5233 89.3182 34.5931 97.8242 40.3061C107.861 47.0471 109.569 58.6083 101.159 68.115L101.158 68.1158Z" fill="#00CAFF"/>
<defs>
<linearGradient id="paint0_linear_2129_13415" x1="165.166" y1="141.399" x2="0.0136719" y2="141.399" gradientUnits="userSpaceOnUse">
<stop offset="0.246861" stop-color="#E6ECF0"/>
<stop offset="0.484375" stop-color="#C0D2DD"/>
<stop offset="0.725132" stop-color="#C1D0DB"/>
</linearGradient>
</defs>
</svg>
