<svg width="166" height="123" viewBox="0 0 166 123" fill="none" xmlns="http://www.w3.org/2000/svg">
<path d="M0.772461 54.1479H165.924V66.2544H165.836C166.365 69.9469 164.514 73.7609 160.284 76.5811L96.8394 118.877C89.331 123.883 77.1715 123.862 69.6803 118.831L6.38171 76.3166C2.26916 73.5545 0.418557 69.8564 0.828123 66.2544H0.772461V54.1479Z" fill="url(#paint0_linear_2129_13444)"/>
<path d="M6.38171 64.2101C-1.10947 59.1787 -1.09548 51.0421 6.41294 46.0365L69.8572 3.74034C77.3656 -1.26527 89.5252 -1.24438 97.0164 3.78701L160.315 46.301C167.806 51.3324 167.792 59.469 160.284 64.4746L96.8394 106.771C89.331 111.776 77.1715 111.755 69.6803 106.724L6.38171 64.2101Z" fill="white"/>
<path d="M111.533 52.596C108.738 50.7188 108.734 47.6943 111.515 45.8407C114.303 43.9814 118.833 43.9892 121.628 45.8664C124.416 47.7389 124.413 50.7715 121.624 52.6308C118.844 54.4844 114.321 54.4685 111.533 52.596Z" fill="#499FDD"/>
<path fill-rule="evenodd" clip-rule="evenodd" d="M84.1902 49.3703C89.0297 48.4741 94.2971 49.5448 98.3017 52.2345C105.74 57.2303 104.839 64.2582 96.0018 70.1493L85.632 77.0656C85.6264 77.0663 85.6249 77.0703 85.6123 77.0757L81.4487 79.8514L43.9253 54.6491C41.5839 53.041 41.5562 50.4987 43.8266 48.8696L44.8596 48.1809L44.8619 48.1824L53.9334 42.1347C61.8831 36.8349 71.286 36.2768 77.8967 40.7168C82.2176 43.6189 82.5461 46.7465 82.3627 48.3575L82.1994 49.739L84.1919 49.3691M64.569 57.7054L70.9238 53.4689C74.4937 51.0889 73.0085 48.3912 70.6469 46.805C67.5499 44.725 63.8427 44.7188 60.7444 46.7843L57.1316 49.1928C55.4446 50.476 55.5452 51.6447 57.4865 52.9485L64.569 57.7054ZM89.4983 65.0004C92.9876 62.6708 93.0247 59.7982 89.4345 57.3835C85.9315 55.0342 81.547 55.0607 78.1104 57.3518L73.2957 60.5616C71.9653 61.7372 72.2026 62.8325 74.0036 64.0421L82.4309 69.7022L89.498 65.0003L89.4983 65.0004Z" fill="#273B7D"/>
<defs>
<linearGradient id="paint0_linear_2129_13444" x1="165.924" y1="141.399" x2="0.772461" y2="141.399" gradientUnits="userSpaceOnUse">
<stop offset="0.246861" stop-color="#E6ECF0"/>
<stop offset="0.484375" stop-color="#C0D2DD"/>
<stop offset="0.725132" stop-color="#C1D0DB"/>
</linearGradient>
</defs>
</svg>
