<svg width="166" height="123" viewBox="0 0 166 123" fill="none" xmlns="http://www.w3.org/2000/svg">
<path d="M0 54.1481H165.152V66.2546H165.063C165.593 69.9472 163.741 73.7612 159.511 76.5813L96.067 118.877C88.5586 123.883 76.399 123.862 68.9078 118.831L5.60925 76.3169C1.4967 73.5547 -0.353904 69.8567 0.0556618 66.2546H0V54.1481Z" fill="url(#paint0_linear_2129_13302)"/>
<path d="M5.60925 64.2104C-1.88193 59.179 -1.86795 51.0424 5.64048 46.0368L69.0848 3.74059C76.5932 -1.26503 88.7528 -1.24414 96.2439 3.78725L159.543 46.3012C167.034 51.3326 167.02 59.4692 159.511 64.4748L96.067 106.771C88.5586 111.777 76.399 111.756 68.9078 106.724L5.60925 64.2104Z" fill="white"/>
<g clip-path="url(#clip0_2129_13302)">
<path d="M120.728 34.5285C101.375 43.9647 80.3894 59.91 69.5766 73.2506C69.4349 73.4191 69.414 73.5663 69.5585 73.7366C69.6586 73.8625 70.0808 74.3513 70.1586 74.4327C70.3251 74.6179 70.7223 74.7234 70.9297 74.511C84.802 59.7085 101.048 48.4634 123.418 39.1486C124.361 38.7566 124.444 38.0794 124.043 37.473C124.043 37.473 122.795 35.5649 122.382 34.8921C122.092 34.4042 121.353 34.2303 120.728 34.5285Z" fill="#874EE8"/>
<path d="M66.3628 69.3049C67.6552 69.8652 70.5256 69.5365 71.6274 68.2835C72.4347 67.375 71.4351 64.9013 70.0275 62.3294C70.2048 62.463 70.3486 62.5596 70.4481 62.6119C71.9397 63.3059 75.037 62.4408 75.8339 61.6133C76.2597 61.1665 76.2649 60.4521 76.005 59.6034C77.1072 59.7869 78.873 58.98 79.7152 58.3001C80.1417 57.9565 80.1167 57.588 80.0048 57.3515C79.457 56.3097 77.1936 51.3458 75.46 46.5473C78.006 49.6934 80.8728 53.0256 81.5805 53.4277C82.5425 53.9712 84.7256 53.0343 85.6879 52.2446C86.1145 51.901 86.1675 51.6434 86.0445 51.4144C85.575 50.5128 83.8702 46.5838 82.55 42.5464C84.5742 45.1369 86.6866 47.7426 87.3169 48.1074C88.7103 48.8966 92.2149 48.0414 93.1556 47.281C94.1288 46.4841 93.6734 44.5956 92.7765 42.5718C95.2936 43.4857 99.2561 43.4509 100.879 42.621C106.316 39.8549 103.609 30.2994 101.27 26.8673C101.247 26.8229 101.214 26.7859 101.17 26.7414C106.947 27.8667 113.099 30.4307 112.538 33.2338C112.262 34.5875 109.337 34.8791 107.438 32.8419C107.172 32.5604 106.654 32.5498 106.393 32.9018C105.957 33.5327 105.69 34.496 105.599 35.5046C105.579 35.7402 105.679 35.925 105.912 36.081C109.065 38.0964 113.984 36.4321 114.285 32.8687C114.607 29.0551 109.44 24.4419 98.1503 22.2224C97.8746 22.1692 97.5886 22.1969 97.4142 22.4021C97.0214 22.8416 95.8793 24.551 95.6227 25.5071C95.5799 25.6541 95.647 25.7871 95.7801 25.9058C98.8908 29.4604 103.012 39.5697 98.3525 41.9501C97.5851 42.3432 96.8456 42.0956 96.0919 41.4575C95.5928 40.9904 95.1265 40.4867 94.6928 39.9463C98.7682 37.5108 97.3252 30.519 94.6137 28.7125C92.8984 27.5751 88.6441 28.2932 86.9032 29.4686C85.3924 30.4906 86.5636 35.1605 89.0269 38.969C90.4117 41.4377 92.0994 44.6081 91.3994 45.1784C91.3228 45.2442 91.1575 45.2211 90.9475 45.1094C89.145 44.0892 83.8599 37.0667 83.1454 35.8101C82.9558 35.4921 82.4149 35.3195 81.9644 35.4125C81.1952 35.5846 80.086 35.9093 79.1971 36.2501C78.6594 36.4605 78.5525 36.8576 78.5996 37.2409C78.6812 37.8086 80.0087 42.7446 81.5069 46.9892C78.863 43.9972 76.3035 40.5491 75.6582 39.6907C75.4468 39.4168 75.0168 39.3332 74.6763 39.4269C73.9733 39.6142 72.8969 39.9022 71.8539 40.2569C71.305 40.4451 71.1544 40.8714 71.2344 41.2475C71.3489 41.7933 73.189 47.5133 75.0662 52.3495C73.6767 50.6836 69.6174 45.51 69.5952 45.4804C69.4395 45.288 69.1414 45.1757 68.8888 45.2404C68.1636 45.4128 66.8345 45.7656 65.6051 46.2002C65.0343 46.403 65.0252 46.6312 65.2921 46.9717C66.1371 48.0228 74.6768 58.6967 73.7816 59.6193C73.6832 59.7145 73.5508 59.6842 73.3299 59.5798C71.5066 58.7216 65.9202 52.5517 64.798 51.2558C64.5091 50.9152 64.255 50.8032 63.7386 50.9105C62.9803 51.0753 61.6198 51.6416 61.236 51.8234C60.8633 52.0127 60.8539 52.2115 61.0652 52.4853C61.3657 52.8923 61.7217 53.3659 62.3118 54.2019C62.3118 54.2019 57.1922 54.0749 55.676 55.8115C53.9088 57.8191 62.7395 67.7213 66.3628 69.3049ZM90.5848 30.0803C93.7088 31.1673 94.8761 36.7137 93.8137 38.7698C91.5969 35.4931 90.5424 31.649 90.5848 30.0803ZM59.7723 55.9838C60.2414 55.4488 62.9385 55.4726 63.2028 55.4889C65.6963 58.9514 69.8135 65.8343 69.268 66.4497C69.2243 66.4937 69.1252 66.4857 69.0148 66.4409C67.2805 65.6864 59.1069 56.7384 59.7723 55.9838Z" fill="#874EE8"/>
<path d="M50.1913 58.3562C49.2034 58.7037 47.5469 59.4229 46.4075 60.0936C45.8707 60.4071 45.8407 60.7974 46.2618 61.1388C55.747 68.9308 70.8654 80.477 68.5905 85.0597C67.4098 87.4465 62.5516 86.9824 60.3534 81.9158C60.1626 81.4653 59.5118 81.292 58.9753 81.6644C57.6178 82.5843 56.4499 83.822 55.8841 84.6436C55.6883 84.9371 55.691 85.2759 55.8694 85.5716C59.9988 92.6093 69.4968 91.0023 71.3412 86.2771C73.3039 81.2064 66.5037 73.298 51.2277 58.5687C50.9393 58.2871 50.5755 58.2185 50.1913 58.3562Z" fill="#874EE8"/>
</g>
<defs>
<linearGradient id="paint0_linear_2129_13302" x1="165.152" y1="141.399" x2="0" y2="141.399" gradientUnits="userSpaceOnUse">
<stop offset="0.246861" stop-color="#E6ECF0"/>
<stop offset="0.484375" stop-color="#C0D2DD"/>
<stop offset="0.725132" stop-color="#C1D0DB"/>
</linearGradient>
<clipPath id="clip0_2129_13302">
<rect width="86.7999" height="42.8893" fill="white" transform="matrix(0.83205 -0.5547 0.830139 0.557556 28.4573 68.3596)"/>
</clipPath>
</defs>
</svg>
