<svg width="166" height="123" viewBox="0 0 166 123" fill="none" xmlns="http://www.w3.org/2000/svg">
<path d="M0.303467 54.1481H165.455V66.2546H165.367C165.896 69.9472 164.045 73.7612 159.815 76.5813L96.3705 118.877C88.862 123.883 76.7025 123.862 69.2113 118.831L5.91272 76.3169C1.80017 73.5547 -0.0504369 69.8567 0.359129 66.2546H0.303467V54.1481Z" fill="url(#paint0_linear_2129_13315)"/>
<path d="M5.91272 64.2104C-1.57846 59.179 -1.56448 51.0424 5.94394 46.0368L69.3882 3.74059C76.8967 -1.26503 89.0562 -1.24414 96.5474 3.78725L159.846 46.3012C167.337 51.3326 167.323 59.4692 159.815 64.4748L96.3705 106.771C88.862 111.777 76.7025 111.756 69.2113 106.724L5.91272 64.2104Z" fill="white"/>
<path fill-rule="evenodd" clip-rule="evenodd" d="M106.764 43.1224L92.3082 58.5089L95.4383 59.1144C95.4383 59.1144 114.027 53.4692 120.075 51.3924C121.436 50.9249 124.174 49.857 123.499 48.004C122.824 46.1516 119.235 45.4581 117.461 45.1223C113.896 44.4524 110.331 43.7858 106.764 43.1224V43.1224Z" fill="url(#paint1_linear_2129_13315)"/>
<path fill-rule="evenodd" clip-rule="evenodd" d="M93.57 57.8598L71.5804 66.5809C71.5804 66.5809 73.8885 72.4497 74.4522 73.8003C74.9471 74.989 75.97 77.3929 78.7358 77.8516C81.503 78.3101 83.1095 76.4823 83.8133 75.573C86.9374 71.5333 95.4376 59.1142 95.4376 59.1142L93.5705 57.8601L93.57 57.8598Z" fill="#A026FF"/>
<path fill-rule="evenodd" clip-rule="evenodd" d="M93.0267 62.5581L71.5042 66.6351L102.657 47.5712" fill="#761BBD"/>
<path fill-rule="evenodd" clip-rule="evenodd" d="M71.5032 66.6349L61.6978 43.0382C61.6978 43.0382 61.6558 42.9672 61.6115 42.8394C61.2496 41.7938 61.0758 40.0984 62.1034 38.6747C62.4043 38.2799 62.805 37.8937 63.332 37.5333C63.9036 37.1613 64.5171 36.8856 65.1436 36.6829C67.1839 36.0574 69.5667 36.1513 71.1121 36.3775C71.4016 36.4202 71.5642 36.4639 71.5642 36.4639L106.763 43.1221L95.4374 59.1136L71.5032 66.6349V66.6349Z" fill="url(#paint2_linear_2129_13315)"/>
<defs>
<linearGradient id="paint0_linear_2129_13315" x1="165.455" y1="141.399" x2="0.303467" y2="141.399" gradientUnits="userSpaceOnUse">
<stop offset="0.246861" stop-color="#E6ECF0"/>
<stop offset="0.484375" stop-color="#C0D2DD"/>
<stop offset="0.725132" stop-color="#C1D0DB"/>
</linearGradient>
<linearGradient id="paint1_linear_2129_13315" x1="125.08" y1="48.5357" x2="110.955" y2="38.7615" gradientUnits="userSpaceOnUse">
<stop stop-color="#FFD700"/>
<stop offset="1" stop-color="#FFD700"/>
</linearGradient>
<linearGradient id="paint2_linear_2129_13315" x1="63.3199" y1="37.5414" x2="83.1586" y2="67.2995" gradientUnits="userSpaceOnUse">
<stop stop-color="#FFD000"/>
<stop offset="1" stop-color="#FFA700"/>
</linearGradient>
</defs>
</svg>
