<svg width="166" height="123" viewBox="0 0 166 123" fill="none" xmlns="http://www.w3.org/2000/svg">
<path d="M0.0756836 54.1484H165.227V66.2549H165.139C165.669 69.9474 163.817 73.7614 159.587 76.5816L96.1427 118.878C88.6343 123.883 76.4747 123.862 68.9835 118.831L5.68493 76.3171C1.57238 73.555 -0.27822 69.8569 0.131345 66.2549H0.0756836V54.1484Z" fill="url(#paint0_linear_2129_13466)"/>
<path d="M5.68493 64.2106C-1.80625 59.1792 -1.79226 51.0426 5.71616 46.037L69.1604 3.74083C76.6689 -1.26479 88.8284 -1.24389 96.3196 3.7875L159.618 46.3015C167.109 51.3328 167.095 59.4694 159.587 64.4751L96.1427 106.771C88.6342 111.777 76.4747 111.756 68.9835 106.725L5.68493 64.2106Z" fill="white"/>
<g clip-path="url(#clip0_2129_13466)">
<path d="M76.0657 26.4252C73.7656 26.3001 71.5094 26.8529 69.8758 27.942L44.7822 44.6711C41.7078 46.7207 41.702 50.0642 44.7694 52.1245L87.2231 80.6381C88.28 81.348 89.8819 81.5474 91.2475 81.1391C91.6541 81.0174 92.0144 80.8496 92.3178 80.6473C93.0334 80.1702 93.4318 79.502 93.3702 78.7999L91.6918 59.6613L100.723 53.6403C103.483 51.8007 103.825 48.9312 101.538 46.8171L81.8161 28.5912C80.4618 27.3398 78.3659 26.5503 76.0657 26.4252ZM82.0801 38.8098L70.1523 46.7616C68.7225 47.7149 68.6852 49.3022 70.1387 50.2422C71.5476 51.1533 73.7921 51.1463 75.1842 50.2182L85.9725 43.026C86.7572 42.5029 88.0558 42.5732 88.7068 43.1741L95.1446 49.1152C95.6665 49.5967 95.5873 50.2602 94.9582 50.6793L85.4554 57.0081C84.726 57.4943 84.343 58.1667 84.4035 58.855L85.6209 72.7355L49.8703 48.7239C49.6088 48.5482 49.6091 48.2641 49.8714 48.0893L73.9235 32.0545C74.7018 31.5356 75.9881 31.5999 76.6448 32.1906L82.2526 37.2342C82.7882 37.7157 82.7148 38.3867 82.0801 38.8098Z" fill="#FF4175"/>
</g>
<defs>
<linearGradient id="paint0_linear_2129_13466" x1="165.228" y1="141.4" x2="0.0756836" y2="141.4" gradientUnits="userSpaceOnUse">
<stop offset="0.246861" stop-color="#E6ECF0"/>
<stop offset="0.484375" stop-color="#C0D2DD"/>
<stop offset="0.725132" stop-color="#C1D0DB"/>
</linearGradient>
<clipPath id="clip0_2129_13466">
<rect width="60.907" height="60.907" fill="white" transform="matrix(0.83205 -0.5547 0.830139 0.557556 31.9897 53.199)"/>
</clipPath>
</defs>
</svg>
