<svg width="166" height="123" viewBox="0 0 166 123" fill="none" xmlns="http://www.w3.org/2000/svg">
<path d="M0.531006 54.1481H165.683V66.2546H165.594C166.124 69.9472 164.273 73.7612 160.042 76.5813L96.598 118.877C89.0896 123.883 76.93 123.862 69.4388 118.831L6.14025 76.3169C2.02771 73.5547 0.177102 69.8567 0.586668 66.2546H0.531006V54.1481Z" fill="url(#paint0_linear_2129_13482)"/>
<path d="M6.14025 64.2104C-1.35092 59.179 -1.33694 51.0424 6.17148 46.0368L69.6158 3.74059C77.1242 -1.26503 89.2838 -1.24414 96.7749 3.78725L160.074 46.3012C167.565 51.3326 167.551 59.4692 160.042 64.4748L96.598 106.771C89.0896 111.777 76.93 111.756 69.4388 106.724L6.14025 64.2104Z" fill="white"/>
<g clip-path="url(#clip0_2129_13482)">
<path d="M107.586 49.2102L106.163 66.1407L81.2145 67.0045C74.3603 66.9394 67.9474 65.1418 63.2107 61.9603C58.3147 58.672 55.6123 54.2941 55.5805 49.6275C55.5885 44.9876 58.3058 40.619 63.253 37.3209C67.482 34.5015 72.8648 32.7775 78.7635 32.3609L80.5968 32.2574C81.9518 32.2064 83.2664 32.4487 84.182 33.0102C85.0578 33.5451 85.6145 34.2927 85.6529 35.1194C85.6911 36.0528 85.1317 36.9585 84.1343 37.6234C83.2166 38.2352 82.0205 38.6064 80.7452 38.6576L79.5096 38.7888C75.9623 39.1293 72.7326 40.1638 70.1792 41.866C63.7559 46.1482 63.744 53.0814 70.1127 57.359C73.2573 59.471 77.36 60.6247 81.7834 60.6056L81.903 60.5792C85.9681 60.4261 93.9387 60.1198 94.8952 60.0682L97.2067 60.0188L98.0626 48.9005C98.1437 48.1006 98.6232 47.3548 99.461 46.7962C100.419 46.1579 101.734 45.8135 103.089 45.8692C105.639 45.9802 107.709 47.4771 107.586 49.2102M112.607 49.4855C112.852 45.8593 108.673 42.7855 103.254 42.6162C100.504 42.5315 97.7934 43.2201 95.8385 44.5234C94.123 45.6671 93.0842 47.2119 92.9619 48.8384L92.3901 56.8906L92.3104 56.8904C88.7635 57.0177 82.5065 57.2469 81.7094 57.2989C78.6808 57.2937 75.8129 56.4888 73.6634 55.0451C69.2451 52.0776 69.2534 47.2243 73.6819 44.272C75.4773 43.0751 77.7102 42.3323 80.1813 42.1232L81.2973 42.0185C83.6886 41.8626 85.9214 41.1731 87.637 40.0294C89.6717 38.6729 90.7508 36.8348 90.6344 34.9946C90.5179 33.2611 89.4048 31.6592 87.4541 30.5093C85.4636 29.3325 82.8742 28.7681 80.1641 28.9234L78.2112 29.0534C71.2365 29.5481 64.6973 31.6701 59.7103 34.9948C53.8455 38.9047 50.6087 44.099 50.5991 49.6456C50.5896 55.1921 53.8485 60.371 59.6998 64.3009C65.3919 68.124 73.0395 70.2704 81.2486 70.3379L81.5675 70.3384L108.707 69.3984C109.305 69.3727 109.863 69.2137 110.342 68.8945C110.781 68.602 111.021 68.229 111.101 67.8025L112.647 49.5655C112.607 49.5388 112.607 49.4855 112.607 49.4855" fill="#6F36FF"/>
</g>
<defs>
<linearGradient id="paint0_linear_2129_13482" x1="165.683" y1="141.399" x2="0.531006" y2="141.399" gradientUnits="userSpaceOnUse">
<stop offset="0.246861" stop-color="#E6ECF0"/>
<stop offset="0.484375" stop-color="#C0D2DD"/>
<stop offset="0.725132" stop-color="#C1D0DB"/>
</linearGradient>
<clipPath id="clip0_2129_13482">
<rect width="60.907" height="60.907" fill="white" transform="matrix(0.83205 -0.5547 0.830139 0.557556 32.4451 53.1718)"/>
</clipPath>
</defs>
</svg>
