<svg width="166" height="123" viewBox="0 0 166 123" fill="none" xmlns="http://www.w3.org/2000/svg">
<path d="M0.455078 54.1481H165.607V66.2546H165.519C166.048 69.9472 164.197 73.7612 159.966 76.5813L96.5221 118.877C89.0136 123.883 76.8541 123.862 69.3629 118.831L6.06433 76.3169C1.95178 73.5547 0.101174 69.8567 0.51074 66.2546H0.455078V54.1481Z" fill="url(#paint0_linear_2129_13323)"/>
<path d="M6.06433 64.2104C-1.42685 59.179 -1.41287 51.0424 6.09556 46.0368L69.5398 3.74059C77.0483 -1.26503 89.2078 -1.24414 96.699 3.78725L159.998 46.3012C167.489 51.3326 167.475 59.4692 159.966 64.4748L96.5221 106.771C89.0136 111.777 76.8541 111.756 69.3629 106.724L6.06433 64.2104Z" fill="white"/>
<g clip-path="url(#clip0_2129_13323)">
<path d="M117.118 49.1176C119.396 51.1225 119.896 53.836 118.422 56.1734C117.708 57.3248 116.541 58.3079 115.068 59.0849C113.649 59.8289 111.973 60.4033 109.898 60.7732C107.057 61.3095 103.662 61.4766 99.2015 61.3337C98.4513 56.3465 96.7372 52.4787 94.1584 49.7272C92.9444 48.4369 91.5786 47.4499 90.1084 46.6683C88.6405 45.9546 87.0185 45.4763 85.2966 45.2697C81.4468 44.7895 77.4901 45.6655 74.5471 47.6275C71.604 49.5896 70.3297 52.2671 70.9835 54.8118C71.2858 55.9647 71.9947 57.0518 73.0557 58.0368C74.1686 59.0565 75.6881 60.0074 77.6119 60.7581C81.7143 62.4939 87.5897 63.657 94.9878 64.2091C95.2344 67.161 94.9272 69.4654 94.1105 71.3643C93.55 72.7546 92.6877 73.8725 91.5706 74.8193C90.4086 75.7897 88.9115 76.5541 87.2095 77.0511C83.7109 78.029 79.6553 77.6828 76.67 76.1527C75.254 75.4043 74.0913 74.4872 73.1797 73.1974C72.8239 72.7558 72.5745 72.2464 72.2214 71.6704C71.7671 70.8903 71.3129 70.0407 70.8564 69.1926L70.807 69.0898C66.7662 61.6899 62.8299 54.0182 59.2479 46.3819L59.095 46.0765C58.7446 45.2966 58.3376 44.4819 57.9849 43.7004C57.5826 42.8856 57.2796 42.071 57.1797 41.2567C57.0317 39.7294 57.793 38.341 59.3662 37.2921C60.9395 36.2433 63.0196 35.7375 65.2991 35.8437C66.5157 35.9136 67.7319 36.1194 68.948 36.3916C70.1146 36.6305 71.3283 36.9043 72.4925 37.1417L72.9506 37.2435C84.3468 39.7368 95.7968 42.3992 106.84 45.1306L106.89 45.1639C108.106 45.4361 109.374 45.8127 110.588 46.0865C111.449 46.3266 112.21 46.4953 112.866 46.7335C114.589 47.3495 116.005 48.0978 117.118 49.1176V49.1176ZM94.4866 61.0197C88.305 60.5344 83.2892 59.5433 79.9469 58.1154C78.5283 57.5014 77.4642 56.8563 76.7074 56.1422C75.9999 55.5309 75.595 54.8505 75.3932 54.1736C74.9925 52.6127 75.7544 50.9524 77.6328 49.7C79.5113 48.4477 81.9978 47.8762 84.3265 48.2181C85.3421 48.3556 86.3527 48.6291 87.2636 49.1047C88.3256 49.6154 89.3399 50.3631 90.2003 51.2798C92.2747 53.4867 93.737 56.8467 94.4866 61.0197V61.0197ZM114.748 43.992C113.888 43.7535 112.975 43.4818 112.165 43.2766C110.847 42.9363 109.581 42.6276 108.415 42.3223L108.316 42.3221C97.2227 39.5575 85.7726 36.895 74.2229 34.4347L73.7671 34.3313C72.6005 34.0924 71.3868 33.8186 70.1707 33.5464C68.7514 33.2738 67.2826 32.9649 65.5605 32.8943C61.9087 32.6167 58.4601 33.4255 55.9736 35.0832C53.4351 36.7755 52.2656 39.0454 52.511 41.455C52.6598 42.5745 53.064 43.5932 53.4684 44.5423C53.8707 45.3571 54.2753 46.1703 54.628 46.9518L54.7786 47.2555C58.462 54.96 62.3486 62.6648 66.439 70.098L66.4907 70.1992C66.945 70.9793 67.3992 71.8289 67.9029 72.7118C68.2301 73.2957 68.5856 73.8732 68.9624 74.4429C70.1755 76.1411 71.7438 77.4667 73.8182 78.5211C78.1724 80.6984 83.9005 81.1483 88.8173 79.7647C90.6942 79.2586 92.3165 78.5149 93.7383 77.567C94.1452 77.2957 94.602 76.9249 94.957 76.6188C96.4291 75.3659 97.5994 73.8437 98.3118 72.0806C99.2307 69.9115 99.5382 67.4711 99.3416 64.3502C104.005 64.4934 107.705 64.262 110.898 63.6899C113.535 63.2197 115.815 62.4423 117.692 61.4619C118.151 61.2254 118.707 60.9212 119.114 60.6499C120.536 59.702 121.703 58.5862 122.417 57.3653C124.552 54.044 123.799 50.2108 120.614 47.324C119.251 45.8644 117.279 44.8116 114.748 43.992V43.992Z" fill="#E0565B"/>
</g>
<defs>
<linearGradient id="paint0_linear_2129_13323" x1="165.607" y1="141.399" x2="0.455078" y2="141.399" gradientUnits="userSpaceOnUse">
<stop offset="0.246861" stop-color="#E6ECF0"/>
<stop offset="0.484375" stop-color="#C0D2DD"/>
<stop offset="0.725132" stop-color="#C1D0DB"/>
</linearGradient>
<clipPath id="clip0_2129_13323">
<rect width="56.6196" height="60.907" fill="white" transform="matrix(0.83205 -0.5547 0.830139 0.557556 32.3665 50.8207)"/>
</clipPath>
</defs>
</svg>
