<svg width="165" height="123" viewBox="0 0 165 123" fill="none" xmlns="http://www.w3.org/2000/svg">
<path d="M0 54.3168H165V66.461H164.912C165.441 70.1651 163.591 73.9909 159.365 76.8198L95.9787 119.248C88.4772 124.269 76.3288 124.248 68.8445 119.201L5.60409 76.5546C1.49533 73.7838 -0.353578 70.0743 0.0556106 66.461H0V54.3168Z" fill="url(#paint0_linear_2129_13266)"/>
<path d="M5.60409 64.4104C-1.8802 59.3633 -1.86623 51.2014 5.63529 46.1802L69.0213 3.75224C76.5228 -1.26897 88.6712 -1.24801 96.1555 3.79905L159.396 46.4454C166.88 51.4925 166.866 59.6544 159.365 64.6756L95.9787 107.104C88.4772 112.125 76.3288 112.104 68.8445 107.057L5.60409 64.4104Z" fill="white"/>
<path d="M78.1065 20.1382L36.5855 47.9307C34.053 49.6258 34.0483 52.3813 36.5749 54.0851L77.9999 82.0202C80.5266 83.7241 84.628 83.7312 87.1604 82.036L128.681 54.2437C131.214 52.5485 131.219 49.793 128.692 48.0891L87.2669 20.154C84.7403 18.4502 80.639 18.4431 78.1065 20.1382ZM91.356 69.9491C92.0913 70.445 92.0899 71.2468 91.3529 71.7401L85.6725 75.5424C84.9355 76.0357 83.742 76.0337 83.0067 75.5378L59.2496 59.5171C58.5142 59.0212 58.5156 58.2194 59.2526 57.7261L64.9331 53.9238C65.6701 53.4305 66.8636 53.4326 67.5989 53.9284L91.356 69.9491ZM59.8534 54.3148C56.873 56.3097 52.0464 56.3014 49.073 54.2962C46.0995 52.291 46.1051 49.0483 49.0854 47.0534C52.0658 45.0584 56.8924 45.0667 59.8659 47.0719C62.8393 49.0771 62.8339 52.3198 59.8534 54.3148ZM121.149 50.151C121.825 50.6069 121.824 51.3443 121.146 51.7978L115.051 55.8779C114.373 56.3314 113.276 56.3295 112.6 55.8737L101.456 48.359C99.7938 47.238 94.6603 43.1196 89.8173 46.3613C86.0606 48.8759 89.1468 51.9809 90.7208 53.2479L103.574 61.9153C104.25 62.3711 104.248 63.1084 103.571 63.562L97.6753 67.5082C96.9978 67.9617 95.9003 67.9598 95.2243 67.5039L71.2527 51.3386C70.5767 50.8828 70.5779 50.1454 71.2555 49.6919L77.1509 45.7457C77.8285 45.2922 78.926 45.2941 79.602 45.7499L81.6746 47.1476C80.982 44.8088 81.4423 42.3376 85.85 39.3872C95.6105 32.854 104.652 39.0264 109.651 42.3973L121.149 50.151Z" fill="#0077B7"/>
<defs>
<linearGradient id="paint0_linear_2129_13266" x1="165" y1="141.84" x2="0" y2="141.84" gradientUnits="userSpaceOnUse">
<stop offset="0.246861" stop-color="#E6ECF0"/>
<stop offset="0.484375" stop-color="#C0D2DD"/>
<stop offset="0.725132" stop-color="#C1D0DB"/>
</linearGradient>
</defs>
</svg>
