<svg width="166" height="123" viewBox="0 0 166 123" fill="none" xmlns="http://www.w3.org/2000/svg">
<path d="M0.317139 54.1479H165.469V66.2544H165.381C165.91 69.9469 164.059 73.7609 159.828 76.5811L96.3841 118.877C88.8757 123.883 76.7161 123.862 69.225 118.831L5.92639 76.3166C1.81384 73.5545 -0.036765 69.8564 0.3728 66.2544H0.317139V54.1479Z" fill="url(#paint0_linear_2129_13428)"/>
<path d="M5.92639 64.2101C-1.56479 59.1787 -1.55081 51.0421 5.95762 46.0365L69.4019 3.74034C76.9103 -1.26527 89.0699 -1.24438 96.5611 3.78701L159.86 46.301C167.351 51.3324 167.337 59.469 159.828 64.4746L96.3841 106.771C88.8757 111.776 76.7161 111.755 69.225 106.724L5.92639 64.2101Z" fill="white"/>
<path d="M103.42 58.7553L103.406 67.1188L90.9072 67.0973L103.42 58.7553Z" fill="#65C1C2"/>
<path d="M81.0114 54.7077C78.171 54.5507 77.3767 53.9411 77.3785 52.8767C77.3808 51.5841 78.8018 51.1684 81.0175 51.1342L81.0114 54.7077ZM77.4104 34.3249C77.4126 33.0324 78.8337 32.6166 81.0494 32.5824L81.0432 36.1559C78.146 36.0369 77.4085 35.4654 77.4104 34.3249V34.3249ZM88.2108 30.77C88.8323 32.7859 89.6218 36.2087 85.1905 36.2011L85.2034 28.6739C84.1808 28.6722 83.3855 28.5948 82.7605 28.6317C76.7385 28.6214 73.2691 30.8584 73.2629 34.4318C73.2589 36.7888 74.7899 38.5022 77.2312 39.4568L73.4818 39.2983C73.2538 39.7541 73.0218 42.4908 77.4517 43.3348L73.8154 43.5566L73.8092 47.1301L81.0812 47.1426C76.0811 47.5142 73.2936 49.6763 73.2881 52.8696C73.2822 56.2911 76.5739 58.2735 81.0613 58.6994L80.266 58.6981C75.1529 58.6893 73.2738 61.1571 73.2707 62.9818C73.2682 64.4264 74.0612 65.7964 75.3671 66.2928L64.3455 66.2739L64.3387 70.2275L86.1545 70.265L92.0129 66.3595L84.1729 66.346C80.0256 66.3008 78.8906 65.6146 78.8929 64.246C78.8951 62.9535 80.6569 62.6144 84.577 62.5831L92.3034 62.5964L92.3101 58.7188L84.9245 58.7061C89.5839 58.2579 92.8825 56.2107 92.8891 52.4091L92.8892 52.3331C93.0635 50.0904 91.9865 48.682 91.9865 48.682L88.2928 49.1698C88.9143 51.1858 89.7607 54.5706 85.3293 54.563L85.3423 47.0359L92.387 47.048L92.394 42.9423L83.645 42.9272C79.5545 42.9202 78.8195 40.8281 78.935 39.7638C80.1843 40.0701 81.5476 40.2245 83.0247 40.227C88.7059 40.2368 92.9135 38.1912 92.9777 33.8955L92.9778 33.8194C93.1521 31.5768 92.0751 30.1684 92.0751 30.1684L88.2108 30.77V30.77Z" fill="#393E47"/>
<defs>
<linearGradient id="paint0_linear_2129_13428" x1="165.469" y1="141.399" x2="0.317139" y2="141.399" gradientUnits="userSpaceOnUse">
<stop offset="0.246861" stop-color="#E6ECF0"/>
<stop offset="0.484375" stop-color="#C0D2DD"/>
<stop offset="0.725132" stop-color="#C1D0DB"/>
</linearGradient>
</defs>
</svg>
