<svg width="165" height="123" viewBox="0 0 165 123" fill="none" xmlns="http://www.w3.org/2000/svg">
<path d="M0 54.3168H165V66.461H164.912C165.441 70.1651 163.591 73.9909 159.365 76.8198L95.9787 119.248C88.4772 124.269 76.3288 124.248 68.8445 119.201L5.60409 76.5546C1.49533 73.7838 -0.353578 70.0743 0.0556106 66.461H0V54.3168Z" fill="url(#paint0_linear_2129_13224)"/>
<path d="M5.60409 64.4104C-1.8802 59.3633 -1.86623 51.2014 5.63529 46.1802L69.0213 3.75224C76.5228 -1.26897 88.6712 -1.24801 96.1555 3.79905L159.396 46.4454C166.88 51.4925 166.866 59.6544 159.365 64.6756L95.9787 107.104C88.4772 112.125 76.3288 112.104 68.8445 107.057L5.60409 64.4104Z" fill="white"/>
<g clip-path="url(#clip0_2129_13224)">
<path d="M80.405 24.6067C79.9614 24.7576 79.557 24.9613 79.1821 25.2112L40.6016 50.9316C38.6087 52.2601 38.6046 54.4359 40.5924 55.7709L79.0854 81.6245C79.4495 81.869 79.8738 82.0747 80.306 82.233L80.405 24.6067Z" fill="#139F5A"/>
<path d="M125.635 51.8426L125.615 51.8162L125.576 51.7765L125.556 51.7501L125.517 51.7105L125.497 51.6841L125.448 51.6246L125.428 51.5982L125.389 51.5586L125.369 51.5322L125.32 51.486L125.301 51.4727L125.232 51.4133L125.202 51.3934L125.153 51.3472L125.123 51.3274L125.064 51.2745L125.055 51.2679L124.986 51.2085L124.956 51.1886L124.897 51.149L124.868 51.1291L124.789 51.0762L86.2969 25.2234C85.9327 24.9788 85.5084 24.773 85.0761 24.6147L84.977 82.241C85.4207 82.0902 85.8249 81.8865 86.1997 81.6367L124.888 55.8445L124.947 55.8051L124.967 55.7919L125.036 55.7327L125.046 55.7261L125.105 55.6735L125.135 55.6538L125.184 55.6077L125.214 55.588L125.283 55.5288L125.302 55.5156L125.352 55.4695L125.371 55.4432L125.411 55.4037L125.431 55.3774L125.49 55.3116L125.5 55.2918L125.539 55.2523L125.559 55.226L125.598 55.1865L125.618 55.1601L125.667 55.1009C126.447 54.1068 126.459 52.9002 125.672 51.8954L125.635 51.8426Z" fill="#CDCDCD"/>
<path d="M79.1278 25.2475L79.031 81.5879C81.0167 82.9216 84.2643 82.9271 86.2545 81.6003L86.8565 81.199L86.951 25.6626L86.3504 25.2592C84.3657 23.9262 81.118 23.9206 79.1278 25.2475Z" fill="#F5F5F5"/>
<path opacity="0.2" d="M79.1187 25.2535L40.5961 50.9352C38.6063 52.2618 38.7017 54.5011 40.8084 55.916L41.1317 56.1331C39.025 54.7182 38.9296 52.4789 40.9194 51.1524L79.4519 25.4641C81.4417 24.1375 84.7878 24.2097 86.8944 25.6246L86.5711 25.4075C84.4546 23.9991 81.1085 23.927 79.1187 25.2535Z" fill="white"/>
<path d="M97.6369 44.0156L105.988 38.4484L98.5165 33.4304L82.8746 44.082L97.6369 44.0156Z" fill="url(#paint1_linear_2129_13224)"/>
<path d="M92.5841 46.273C90.1995 49.0656 86.0016 55.0907 89.7152 57.585L105.936 68.4794L125.57 55.3902L125.649 55.337L125.679 55.317L125.739 55.2771L125.759 55.2638L125.829 55.2039L125.839 55.1973L125.899 55.1441L125.929 55.1241L125.979 55.0776L126.009 55.0576L126.079 54.9977L126.099 54.9844L126.149 54.9379L126.169 54.9113L126.209 54.8714L126.229 54.8448L126.289 54.7783L126.299 54.7584L126.339 54.7185L126.359 54.6919L126.399 54.652L126.419 54.6254L126.469 54.5655C127.262 53.5616 127.281 52.3458 126.495 51.3355L126.445 51.2757L126.426 51.2492L126.386 51.2093L126.367 51.1828L126.327 51.143L126.308 51.1164L126.258 51.0567L126.239 51.0301L126.199 50.9903L126.18 50.9637L126.131 50.9173L126.111 50.904L126.042 50.8443L126.012 50.8244L125.963 50.7779L125.933 50.758L125.874 50.705L125.861 50.6963L125.792 50.6366L125.763 50.6167L125.703 50.5769L125.674 50.557L125.595 50.5039L106.681 37.8005C106.682 37.8012 91.8216 47.1646 92.5841 46.273Z" fill="#FFC108"/>
<path d="M92.6249 46.2819L92.5641 46.363L92.5539 46.3833L92.4931 46.4645C91.7025 47.3702 90.7586 48.5946 89.9481 49.9466L110.328 49.9973L110.282 40.219L106.389 37.6048C100.962 39.4643 96.4765 41.8326 92.6249 46.2819Z" fill="#F79022"/>
<path opacity="0.2" d="M93.047 46.5787L93.1073 46.4989L93.1174 46.479L93.1777 46.3992C96.9996 42.0168 101.417 39.6791 106.744 37.8431L106.36 37.5848C101.023 39.4268 96.606 41.7645 92.7931 46.1409L92.7328 46.2207L92.7227 46.2406L92.6624 46.3204C90.2751 49.1129 86.0708 55.1371 89.7786 57.6274L90.1632 57.8857C86.4564 55.3948 90.6498 49.3659 93.047 46.5787Z" fill="white"/>
<path fill-rule="evenodd" clip-rule="evenodd" d="M70.6902 24.2065C77.3505 19.7663 88.148 19.7855 94.792 24.2479C101.436 28.7103 101.424 35.9361 94.7643 40.3756C88.105 44.8151 77.3065 44.7966 70.6625 40.3342C64.0176 35.8725 64.03 28.6466 70.6902 24.2065Z" fill="#FFC20B"/>
<path opacity="0.2" fill-rule="evenodd" clip-rule="evenodd" d="M71.0631 24.4563C77.6638 20.0558 88.4209 20.0997 95.195 24.5186L95.0033 24.3898C88.2467 19.8518 77.3497 19.7668 70.6907 24.2062C64.0317 28.6455 64.1193 35.9395 70.8859 40.4842L71.0776 40.613C64.4881 36.055 64.4624 28.8567 71.0631 24.4563Z" fill="white"/>
<path opacity="0.1" fill-rule="evenodd" clip-rule="evenodd" d="M94.4632 40.1733C87.8523 44.5805 77.0458 44.5169 70.2476 40.0554L70.3987 40.1569C77.1893 44.7178 88.1051 44.8151 94.7644 40.3756C101.424 35.9361 101.318 28.6308 94.5281 24.0706L94.377 23.9691C101.018 28.534 101.074 35.7661 94.4632 40.1733Z" fill="#263238"/>
<path opacity="0.1" d="M124.453 55.702L85.9304 81.3837C83.9405 82.7102 80.5944 82.638 78.4878 81.2231L78.8111 81.4403C80.9177 82.8552 84.2638 82.9274 86.2536 81.6008L124.786 55.9125C126.776 54.586 126.68 52.3467 124.574 50.9318L124.251 50.7146C126.347 52.1361 126.443 54.3754 124.453 55.702Z" fill="#263238"/>
<path d="M55.8759 52.4776L58.4459 54.2038L62.1046 51.7646C63.3431 52.9887 63.0864 54.6423 61.0852 55.9764C58.8718 57.452 55.2238 57.4244 53.0598 55.971C50.8958 54.5176 50.857 52.0838 53.0815 50.6008C54.0831 49.933 55.3074 49.5664 56.6671 49.5328L56.7104 46.9635C54.4509 47.0285 52.2617 47.6019 50.4222 48.8282C46.6615 51.3354 46.6046 55.3551 50.2705 57.8173C53.9364 60.2794 59.9548 60.2489 63.7045 57.7491C67.6259 55.1348 67.5269 51.5907 63.7315 49.0416C63.2572 48.7231 62.7722 48.4514 62.2555 48.2126L55.8759 52.4776Z" fill="#EEEEEE"/>
<path fill-rule="evenodd" clip-rule="evenodd" d="M109.623 40.5025L99.6818 33.8257C99.7419 33.5077 99.7823 33.1896 99.8038 32.8708L99.814 32.7052C99.8335 32.4394 99.8242 32.1677 99.8158 31.9099L99.8063 31.7574L99.8063 31.7442C99.7881 31.4784 99.7481 31.2139 99.6991 30.9553L99.6991 30.9421L99.6697 30.8028L99.6698 30.7896L99.6404 30.6371C99.6011 30.478 99.5619 30.3189 99.5127 30.1664L99.4734 30.0205L99.4636 30.0006L99.4242 29.868L99.4144 29.8481L99.3652 29.7088L99.3652 29.6956C99.316 29.5431 99.247 29.3905 99.188 29.2314L99.188 29.2181L99.1289 29.0855L99.1091 29.059L99.0499 28.9396L99.0401 28.9064L98.981 28.787L98.9612 28.7605L98.8922 28.6212L98.7245 28.3227L98.7146 28.3028L98.6456 28.1768L98.6259 28.137L98.5568 28.0242L98.5371 27.9844L98.468 27.8717L98.4383 27.8385L98.3594 27.7191L98.3495 27.6992L98.1521 27.4073L98.1323 27.3807L98.0533 27.2746L98.0237 27.2281L97.9546 27.1286L97.925 27.0822L97.846 26.9893L97.8064 26.9495L97.7176 26.8367L97.6978 26.8101L97.4706 26.538L97.441 26.5049L97.3521 26.4053L97.3125 26.3655L97.2335 26.2726L97.1841 26.2261L97.0951 26.1398L97.0457 26.0934L96.9469 26.0004L96.9173 25.9673L96.7789 25.8345L96.6504 25.7084L96.6109 25.6686L96.512 25.5756L96.4626 25.5292L96.3737 25.4429L96.3243 25.3964L96.2254 25.3167L96.176 25.2703L96.0672 25.1839L96.0277 25.1441L95.8794 25.018L95.7311 24.9051L95.6817 24.8719L95.5729 24.7856L95.5136 24.7457L95.4147 24.666L95.3455 24.6195L95.2367 24.5465L95.1773 24.5066L95.0587 24.4269L94.9993 24.387L94.8312 24.2741C88.1647 19.7966 77.3282 19.7812 70.6406 24.2396L70.472 24.352L70.4125 24.3917L70.2935 24.471L70.2339 24.5107L70.1248 24.5835L70.0554 24.6297L69.9562 24.7091L69.8967 24.7488L69.7875 24.8348L69.7379 24.8679L69.5792 24.9869L69.5693 24.9935L69.4303 25.1126L69.3906 25.1523L69.2914 25.2317L69.2418 25.278L69.1524 25.3641L69.1028 25.4104L69.0135 25.4964L68.9639 25.5427L68.8646 25.6354L68.8249 25.6751L68.6711 25.812L68.542 25.9378L68.4924 25.9708L68.4031 26.0569L68.3535 26.1032L68.2641 26.1892L68.2244 26.2422L68.145 26.3348L68.1052 26.3745L68.0159 26.4738L67.9861 26.5069L67.8669 26.6393L67.7478 26.7717L67.718 26.8048L67.6286 26.904L67.5988 26.9504L67.5293 27.0497L67.4995 27.096L67.4299 27.1954L67.4001 27.2417L67.3107 27.3542L67.2908 27.3807L67.0921 27.6588L67.0623 27.6919L66.9927 27.8044L66.9728 27.8442L66.9033 27.9435L66.8735 27.9898L66.8138 28.0958L66.7939 28.1355L66.7243 28.2614L66.7143 28.2812L66.5552 28.5726L66.5354 28.5991L66.4757 28.7183L66.4558 28.758L66.406 28.8706L66.3861 28.9104L66.3264 29.0296L66.3164 29.0627L66.2567 29.2084L66.1371 29.5131L66.1272 29.533L66.0774 29.6588L66.0674 29.6919L66.0275 29.8112L66.0175 29.8443L65.9776 29.9768L65.9677 29.9967C65.9178 30.149 65.8788 30.3087 65.828 30.4604L65.8279 30.4736L65.7979 30.6128L65.7978 30.6393L65.7678 30.7652L65.7678 30.7917L65.7378 30.9308L65.7377 30.9441C65.7077 31.0964 65.6875 31.2555 65.6673 31.4145L65.6673 31.4278L65.6472 31.5735L65.6372 31.5934L65.627 31.7326L65.6171 31.7524L65.6069 31.8916L65.6068 31.9049C65.6065 32.0639 65.5863 32.223 65.5859 32.382L65.5856 32.5278L65.5856 32.5411L65.5952 32.6803L65.5951 32.6935L65.6047 32.846C65.6242 33.0051 65.6238 33.1641 65.6433 33.3232L65.6627 33.4691L65.6627 33.4823L65.6822 33.6281L65.6822 33.6414L65.7115 33.7939L40.3042 50.7321C39.838 51.0429 39.4707 51.4068 39.2322 51.7909C39.1825 51.8637 39.1427 51.9432 39.1029 52.0227C39.0432 52.1286 39.0034 52.2346 38.9635 52.3406C38.9237 52.4466 38.8937 52.5592 38.8737 52.6652C38.8636 52.7248 38.8536 52.7712 38.8436 52.8308C38.7731 53.3278 38.8602 53.8257 39.1087 54.2966C39.1777 54.4226 39.2567 54.5553 39.3455 54.6813C39.4739 54.8605 39.632 55.033 39.8099 55.1924C39.8593 55.2388 39.9087 55.2853 39.9681 55.3251L40.0472 55.3915C40.1262 55.4579 40.2261 55.525 40.3142 55.5841L79.098 81.633L79.1574 81.6729L79.1771 81.6861L79.2662 81.7327L79.2761 81.7393L79.3552 81.7792L79.3849 81.7991L79.4541 81.8324L79.4838 81.8523L79.5728 81.8988L79.5926 81.9121L79.6619 81.9453L79.7015 81.9587L79.7608 81.9852L79.8004 81.9986L79.8895 82.0318L79.9291 82.0451L79.9884 82.0717L80.028 82.0851L80.0874 82.1117L80.127 82.125L80.2161 82.1582L80.2556 82.1716L80.3051 82.1915L80.3447 82.2048L80.4239 82.2315L80.4635 82.2448L80.5229 82.2581L80.5922 82.2781L80.6515 82.2914L80.6911 82.3048L80.7604 82.3247L80.8198 82.3381L80.8792 82.3514L80.9287 82.3581L81.0178 82.3781L81.0673 82.3848L81.1267 82.3982L81.1861 82.4115L81.2455 82.4249L81.295 82.4316L81.3544 82.4449L81.4237 82.4516L81.4732 82.4583L81.5228 82.465L81.602 82.4784L81.6515 82.4851L81.701 82.4918L81.7703 82.4986L81.8396 82.5053L81.8891 82.512L81.9584 82.5187L82.0277 82.5254L82.0872 82.5255L82.1367 82.5322L82.2258 82.539L82.2753 82.5457L82.3347 82.5458L82.3942 82.5459L82.4734 82.546L82.5229 82.5527L82.5823 82.5528L82.6616 82.5529L82.721 82.553L82.7705 82.5464L82.8498 82.5465L82.8993 82.54L82.9587 82.5401L83.0083 82.5335L83.0974 82.527L83.147 82.5205L83.1964 82.5669L83.2657 82.5604L83.3351 82.5539L83.3846 82.5473L83.454 82.5408L83.5233 82.5343L83.5728 82.5277L83.6224 82.5212L83.7016 82.508L83.7512 82.5015L83.8007 82.4949L83.8701 82.4884L83.9295 82.4752L83.9791 82.4687L84.0385 82.4555L84.098 82.4424L84.1574 82.4292L84.207 82.4226L84.2961 82.4029L84.3457 82.3963L84.4051 82.3832L84.4646 82.37L84.534 82.3502L84.5736 82.337L84.6331 82.3239L84.7024 82.3041L84.7619 82.2909L84.8016 82.2777L84.8808 82.2513L84.9205 82.2381L84.9701 82.2183L85.0097 82.2051L85.0989 82.1721L85.1386 82.1589L85.1981 82.1325L85.2377 82.1193L85.2972 82.0929L85.3368 82.0797L85.426 82.0467L85.4657 82.0335L85.5252 82.0071L85.5648 81.9939L85.6342 81.9608L85.6541 81.9476L85.7433 81.9013L85.7731 81.8815L85.8425 81.8485L85.8722 81.8286L85.9516 81.789L85.9615 81.7824L86.0507 81.7361L86.0805 81.7163L86.14 81.6766L86.1698 81.6567L86.2491 81.6038L125.159 55.6642L125.218 55.6245L125.238 55.6113L125.307 55.5518L125.317 55.5452L125.377 55.4922L125.407 55.4724L125.456 55.4261L125.486 55.4062L125.516 55.3864L125.555 55.3467L125.575 55.3335L125.625 55.2871L125.645 55.2607L125.684 55.2209L125.704 55.1945L125.764 55.1283L125.774 55.1084L125.814 55.0687L125.833 55.0422L125.873 55.0025L125.893 54.976L125.943 54.9165L125.963 54.89L125.992 54.8569L126.012 54.8304L126.052 54.7774L126.072 54.751L126.072 54.7377L126.092 54.7112L126.122 54.6649L126.141 54.6251L126.161 54.5987L126.191 54.5523L126.211 54.5126L126.231 54.4728L126.241 54.4397L126.271 54.3801L126.281 54.347L126.301 54.3073L126.321 54.2675L126.34 54.2278L126.35 54.1947L126.36 54.1483L126.38 54.1085L126.4 54.0688L126.41 54.0357L126.43 53.9827L126.44 53.9496L126.46 53.9098L126.47 53.8767L126.48 53.8303L126.49 53.7972L126.5 53.7508L126.51 53.7045L126.51 53.6647L126.52 53.6316L126.53 53.5719L126.53 53.5454L126.53 53.5057L126.53 53.4792L126.54 53.4195L126.54 53.393L126.54 53.3798L126.54 53.3665L126.54 53.34L126.541 53.3002L126.541 53.2737L126.541 53.2605L126.541 53.2339L126.531 53.1743L126.531 53.1478L126.531 53.108L126.531 53.0815L126.521 53.0218L126.512 52.9754L126.512 52.9489L126.512 52.9092L126.502 52.8627L126.492 52.8296L126.472 52.7765L126.463 52.7434L126.443 52.7036L126.433 52.6704L126.413 52.6174L126.404 52.5842L126.384 52.5444L126.364 52.5046L126.354 52.4582L126.344 52.4251L126.335 52.4184L126.315 52.3787L126.295 52.3389L126.285 52.319L126.285 52.3057L126.275 52.2726L126.256 52.2195L126.236 52.193L126.216 52.1532L126.206 52.12L126.177 52.0736L126.157 52.047L126.137 52.0072L126.118 51.9675L126.098 51.9409L126.088 51.9343L126.078 51.9276L126.058 51.9011L126.019 51.848L125.999 51.8215L125.97 51.7883L125.95 51.7617L125.9 51.702L125.881 51.6755L125.871 51.6556L125.861 51.6357L125.841 51.6092L125.802 51.5693L125.792 51.5494L125.742 51.4897L125.723 51.4632L125.703 51.4366L125.683 51.4233L125.673 51.4167L125.653 51.3902L125.604 51.3437L125.584 51.3304L125.515 51.2707L125.495 51.2574L125.446 51.2109L125.416 51.191L125.357 51.1379L125.347 51.1312L125.278 51.0715L125.258 51.0582L125.228 51.0383L125.199 51.0183L125.179 51.0051L125.149 50.9851L125.129 50.9719L125.109 50.9579L109.623 40.5025Z" fill="url(#paint2_radial_2129_13224)"/>
</g>
<defs>
<linearGradient id="paint0_linear_2129_13224" x1="165" y1="141.84" x2="0" y2="141.84" gradientUnits="userSpaceOnUse">
<stop offset="0.246861" stop-color="#E6ECF0"/>
<stop offset="0.484375" stop-color="#C0D2DD"/>
<stop offset="0.725132" stop-color="#C1D0DB"/>
</linearGradient>
<linearGradient id="paint1_linear_2129_13224" x1="82.9628" y1="38.7288" x2="101.95" y2="38.6852" gradientUnits="userSpaceOnUse">
<stop stop-color="#263238" stop-opacity="0.2"/>
<stop offset="1" stop-color="#263238" stop-opacity="0.02"/>
</linearGradient>
<radialGradient id="paint2_radial_2129_13224" cx="0" cy="0" r="1" gradientUnits="userSpaceOnUse" gradientTransform="translate(40.0619 51.8115) rotate(-33.6901) scale(72.3194 66.8046)">
<stop stop-color="white" stop-opacity="0.1"/>
<stop offset="1" stop-color="white" stop-opacity="0"/>
</radialGradient>
<clipPath id="clip0_2129_13224">
<rect width="61" height="61" fill="white" transform="matrix(0.83205 -0.5547 0.830139 0.557556 32 50)"/>
</clipPath>
</defs>
</svg>
