<svg width="166" height="123" viewBox="0 0 166 123" fill="none" xmlns="http://www.w3.org/2000/svg">
<path d="M0.682983 54.1483H165.835V66.2547H165.746C166.276 69.9473 164.424 73.7613 160.194 76.5814L96.75 118.878C89.2416 123.883 77.082 123.862 69.5908 118.831L6.29223 76.317C2.17968 73.5548 0.32908 69.8568 0.738645 66.2547H0.682983V54.1483Z" fill="url(#paint0_linear_2129_13487)"/>
<path d="M6.29223 64.2105C-1.19895 59.1791 -1.18496 51.0425 6.32346 46.0369L69.7677 3.74071C77.2762 -1.26491 89.4357 -1.24401 96.9269 3.78737L160.225 46.3013C167.717 51.3327 167.703 59.4693 160.194 64.4749L96.75 106.771C89.2415 111.777 77.082 111.756 69.5908 106.724L6.29223 64.2105Z" fill="white"/>
<g clip-path="url(#clip0_2129_13487)">
<path d="M57.8771 70.4272C50.8588 65.7134 47.3479 63.3554 45.505 60.8051C42.1569 56.1678 42.1662 50.7604 45.5302 46.1346C47.3819 43.5907 50.9008 41.2447 57.9353 36.5551C64.9697 31.8654 68.4887 29.5195 72.2972 28.2899C79.2244 26.055 87.3019 26.0688 94.2213 28.3276C98.0256 29.5702 101.535 31.9272 108.555 36.642C115.575 41.3569 119.084 43.7139 120.927 46.2641C124.277 50.9026 124.267 56.3077 120.902 60.9346C119.05 63.4786 115.533 65.8234 108.497 70.5141C101.46 75.2049 97.9432 77.5497 94.1346 78.7793C87.2075 81.0143 79.13 81.0004 72.2105 78.7416C68.4062 77.499 64.897 75.1421 57.8771 70.4272Z" fill="#A7E92F"/>
<path fill-rule="evenodd" clip-rule="evenodd" d="M60.4051 50.95L60.3806 50.9663C60.0555 51.183 59.7758 51.3695 59.5799 51.5398C59.3719 51.7205 59.2144 51.9235 59.2139 52.1736C59.2135 52.4236 59.3702 52.6272 59.5777 52.8086C59.7712 52.9784 60.052 53.167 60.3764 53.3849L62.56 54.8515C62.8845 55.0694 63.1635 55.2568 63.4182 55.388C63.6921 55.5276 63.9923 55.6333 64.3659 55.6339C64.7397 55.6345 65.0436 55.5299 65.3144 55.3913C65.5679 55.2621 65.8494 55.0744 66.1745 54.8577L68.5223 53.2925C68.8474 53.0758 69.1271 52.8893 69.3229 52.719C69.531 52.5383 69.6885 52.3353 69.689 52.0852C69.6894 51.8352 69.5327 51.6316 69.3251 51.4501C69.1316 51.2804 68.8509 51.0918 68.5264 50.8739L66.3428 49.4073C66.0185 49.1894 65.7394 49.002 65.4846 48.8707C65.2107 48.7312 64.9106 48.6255 64.5369 48.6249C64.1632 48.6243 63.8592 48.7289 63.5884 48.8674C63.335 48.9967 63.0535 49.1844 62.7284 49.4011L60.4051 50.95ZM70.3725 57.6445L70.3481 57.6608C70.023 57.8776 69.7432 58.0641 69.5474 58.2344C69.3411 58.4162 69.1819 58.6181 69.1814 58.8682C69.1809 59.1181 69.3378 59.3218 69.5452 59.5032C69.7387 59.673 70.0196 59.8616 70.3439 60.0795L83.2869 68.7725C83.6112 68.9903 83.8903 69.1778 84.1451 69.3091C84.4189 69.4486 84.7192 69.5543 85.0928 69.5549C85.4665 69.5555 85.7705 69.4509 86.0413 69.3123C86.2947 69.1831 86.5762 68.9954 86.9013 68.7787L89.2491 67.2135C89.5742 66.9968 89.8539 66.8103 90.0498 66.64C90.2561 66.4581 90.4153 66.2563 90.4158 66.0062C90.4162 65.7562 90.2594 65.5526 90.0519 65.3712C89.8585 65.2014 89.5776 65.0127 89.2533 64.7949L76.3103 56.1019C75.986 55.884 75.7069 55.6966 75.4521 55.5653C75.1782 55.4258 74.878 55.3201 74.5044 55.3195C74.1307 55.3189 73.8267 55.4235 73.5559 55.562C73.3025 55.6913 73.0209 55.8789 72.6958 56.0957L70.3725 57.6445ZM70.691 44.0927L73.2747 42.3702C80.9366 37.2623 92.3895 37.1849 100.004 42.2993C107.619 47.4137 107.461 55.077 99.7988 60.185L97.2151 61.9074C96.89 62.1241 96.6103 62.3106 96.3552 62.4411C96.0809 62.5797 95.7802 62.6843 95.4067 62.6837C95.033 62.683 94.7293 62.5774 94.459 62.4379C94.206 62.3078 93.9251 62.1191 93.6008 61.9013L91.4695 60.4698C91.145 60.2519 90.866 60.0645 90.6708 59.8936C90.4616 59.711 90.3065 59.5085 90.3069 59.2585C90.3072 59.0084 90.4649 58.8054 90.6729 58.6246C90.867 58.4556 91.1485 58.2679 91.4736 58.0512L94.0573 56.3287C96.274 54.851 97.3666 53.0815 97.3661 51.3196C97.3673 49.5588 96.2722 47.7774 94.0397 46.278C91.8073 44.7786 89.1474 44.0404 86.5178 44.0335C83.8848 44.0266 81.2364 44.7511 79.0215 46.2277L76.4379 47.9501C76.1126 48.167 75.833 48.3534 75.5778 48.4838C75.3052 48.6235 75.0028 48.727 74.6293 48.7264C74.2557 48.7257 73.9519 48.62 73.6816 48.4805C73.4286 48.3504 73.1477 48.1618 72.8234 47.9439L70.6921 46.5125C70.3677 46.2946 70.0886 46.1072 69.8934 45.9362C69.6842 45.7536 69.5291 45.5512 69.5295 45.3012C69.5299 45.0511 69.6875 44.8481 69.8955 44.6673C70.0896 44.4983 70.371 44.3107 70.6962 44.0938L70.691 44.0927Z" fill="#1B1B1C"/>
</g>
<defs>
<linearGradient id="paint0_linear_2129_13487" x1="165.835" y1="141.4" x2="0.682983" y2="141.4" gradientUnits="userSpaceOnUse">
<stop offset="0.246861" stop-color="#E6ECF0"/>
<stop offset="0.484375" stop-color="#C0D2DD"/>
<stop offset="0.725132" stop-color="#C1D0DB"/>
</linearGradient>
<clipPath id="clip0_2129_13487">
<rect width="60.907" height="60.907" fill="white" transform="matrix(0.83205 -0.5547 0.830139 0.557556 32.5967 53.4478)"/>
</clipPath>
</defs>
</svg>
