<svg width="167" height="123" viewBox="0 0 167 123" fill="none" xmlns="http://www.w3.org/2000/svg">
<path d="M0.910645 54.1481H166.062V66.2546H165.974C166.504 69.9472 164.652 73.7612 160.422 76.5813L96.9776 118.877C89.4692 123.883 77.3096 123.862 69.8185 118.831L6.51989 76.3169C2.40735 73.5547 0.556741 69.8567 0.966306 66.2546H0.910645V54.1481Z" fill="url(#paint0_linear_2129_13340)"/>
<path d="M6.51989 64.2104C-0.971285 59.179 -0.957301 51.0424 6.55112 46.0368L69.9954 3.74059C77.5038 -1.26503 89.6634 -1.24414 97.1546 3.78725L160.453 46.3012C167.944 51.3326 167.93 59.4692 160.422 64.4748L96.9776 106.771C89.4692 111.777 77.3096 111.756 69.8185 106.724L6.51989 64.2104Z" fill="white"/>
<g clip-path="url(#clip0_2129_13340)">
<path d="M99.7637 51.344L104.924 47.9038L88.9592 36.6381L99.7637 51.344ZM97.293 73.6614L71.5937 31.6479L86.2627 21.8686L132.429 50.2375L119.731 58.7026L113.484 54.1965L105.773 59.3374L110.049 65.1577L97.293 73.6614Z" fill="#007535"/>
<path d="M62.9917 49.6916L71.5485 58.0769C73.288 56.8398 74.2166 55.6788 74.3346 54.4389C74.5104 53.2379 73.8177 51.9191 72.3724 50.4827C70.9848 49.0853 69.4804 48.3076 68.0329 48.1114C66.5854 47.9151 65.021 48.3387 63.5135 49.3437L62.9917 49.6916ZM78.3918 86.262L42.43 51.0901L57.4468 41.0789C62.5491 37.6774 67.5325 35.9808 72.3973 35.9892C77.3199 35.9589 81.4868 37.6712 84.898 40.9711C87.0373 43.0286 88.1338 45.2394 88.3036 47.5261C88.4733 49.8904 87.7162 52.3305 85.9743 54.9627L111.151 64.3454L97.2934 73.5835L77.4457 63.8999L91.4373 77.565L78.3918 86.262Z" fill="#90B823"/>
</g>
<defs>
<linearGradient id="paint0_linear_2129_13340" x1="166.063" y1="141.399" x2="0.910645" y2="141.399" gradientUnits="userSpaceOnUse">
<stop offset="0.246861" stop-color="#E6ECF0"/>
<stop offset="0.484375" stop-color="#C0D2DD"/>
<stop offset="0.725132" stop-color="#C1D0DB"/>
</linearGradient>
<clipPath id="clip0_2129_13340">
<rect width="64.9048" height="64.9048" fill="white" transform="matrix(0.83205 -0.5547 0.830139 0.557556 29.3657 53.2893)"/>
</clipPath>
</defs>
</svg>
