<svg width="165" height="123" viewBox="0 0 165 123" fill="none" xmlns="http://www.w3.org/2000/svg">
<path d="M0 54.3168H165V66.461H164.912C165.441 70.1651 163.591 73.9909 159.365 76.8198L95.9787 119.248C88.4772 124.269 76.3288 124.248 68.8445 119.201L5.60409 76.5546C1.49533 73.7838 -0.353578 70.0743 0.0556106 66.461H0V54.3168Z" fill="url(#paint0_linear_2129_13285)"/>
<path d="M5.60409 64.4104C-1.8802 59.3633 -1.86623 51.2014 5.63529 46.1802L69.0213 3.75224C76.5228 -1.26897 88.6712 -1.24801 96.1555 3.79905L159.396 46.4454C166.88 51.4925 166.866 59.6544 159.365 64.6756L95.9787 107.104C88.4772 112.125 76.3288 112.104 68.8445 107.057L5.60409 64.4104Z" fill="white"/>
<g clip-path="url(#clip0_2129_13285)">
<path d="M92.8453 26.8784L46.1114 58.0344C45.001 58.7746 45.0066 59.9831 46.1239 60.7335L80.2642 83.6636C81.3815 84.414 83.1874 84.4222 84.2978 83.682L131.032 52.526C132.142 51.7857 132.137 50.5773 131.019 49.8269L96.8789 26.8968C95.7616 26.1464 93.9557 26.1382 92.8453 26.8784Z" fill="#4989F5"/>
<path d="M92.2837 27.2529L46.6163 57.6978C45.2017 58.6409 55.0226 66.7103 56.4338 67.6581L107.296 68.3498L130.47 52.9004C131.885 51.9518 131.888 50.4155 130.476 49.4622L97.4214 27.2611C96.0018 26.3133 93.7063 26.3096 92.2837 27.2529V27.2529Z" fill="url(#paint1_linear_2129_13285)"/>
<path d="M62.3906 56.0694L76.5354 46.6395L57.4422 33.8157L45.4154 41.8336L62.3906 56.0694Z" fill="#3C4BA6"/>
<path d="M91.201 36.8625L76.5356 46.6395L57.4424 33.8157L69.9118 25.5027L91.201 36.8625ZM86.005 19.6177L86.0883 19.6493C86.0609 19.6368 86.0308 19.6284 86.005 19.6177Z" fill="#7BABF7"/>
<path d="M85.9374 19.7498L85.8544 19.718C83.2836 18.6055 79.9176 18.8341 77.7653 20.2671L69.9231 25.4952L91.1821 36.8751L105.657 27.225L85.9374 19.7498Z" fill="#3F51B5"/>
<path d="M35.8194 52.6748L35.8664 52.7306C35.8478 52.7123 35.8352 52.6921 35.8194 52.6748Z" fill="#7BABF7"/>
<path d="M36.3332 52.8046L36.2864 52.749C34.6424 51.027 35.0118 48.7712 37.1742 47.3278L45.0633 42.0684L61.918 56.3088L47.3572 66.016L36.3332 52.8046Z" fill="#7BABF7"/>
<path fill-rule="evenodd" clip-rule="evenodd" d="M61.94 56.2882C65.9429 58.9766 65.9302 63.3279 61.9116 66.007C57.893 68.686 51.3903 68.6784 47.3875 65.9899L61.94 56.2882Z" fill="#709BE0"/>
<path fill-rule="evenodd" clip-rule="evenodd" d="M76.4925 46.5862C80.4954 49.2747 80.4826 53.626 76.4641 56.3051C72.4455 58.9841 65.9428 58.9765 61.9399 56.288L76.4925 46.5862Z" fill="#3C4BA6"/>
<path fill-rule="evenodd" clip-rule="evenodd" d="M91.046 36.8848C95.0488 39.5733 95.0361 43.9246 91.0176 46.6037C86.999 49.2827 80.4963 49.275 76.4934 46.5865L91.046 36.8848Z" fill="#709BE0"/>
<path fill-rule="evenodd" clip-rule="evenodd" d="M105.596 27.1842C109.599 29.8726 109.586 34.2239 105.567 36.903C101.549 39.582 95.0461 39.5744 91.0432 36.8859L105.596 27.1842Z" fill="#3C4BA6"/>
<path d="M117.955 45.2235C117.584 45.0088 117.226 44.8256 116.763 44.5958L108.826 49.8874C109.932 50.63 111.138 51.4405 112.24 52.1865L116.838 49.121C117.256 49.5325 117.549 49.9951 117.698 50.4824C117.848 50.9696 117.853 51.4719 117.712 51.9604C117.712 51.9604 117.693 51.9476 117.689 51.9494C117.494 52.5718 117.107 53.1601 116.551 53.6761C116.007 54.2017 115.321 54.655 114.529 55.0129C113.714 55.3695 112.799 55.6103 111.84 55.7204C110.42 55.8803 108.962 55.7596 107.643 55.3729C107.541 55.3424 107.441 55.3101 107.339 55.2775L107.331 55.272L107.332 55.2636C105.913 54.7944 104.765 54.0247 104.067 53.074C103.578 52.4063 103.319 51.6739 103.309 50.9304C103.269 49.1761 104.698 47.554 107.011 46.727C107.901 46.4123 108.89 46.2422 109.896 46.2307L109.902 44.1586C109.901 43.7912 109.918 43.4227 109.897 43.056C108.379 43.0895 106.887 43.3225 105.504 43.7418C103.008 44.5192 100.985 45.8445 99.7703 47.4975C99.7279 47.555 99.6867 47.6128 99.6468 47.671C98.4019 49.4983 98.2263 51.5714 99.1545 53.4809C99.4839 54.1562 99.9481 54.7987 100.534 55.3908C104.005 58.898 110.951 59.9974 116.404 57.9024C118.185 57.2169 119.671 56.214 120.768 55.0539C121.766 54.0009 122.34 52.7933 122.435 51.5481C122.52 50.2398 122.006 48.9155 121.065 47.7712C120.264 46.8044 119.211 45.9415 117.955 45.2235Z" fill="white"/>
</g>
<defs>
<linearGradient id="paint0_linear_2129_13285" x1="165" y1="141.84" x2="0" y2="141.84" gradientUnits="userSpaceOnUse">
<stop offset="0.246861" stop-color="#E6ECF0"/>
<stop offset="0.484375" stop-color="#C0D2DD"/>
<stop offset="0.725132" stop-color="#C1D0DB"/>
</linearGradient>
<linearGradient id="paint1_linear_2129_13285" x1="63.1937" y1="72.1983" x2="94.6328" y2="25.3889" gradientUnits="userSpaceOnUse">
<stop offset="0.03" stop-color="#4079D8"/>
<stop offset="1" stop-color="#4989F5"/>
</linearGradient>
<clipPath id="clip0_2129_13285">
<rect width="70" height="70" fill="white" transform="matrix(0.83205 -0.5547 0.830139 0.557556 25 51)"/>
</clipPath>
</defs>
</svg>
