<svg width="166" height="123" viewBox="0 0 166 123" fill="none" xmlns="http://www.w3.org/2000/svg">
<path d="M0.37915 54.148H165.531V66.2545H165.443C165.972 69.9471 164.121 73.761 159.89 76.5812L96.4461 118.877C88.9377 123.883 76.7781 123.862 69.287 118.831L5.9884 76.3167C1.87585 73.5546 0.0252467 69.8566 0.434812 66.2545H0.37915V54.148Z" fill="url(#paint0_linear_2129_13477)"/>
<path d="M5.9884 64.2103C-1.50278 59.1789 -1.48879 51.0423 6.01963 46.0366L69.4639 3.74046C76.9723 -1.26515 89.1319 -1.24426 96.6231 3.78713L159.922 46.3011C167.413 51.3325 167.399 59.4691 159.89 64.4747L96.4461 106.771C88.9377 111.776 76.7781 111.756 69.287 106.724L5.9884 64.2103Z" fill="white"/>
<g clip-path="url(#clip0_2129_13477)">
<path fill-rule="evenodd" clip-rule="evenodd" d="M105.547 68.5183L101.186 57.5206L89.1278 65.5592L105.547 68.5183ZM83.9258 53.9968C81.7494 55.449 78.7997 56.2633 75.724 56.2608C72.6483 56.2584 69.698 55.4395 67.5206 53.9838C65.3533 52.5214 64.1405 50.5442 64.1483 48.4861C64.1561 46.428 65.3839 44.4572 67.5623 43.0063C69.7386 41.5541 72.6883 40.7398 75.764 40.7423C78.8397 40.7447 81.79 41.5636 83.9674 43.0193C86.1347 44.4817 87.3475 46.4589 87.3397 48.517C87.3319 50.5751 86.1041 52.5459 83.9258 53.9968M60.0926 37.9894C51.4175 43.7729 51.3823 53.1923 60.0129 58.9889C68.6435 64.7856 82.7202 64.7971 91.3954 59.0137C100.071 53.2302 100.106 43.8108 91.4751 38.0142C82.8445 32.2175 68.7659 32.2073 60.0926 37.9894Z" fill="#DF1B12"/>
</g>
<defs>
<linearGradient id="paint0_linear_2129_13477" x1="165.531" y1="141.399" x2="0.37915" y2="141.399" gradientUnits="userSpaceOnUse">
<stop offset="0.246861" stop-color="#E6ECF0"/>
<stop offset="0.484375" stop-color="#C0D2DD"/>
<stop offset="0.725132" stop-color="#C1D0DB"/>
</linearGradient>
<clipPath id="clip0_2129_13477">
<rect width="54.7548" height="54.7548" fill="white" transform="matrix(0.83205 -0.5547 0.830139 0.557556 37.3452 53.1541)"/>
</clipPath>
</defs>
</svg>
