<svg width="166" height="123" viewBox="0 0 166 123" fill="none" xmlns="http://www.w3.org/2000/svg">
<path d="M0.758789 54.1481H165.911V66.2546H165.822C166.352 69.9472 164.5 73.7612 160.27 76.5813L96.8258 118.877C89.3174 123.883 77.1578 123.862 69.6666 118.831L6.36804 76.3169C2.25549 73.5547 0.404885 69.8567 0.814451 66.2546H0.758789V54.1481Z" fill="url(#paint0_linear_2129_13336)"/>
<path d="M6.36804 64.2104C-1.12314 59.179 -1.10916 51.0424 6.39927 46.0368L69.8435 3.74059C77.352 -1.26503 89.5116 -1.24414 97.0027 3.78725L160.301 46.3012C167.792 51.3326 167.778 59.4692 160.27 64.4748L96.8258 106.771C89.3174 111.777 77.1578 111.756 69.6666 106.724L6.36804 64.2104Z" fill="white"/>
<g clip-path="url(#clip0_2129_13336)">
<path d="M65.6843 46.1508L82.0156 50.2068L93.0638 47.4302L79.9951 75.4579L81.2587 61.2198L52.6844 42.0281L37.5286 47.3801L80.0282 75.9247L99.6272 73.6476L111.381 42.7316L98.9567 34.3872L65.6843 46.1508Z" fill="#00897B"/>
</g>
<defs>
<linearGradient id="paint0_linear_2129_13336" x1="165.911" y1="141.399" x2="0.758789" y2="141.399" gradientUnits="userSpaceOnUse">
<stop offset="0.246861" stop-color="#E6ECF0"/>
<stop offset="0.484375" stop-color="#C0D2DD"/>
<stop offset="0.725132" stop-color="#C1D0DB"/>
</linearGradient>
<clipPath id="clip0_2129_13336">
<rect width="48.0127" height="60.907" fill="white" transform="matrix(0.83205 -0.5547 0.830139 0.557556 37.9902 47.0723)"/>
</clipPath>
</defs>
</svg>
