<svg width="166" height="123" viewBox="0 0 166 123" fill="none" xmlns="http://www.w3.org/2000/svg">
<path d="M0.165283 54.1481H165.317V66.2546H165.229C165.758 69.9472 163.907 73.7612 159.677 76.5813L96.2323 118.877C88.7239 123.883 76.5643 123.862 69.0731 118.831L5.77453 76.3169C1.66198 73.5547 -0.18862 69.8567 0.220945 66.2546H0.165283V54.1481Z" fill="url(#paint0_linear_2129_13420)"/>
<path d="M5.77453 64.2104C-1.71665 59.179 -1.70266 51.0424 5.80576 46.0368L69.25 3.74059C76.7585 -1.26503 88.918 -1.24414 96.4092 3.78725L159.708 46.3012C167.199 51.3326 167.185 59.4692 159.677 64.4748L96.2323 106.771C88.7238 111.777 76.5643 111.756 69.0731 106.724L5.77453 64.2104Z" fill="white"/>
<path d="M93.3526 67.3269C66.2075 73.2693 52.7328 60.6026 50.1893 52.6128C50.1864 54.3239 50.4676 56.0356 50.8907 57.8425C51.7392 60.1255 54.4282 66.1192 63.5143 69.7473C72.4581 73.4702 82.5451 73.3925 89.3659 72.4536C100.166 70.9511 107.559 67.3513 111.685 64.2213C117.944 59.4788 118.522 53.966 117.25 50.0662C116.401 47.7832 115.126 45.9747 114.558 45.4034C114.841 46.5446 119.929 61.3835 93.3526 67.3269Z" fill="#C93F1F"/>
<path d="M105.016 58.9812C104.732 59.1709 104.447 59.3605 104.163 59.7403C100.465 62.2056 95.0628 64.0976 90.7992 65.041C87.5305 65.7008 82.8411 66.3582 77.8696 65.8743C53.4376 63.7409 53.3277 45.013 55.4651 41.3091C54.8959 41.8785 54.1844 42.5427 53.4726 43.3971C51.9064 45.3908 50.338 48.7153 50.1892 52.6127C50.3301 53.2784 50.6129 54.0394 50.7539 54.7051C51.4601 57.083 54.1498 62.6964 62.8095 66.4188C71.6115 70.0464 81.4143 69.9682 87.951 69.0288C98.6085 67.6211 105.576 64.1157 109.701 60.9856C115.818 56.338 116.254 50.92 115.123 47.3056C114.982 46.6399 114.699 46.0691 114.416 45.4982C114.132 45.3076 114.132 45.1174 114.132 45.1174C113.707 44.6414 112.714 43.7841 112.573 43.4987C110.161 41.308 107.039 39.5915 104.2 38.2557C108.455 42.0656 114.406 51.3922 105.016 58.9812Z" fill="#F39200"/>
<path d="M92.133 34.7173C90.9968 34.5252 89.5765 34.3327 89.4346 34.2374C88.1561 34.1401 86.7358 33.9475 85.7415 33.8508C83.1846 33.6562 81.0515 34.8884 80.7644 36.5991C80.4773 38.3098 82.3217 39.7389 84.7364 40.0282C87.5774 40.2233 89.5657 40.6069 92.4057 41.3723C93.6839 41.6597 96.3817 42.5199 99.2207 43.8557C101.634 45.0957 106.175 47.7653 107.305 51.5699C107.729 52.8064 108.293 55.6593 105.447 58.5064C105.304 58.6012 105.162 58.8862 104.877 59.0758C105.304 58.7914 105.588 58.6017 106.015 58.3173C111.279 54.2385 111.855 49.4863 110.724 46.2521C109.876 43.779 108.174 41.8748 108.174 41.8748C107.749 41.3987 107.04 40.732 106.756 40.5414C105.905 39.7794 105.054 39.0174 103.918 38.4451C102.499 37.8723 101.363 37.2999 100.227 36.9177C97.6719 35.7726 94.8315 35.1973 92.133 34.7173Z" fill="#007DB0"/>
<path d="M73.7519 65.012C72.3319 64.6293 70.7699 64.1513 69.3503 63.5785C67.3626 62.8146 62.9633 60.0501 61.8336 56.0555C60.7046 51.6805 61.279 48.0691 68.1064 43.3275C70.3821 41.8104 70.9537 39.9101 68.9677 38.1955C66.9817 36.481 63.4305 36.1897 60.7287 37.611C59.7334 38.0846 58.8801 38.6535 58.0267 39.2224C58.0267 39.2224 56.8888 39.981 55.4659 41.3095C53.7565 43.9683 52.4705 48.244 54.0256 52.7148C54.7325 54.7123 56.8549 59.7544 64.8051 63.0003C69.2061 64.8141 73.7509 65.5824 78.0126 65.7799C76.5923 65.5873 75.1719 65.3947 73.7519 65.012Z" fill="#007DB0"/>
<defs>
<linearGradient id="paint0_linear_2129_13420" x1="165.317" y1="141.399" x2="0.165283" y2="141.399" gradientUnits="userSpaceOnUse">
<stop offset="0.246861" stop-color="#E6ECF0"/>
<stop offset="0.484375" stop-color="#C0D2DD"/>
<stop offset="0.725132" stop-color="#C1D0DB"/>
</linearGradient>
</defs>
</svg>
