<svg width="165" height="123" viewBox="0 0 165 123" fill="none" xmlns="http://www.w3.org/2000/svg">
<path d="M0 54.3168H165V66.461H164.912C165.441 70.1651 163.591 73.9909 159.365 76.8198L95.9787 119.248C88.4772 124.269 76.3288 124.248 68.8445 119.201L5.60409 76.5546C1.49533 73.7838 -0.353578 70.0743 0.0556106 66.461H0V54.3168Z" fill="url(#paint0_linear_2129_13269)"/>
<path d="M5.60409 64.4104C-1.8802 59.3633 -1.86623 51.2014 5.63529 46.1802L69.0213 3.75224C76.5228 -1.26897 88.6712 -1.24801 96.1555 3.79905L159.396 46.4454C166.88 51.4925 166.866 59.6544 159.365 64.6756L95.9787 107.104C88.4772 112.125 76.3288 112.104 68.8445 107.057L5.60409 64.4104Z" fill="white"/>
<g clip-path="url(#clip0_2129_13269)">
<path d="M112.612 36.4513C110.215 34.8419 108.276 33.7947 106.05 32.8521L79.1958 50.7546L90.011 58.0186L105.774 47.5102C108.144 49.5272 110.475 53.3898 109.382 57.759L109.69 58.0379L124.883 56.8789L125.531 56.5269C125.85 49.5107 121.484 42.4103 112.612 36.4513" fill="#4285F4"/>
<path d="M113.241 73.6081C121.04 68.4091 125.011 62.3145 125.35 56.1426L109.153 57.4619C108.42 60.2339 106.338 63.2164 102.038 66.0833C94.3993 71.1754 82.8623 72.1026 73.5653 68.9511L73.2554 69.1963L71.2612 79.7891L71.4698 80.0853C85.6844 83.2758 101.944 81.1394 113.241 73.6081Z" fill="#34A853"/>
<path d="M72.8287 68.7491C70.4436 67.965 68.1891 66.9242 66.2252 65.6051C64.2611 64.2859 62.7142 62.7736 61.5192 61.1962L61.1253 60.9532L45.1567 62.3376L44.9994 62.6281C46.902 66.5319 50.116 70.1974 54.7093 73.2824C59.3026 76.3674 64.7682 78.5316 70.595 79.8192L72.8287 68.7491" fill="#FBBC05"/>
<path d="M66.2245 42.1772C71.6251 38.5768 77.6182 37.7266 81.6594 37.6609L81.7922 26.8872C72.139 27.0752 62.7865 29.4757 55.0212 34.6526C43.7724 42.1517 40.5607 52.996 45.2961 62.506L61.8713 61.1933C57.2183 54.9458 58.619 47.2476 66.2245 42.1772" fill="#EB4335"/>
</g>
<defs>
<linearGradient id="paint0_linear_2129_13269" x1="165" y1="141.84" x2="0" y2="141.84" gradientUnits="userSpaceOnUse">
<stop offset="0.246861" stop-color="#E6ECF0"/>
<stop offset="0.484375" stop-color="#C0D2DD"/>
<stop offset="0.725132" stop-color="#C1D0DB"/>
</linearGradient>
<clipPath id="clip0_2129_13269">
<rect width="68" height="70" fill="white" transform="matrix(0.83205 -0.5547 0.830139 0.557556 26 54)"/>
</clipPath>
</defs>
</svg>
