<svg width="166" height="123" viewBox="0 0 166 123" fill="none" xmlns="http://www.w3.org/2000/svg">
<path d="M0.619385 54.1481H165.771V66.2546H165.683C166.212 69.9472 164.361 73.7612 160.131 76.5813L96.6864 118.877C89.178 123.883 77.0184 123.862 69.5272 118.831L6.22863 76.3169C2.11609 73.5547 0.265481 69.8567 0.675047 66.2546H0.619385V54.1481Z" fill="url(#paint0_linear_2129_13438)"/>
<path d="M6.22863 64.2104C-1.26254 59.179 -1.24856 51.0424 6.25986 46.0368L69.7041 3.74059C77.2126 -1.26503 89.3721 -1.24414 96.8633 3.78725L160.162 46.3012C167.653 51.3326 167.639 59.4692 160.131 64.4748L96.6864 106.771C89.178 111.777 77.0184 111.756 69.5272 106.724L6.22863 64.2104Z" fill="white"/>
<g clip-path="url(#clip0_2129_13438)">
<path d="M56.2324 70.2246L60.5107 67.3724L51.0898 57.8632L46.811 60.7158L56.2324 70.2246ZM45.6395 59.6135L49.9357 56.7494L47.1118 53.9078L42.8173 56.7708L45.6395 59.6135ZM65.4947 68.4928L69.7735 65.6402L59.641 55.3361L62.8499 53.1969L60.9516 51.2887L57.8043 53.3869L57.3901 52.9491C56.5626 52.155 55.7903 51.159 57.3945 50.0895C58.3463 49.455 59.2964 48.9009 60.6022 48.5857L58.5884 46.5962C57.2461 47.0233 56.0209 47.5985 54.9641 48.2976C51.5173 50.5955 51.1571 53.5338 53.4667 56.2787L51.9812 57.269L53.8772 59.1786L55.3627 58.1883L65.4947 68.4928Z" fill="#EA1D2C"/>
<path d="M75.9611 57.3899C81.0121 54.0226 79.9526 48.6186 76.2176 46.11C73.4312 44.2385 69.6898 45.1456 67.1942 46.8093C61.6662 50.4947 63.5608 55.8211 66.9377 58.0892C69.7242 59.9607 73.5249 59.014 75.9611 57.3899M89.511 48.3566C94.562 44.9893 93.5025 39.5853 89.7676 37.0767C86.9811 35.2053 83.1803 36.1519 80.6842 37.816C75.1579 41.5002 77.0486 46.8255 80.4283 49.0955C83.2147 50.9669 87.0749 49.9807 89.511 48.3566M104.783 37.8574L109.002 35.0447L95.6718 21.48L91.3934 24.3322L95.363 28.3509L93.4026 29.4201C89.243 32.1931 90.7755 38.312 94.5702 40.8607C96.1115 41.8959 98.6612 42.2595 100.387 41.1091C102.823 39.4849 103.36 37.5395 102.886 36.2685L103.124 36.1102L104.783 37.8574ZM100.424 52.5863C99.8485 56.6441 96.9235 60.388 92.2744 63.018C86.2729 66.5428 77.9038 66.3297 72.6259 63.7387L72.8633 63.5804C77.0197 64.6224 82.8344 64.3127 87.1118 62.0159C91.5055 59.7215 94.4245 55.3958 94.5482 52.0597L89.5023 52.4878L98.1188 46.7434L105.346 54.1452L100.54 52.588L100.424 52.5863Z" fill="#EA1D2C"/>
</g>
<defs>
<linearGradient id="paint0_linear_2129_13438" x1="165.771" y1="141.399" x2="0.619385" y2="141.399" gradientUnits="userSpaceOnUse">
<stop offset="0.246861" stop-color="#E6ECF0"/>
<stop offset="0.484375" stop-color="#C0D2DD"/>
<stop offset="0.725132" stop-color="#C1D0DB"/>
</linearGradient>
<clipPath id="clip0_2129_13438">
<rect width="67.5625" height="38.1863" fill="white" transform="matrix(0.83205 -0.5547 0.830139 0.557556 39.1833 58.7738)"/>
</clipPath>
</defs>
</svg>
