<svg width="165" height="123" viewBox="0 0 165 123" fill="none" xmlns="http://www.w3.org/2000/svg">
<path d="M0 54.3168H165V66.461H164.912C165.441 70.1651 163.591 73.9909 159.365 76.8198L95.9787 119.248C88.4772 124.269 76.3288 124.248 68.8445 119.201L5.60409 76.5546C1.49533 73.7838 -0.353578 70.0743 0.0556106 66.461H0V54.3168Z" fill="url(#paint0_linear_2129_13276)"/>
<path d="M5.60409 64.4104C-1.8802 59.3633 -1.86623 51.2014 5.63529 46.1802L69.0213 3.75224C76.5228 -1.26897 88.6712 -1.24801 96.1555 3.79905L159.396 46.4454C166.88 51.4925 166.866 59.6544 159.365 64.6756L95.9787 107.104C88.4772 112.125 76.3288 112.104 68.8445 107.057L5.60409 64.4104Z" fill="white"/>
<g clip-path="url(#clip0_2129_13276)">
<path d="M89.3562 59.5831L90.8895 69.9299C91.1052 71.3857 93.3782 72.286 95.3808 71.709L104.871 68.9745C106.919 68.3845 107.456 66.6094 105.917 65.52L95.0828 57.8505C92.8988 56.3044 89.0432 57.471 89.3562 59.5831Z" fill="#FC1E1E"/>
<path d="M79.8501 54.2456L65.4513 58.9844C63.4253 59.6512 62.8452 61.4097 64.3049 62.4593L71.2222 67.4332C72.7145 68.5063 75.4366 68.1969 76.5194 66.8312L84.1427 57.2168C85.6796 55.2788 82.7893 53.2783 79.8501 54.2456Z" fill="#FC1E1E"/>
<path d="M92.3577 47.4168L100.483 38.1857C101.626 36.887 100.604 35.2894 98.4627 35.0288L88.3167 33.7945C86.128 33.5283 84.0868 34.8148 84.3449 36.2981L86.1608 46.7412C86.5268 48.8464 90.6992 49.3012 92.3577 47.4168Z" fill="#FC1E1E"/>
<path d="M59.9511 35.2011C58.1819 33.8961 54.9949 34.1466 53.6535 35.6961L47.2969 43.039C45.9255 44.6231 47.2999 46.6101 49.9714 46.9058L76.8199 51.6125C77.0379 51.6507 77.2599 51.6805 77.4854 51.6917C80.6568 51.8483 82.7964 49.5804 81.4925 47.7914C81.2582 47.4701 80.9125 47.1917 80.5069 46.9597L59.9511 35.2011Z" fill="#FC1E1E"/>
<path d="M111.126 45.2393L96.769 50.3014C93.875 51.3217 94.5567 54.2182 97.7817 54.6033L113.58 56.4901C115.802 56.7556 117.761 55.4944 117.45 53.9981L115.975 46.9072C115.657 45.3774 113.165 44.5204 111.126 45.2393Z" fill="#FC1E1E"/>
</g>
<defs>
<linearGradient id="paint0_linear_2129_13276" x1="165" y1="141.84" x2="0" y2="141.84" gradientUnits="userSpaceOnUse">
<stop offset="0.246861" stop-color="#E6ECF0"/>
<stop offset="0.484375" stop-color="#C0D2DD"/>
<stop offset="0.725132" stop-color="#C1D0DB"/>
</linearGradient>
<clipPath id="clip0_2129_13276">
<rect width="61" height="61" fill="white" transform="matrix(0.83205 -0.5547 0.830139 0.557556 32 50)"/>
</clipPath>
</defs>
</svg>
