<svg width="166" height="123" viewBox="0 0 166 123" fill="none" xmlns="http://www.w3.org/2000/svg">
<path d="M0.0625 54.1481H165.214V66.2546H165.126C165.655 69.9472 163.804 73.7612 159.574 76.5813L96.1295 118.877C88.6211 123.883 76.4615 123.862 68.9703 118.831L5.67175 76.3169C1.5592 73.5547 -0.291404 69.8567 0.118162 66.2546H0.0625V54.1481Z" fill="url(#paint0_linear_2129_13346)"/>
<path d="M5.67175 64.2104C-1.81943 59.179 -1.80545 51.0424 5.70298 46.0368L69.1473 3.74059C76.6557 -1.26503 88.8153 -1.24414 96.3064 3.78725L159.605 46.3012C167.096 51.3326 167.082 59.4692 159.574 64.4748L96.1295 106.771C88.6211 111.777 76.4615 111.756 68.9703 106.724L5.67175 64.2104Z" fill="white"/>
<g clip-path="url(#clip0_2129_13346)">
<path d="M89.2505 73.5506L90.4812 73.2783C95.816 72.3807 100.682 70.5265 104.556 67.915C116.521 59.902 116.52 46.7151 104.556 38.6792C98.7734 34.7956 90.9187 32.6006 82.7323 32.5802C74.5089 32.5276 66.5936 34.6854 60.7734 38.5656C48.8361 46.5238 48.8149 59.6539 60.7234 67.6522C60.8176 67.7155 60.9104 67.7778 61.006 67.8402C65.0908 70.5356 70.1892 72.4409 75.7593 73.3536L77.1259 73.5389L82.9918 80.409L89.2504 73.5505L89.2505 73.5506Z" fill="#00E676"/>
<path d="M82.7106 29.3056C73.3076 29.2263 64.2544 31.7006 57.6294 36.1591L57.5869 36.1874C43.8789 45.3262 43.8531 60.4055 57.5297 69.5913C57.5938 69.6344 57.658 69.6757 57.7222 69.7188C62.1222 72.6049 67.5186 74.7194 73.4312 75.8741L82.8439 86.9579L92.6912 75.8249C98.361 74.7304 103.514 72.6795 107.656 69.8686C121.339 60.6457 121.3 45.5242 107.563 36.309C101 31.857 92.0493 29.3345 82.7106 29.3056ZM103.505 66.9711C99.82 69.4536 95.1895 71.2137 90.1141 72.0612L88.8834 72.3334L83.0353 78.9731L77.3055 72.3776L75.939 72.1923C70.6301 71.3478 65.7763 69.5295 61.9234 66.9418C50.561 59.3103 50.5825 46.7829 61.9711 39.1905C73.3596 31.5982 92.0809 31.6304 103.443 39.2618C110.598 44.067 113.548 51.0209 111.231 57.6181C110.068 61.1494 107.409 64.3806 103.573 66.9255M100.447 48.7272L98.2592 49.2723C98.2592 49.2723 95.1138 50.0901 93.0627 50.5439C92.9258 50.6351 92.6525 50.6347 92.5156 50.7259C92.1865 50.9564 91.9508 51.2393 91.8307 51.5479C91.7099 51.8569 91.8304 51.7309 92.099 54.4753C92.2244 54.7335 92.1173 55.0187 91.8244 55.2066L91.6876 55.2979C91.4475 55.4119 91.1617 55.4751 90.8671 55.4794L89.9098 55.7521C87.8215 56.3144 85.5985 56.6204 83.347 56.6556C82.8002 56.6546 82.1166 56.7449 81.5698 56.7439C79.5885 56.769 77.611 56.6117 75.6929 56.2765L75.283 56.1844C74.9972 56.1515 74.7207 56.0893 74.4632 56C74.1909 55.865 73.9977 55.6705 73.9174 55.4503C73.8371 55.2297 73.782 54.6268 73.783 54.078C73.784 53.5292 73.5109 53.3458 73.5115 52.9799C73.4573 52.7552 73.3318 52.5409 73.1435 52.3512C72.9552 52.1616 72.7084 52.001 72.4198 51.8804C70.0154 51.119 67.5527 50.4431 65.042 49.8555C64.4805 49.7729 63.8934 49.8373 63.4014 50.0356L61.896 51.0392C61.6223 51.2216 61.4852 51.4958 61.2114 51.6782L61.2111 51.8612C61.074 52.1353 61.0734 52.5012 60.9362 52.7754C60.799 53.0495 61.0718 53.4159 61.0712 53.7817C61.3207 55.2297 62.2797 56.5822 63.7984 57.6281C64.8954 58.3446 66.196 58.9067 67.6229 59.2811L68.1694 59.4649C72.0193 60.4062 76.1011 60.8478 80.1961 60.7661L81.2896 60.768C82.0171 60.7236 82.7493 60.7248 83.4766 60.7718C88.7738 60.5349 93.9166 59.4817 98.5044 57.6969C99.0515 57.5149 99.5989 57.1499 100.146 56.968L101.514 56.0556C102.194 55.5551 102.708 54.9637 103.021 54.3203C103.205 53.995 103.342 53.6587 103.433 53.3149L103.433 52.949C103.434 52.5831 103.571 52.309 103.572 51.9431C103.602 51.6051 103.556 51.266 103.437 50.9367C103.088 50.3507 102.631 49.7966 102.073 49.288L101.117 48.6461C100.884 48.654 100.654 48.6844 100.433 48.7363" fill="white"/>
</g>
<defs>
<linearGradient id="paint0_linear_2129_13346" x1="165.214" y1="141.399" x2="0.0625" y2="141.399" gradientUnits="userSpaceOnUse">
<stop offset="0.246861" stop-color="#E6ECF0"/>
<stop offset="0.484375" stop-color="#C0D2DD"/>
<stop offset="0.725132" stop-color="#C1D0DB"/>
</linearGradient>
<clipPath id="clip0_2129_13346">
<rect width="60.4335" height="60.907" fill="white" transform="matrix(0.83205 -0.5547 0.830139 0.557556 32.291 53.0237)"/>
</clipPath>
</defs>
</svg>
