<svg width="167" height="123" viewBox="0 0 167 123" fill="none" xmlns="http://www.w3.org/2000/svg">
<path d="M0.985352 54.1479H166.137V66.2544H166.049C166.578 69.9469 164.727 73.7609 160.497 76.5811L97.0523 118.877C89.5439 123.883 77.3843 123.862 69.8932 118.831L6.5946 76.3166C2.48205 73.5545 0.631448 69.8564 1.04101 66.2544H0.985352V54.1479Z" fill="url(#paint0_linear_2129_13496)"/>
<path d="M6.5946 64.2101C-0.896578 59.1787 -0.882594 51.0421 6.62583 46.0365L70.0701 3.74034C77.5785 -1.26527 89.7381 -1.24438 97.2293 3.78701L160.528 46.301C168.019 51.3324 168.005 59.469 160.497 64.4746L97.0523 106.771C89.5439 111.776 77.3843 111.755 69.8932 106.724L6.5946 64.2101Z" fill="white"/>
<g clip-path="url(#clip0_2129_13496)">
<path d="M88.2952 70.9417C92.1272 71.2577 95.9221 71.7516 99.6524 72.4199C103.042 73.1278 105.034 73.8118 108.562 75.0351C110.563 75.6763 111.478 75.6557 112.499 74.9752C113.611 74.2337 113.367 73.3939 112.597 72.3555C110.884 70.1212 109.594 68.4045 108.777 66.5143C107.231 62.844 106.554 59.1184 105.955 55.5027C105.756 54.4991 105.013 48.375 103.003 44.4923C103.003 44.4923 101.041 40.0624 95.0539 36.041C89.4532 32.2794 83.2753 31.1995 83.2753 31.1995L78.4364 36.7867L84.9639 46.5376L85.4248 48.175L85.4897 48.484L85.5554 48.8812L85.6186 49.5435L85.6169 50.4281L84.9485 54.7582L81.1637 64.1643L88.2952 70.9417V70.9417Z" fill="#34A853"/>
<path d="M65.9219 68.2475C73.0663 70.1299 81.6331 70.2604 88.3065 70.938L85.5609 48.8859C85.5609 48.8859 86.2093 52.1684 82.3505 54.7409C78.0523 57.6064 71.1554 57.6213 66.8373 54.7212C63.8762 52.7324 63.6275 50.1757 63.6275 50.1757L56.1177 58.8495L65.9217 68.2474L65.9219 68.2475Z" fill="#FBBC04"/>
<path d="M61.3778 32.4176C68.006 30.1578 75.6851 29.5709 83.2755 31.1943L85.5555 48.8759C85.5555 48.8759 85.2701 46.2946 82.3274 44.3181C77.9088 41.3504 70.8786 41.6195 66.8499 44.3054C63.0402 46.8451 63.6233 50.165 63.6233 50.165L54.5844 44.0941L61.3777 32.4175L61.3778 32.4176Z" fill="#4285F4"/>
<path d="M45.9918 51.1595C45.4116 46.7612 47.0003 40.7746 54.2665 35.9305C57.7918 33.5803 61.3712 32.4298 61.3712 32.4298L63.62 50.178L55.0236 55.9089L45.9919 51.1596L45.9918 51.1595Z" fill="#1A73E8"/>
<path d="M65.922 68.2474C65.922 68.2474 60.0008 66.9532 54.3269 63.1424C48.9643 59.5407 46.3663 54.9994 45.9914 51.1593L63.6277 50.1741L65.922 68.2474V68.2474Z" fill="#EA4335"/>
</g>
<defs>
<linearGradient id="paint0_linear_2129_13496" x1="166.137" y1="141.399" x2="0.985352" y2="141.399" gradientUnits="userSpaceOnUse">
<stop offset="0.246861" stop-color="#E6ECF0"/>
<stop offset="0.484375" stop-color="#C0D2DD"/>
<stop offset="0.725132" stop-color="#C1D0DB"/>
</linearGradient>
<clipPath id="clip0_2129_13496">
<rect width="48.9024" height="70.1061" fill="white" transform="matrix(0.83205 -0.5547 0.830139 0.557556 33.964 49.4656)"/>
</clipPath>
</defs>
</svg>
