<svg width="166" height="123" viewBox="0 0 166 123" fill="none" xmlns="http://www.w3.org/2000/svg">
<path d="M0.214233 54.1481H165.366V66.2546H165.278C165.807 69.9472 163.956 73.7612 159.726 76.5813L96.2812 118.877C88.7728 123.883 76.6132 123.862 69.122 118.831L5.82348 76.3169C1.71093 73.5547 -0.13967 69.8567 0.269895 66.2546H0.214233V54.1481Z" fill="url(#paint0_linear_2129_13351)"/>
<path d="M5.82348 64.2104C-1.6677 59.179 -1.65371 51.0424 5.85471 46.0368L69.299 3.74059C76.8074 -1.26503 88.967 -1.24414 96.4582 3.78725L159.757 46.3012C167.248 51.3326 167.234 59.4692 159.726 64.4748L96.2812 106.771C88.7728 111.777 76.6132 111.756 69.122 106.724L5.82348 64.2104Z" fill="white"/>
<g clip-path="url(#clip0_2129_13351)">
<path d="M82.7798 60.4722L100.68 72.4947L122.206 58.144C123.319 57.4021 124.227 56.5771 124.939 55.7004L82.7798 60.4722Z" fill="#E4E1DA"/>
<path d="M52.1008 63.9446L71.5531 77.0095C76.4034 80.2672 83.5866 80.9722 89.4415 79.1221L64.7178 62.5167L52.1008 63.9446Z" fill="#FFCCD5"/>
<path d="M40.1734 46.0305C38.1424 48.881 38.1393 52.2082 40.1638 55.0646L51.6828 53.7607L40.1734 46.0305Z" fill="#E4E1DA"/>
<path d="M50.1206 38.5356L69.7455 51.7165L124.798 45.4856C124.114 44.678 123.263 43.9155 122.234 43.2244L111.076 35.7306C104.982 39.7833 98.6996 41.7007 93.5918 42.6263C91.0323 43.0902 88.7663 43.3068 86.9676 43.426C85.1689 43.5453 83.7842 43.5781 83.2364 43.634C79.756 43.9892 74.8742 43.3768 69.7112 42.0092C64.5482 40.6415 59.1447 38.4952 54.8945 35.6406C54.8223 35.5921 54.7545 35.5425 54.6834 35.4938L50.1206 38.5356Z" fill="#9DDF7B"/>
<path d="M39.7312 54.3938C40.5003 55.7075 41.6752 56.9414 43.2637 58.0083L53.0192 64.5605L124.223 56.5015C127.733 52.9749 127.726 48.3636 124.2 44.8333L39.7312 54.3938Z" fill="#FCAB1A"/>
<path d="M40.1632 55.0645C40.9166 56.1271 41.9482 57.1249 43.2633 58.0082L52.1017 63.9444L124.942 55.7001C127.528 52.519 127.481 48.647 124.799 45.4852L40.1632 55.0645Z" fill="#FFD634"/>
<path opacity="0.125" d="M43.2909 43.0886C41.6529 44.1806 40.4531 45.4512 39.6815 46.8049L88.2851 79.4491C90.3109 78.9378 92.2142 78.1397 93.8522 77.0477L101.508 71.9438L50.9468 37.9847L43.2909 43.0886Z" fill="#052646"/>
<path d="M43.2889 43.0887C41.9672 43.9698 40.9299 44.967 40.1723 46.0302L89.4427 79.1223C91.0344 78.6193 92.5285 77.9288 93.8502 77.0477L100.68 72.4947L50.1185 38.5356L43.2889 43.0887Z" fill="white"/>
<path d="M54.6832 35.4938C54.7542 35.5425 54.822 35.5921 54.8942 35.6407C59.1444 38.4953 64.5479 40.6416 69.7109 42.0092C74.8739 43.3769 79.7557 43.9893 83.2362 43.634C83.7839 43.5781 85.1687 43.5453 86.9673 43.4261C88.766 43.3068 91.032 43.0902 93.5916 42.6264C98.6993 41.7008 104.982 39.7834 111.076 35.7306L109.525 34.6888C103.719 38.5493 97.826 40.3366 93.0154 41.2083C90.6045 41.6452 88.4658 41.8504 86.7468 41.9644C85.0278 42.0784 83.782 42.0903 82.9025 42.1801C80.1343 42.4627 75.4322 41.9457 70.5156 40.6433C65.599 39.3409 60.4284 37.2769 56.449 34.6041C56.3767 34.5556 56.3081 34.5065 56.2379 34.4573L54.6832 35.4938Z" fill="#90C36C"/>
<path d="M55.4587 34.9757C55.5294 35.0243 55.5972 35.0739 55.6693 35.1223C63.8989 40.6497 76.8186 43.545 83.0672 42.9071C85.9183 42.6161 98.3848 43.1318 110.298 35.2096L93.941 24.2233C87.7719 20.0799 77.828 20.0628 71.6447 24.185L55.4587 34.9757Z" fill="#F4EFEB"/>
<path d="M66.1675 27.8367C71.5665 31.2808 76.5345 32.8486 82.8204 32.7252C85.833 32.666 88.6059 32.5063 91.6768 31.602C94.0411 30.9057 96.5493 29.7851 99.552 27.9912L97.7693 26.7939C94.9521 28.467 92.6862 29.4607 90.6572 30.0582C87.9889 30.844 85.6703 30.9824 82.7411 31.0399C77.1021 31.1506 73.0247 29.8981 67.9495 26.6487L66.1675 27.8367Z" fill="#90C36C"/>
<path d="M67.0591 27.2429C72.2968 30.5897 76.8192 31.9995 82.7811 31.8824C88.0255 31.7794 91.9481 31.392 98.6616 27.3928L93.9424 24.2232C87.7734 20.0798 77.8294 20.0627 71.6462 24.1849L67.0591 27.2429Z" fill="#9DDF7B"/>
<path d="M43.2896 43.0884C42.7678 43.4363 42.2939 43.8033 41.8601 44.1842L63.4924 58.7134C64.1224 57.7952 64.9912 56.9595 66.0585 56.2451C67.0875 55.5641 68.2825 55.0055 69.5924 54.5933L47.8933 40.0193L43.2896 43.0884Z" fill="#3394E3"/>
<path d="M102.335 46.6311C102.195 46.7303 102.097 46.8533 102.053 46.9865C101.589 48.3854 100.549 49.6568 99.0481 50.6602C97.9542 51.3884 96.6424 51.9564 95.195 52.3297C94.6333 52.4748 94.3389 52.9004 94.5345 53.2818C95.2192 54.6161 96.3464 55.8304 97.8302 56.8332L97.8329 56.835C103.278 60.4911 112.148 60.507 117.605 56.869C123.062 53.2307 123.073 47.294 117.628 43.6369C117.627 43.6366 117.627 43.6362 117.626 43.6358C116.132 42.6356 114.319 41.8748 112.324 41.4102C111.753 41.2777 111.115 41.4759 110.897 41.8521C110.338 42.8197 109.488 43.6951 108.399 44.426C106.897 45.4196 105 46.1071 102.917 46.4111C102.806 46.4273 102.724 46.4837 102.626 46.5207C102.515 46.5369 102.413 46.5754 102.335 46.6311L102.335 46.6311Z" fill="#0078D9"/>
<path d="M102.748 46.8914C102.678 46.9411 102.629 47.0024 102.607 47.069C102.12 48.538 101.026 49.8744 99.4476 50.929C98.298 51.6943 96.9215 52.2913 95.4013 52.6834C95.2648 52.7186 95.1541 52.7879 95.0924 52.8766C95.0307 52.9654 95.0228 53.0667 95.0703 53.1594C95.7272 54.4397 96.808 55.6044 98.2317 56.5666C98.2323 56.567 98.2328 56.5674 98.2333 56.5677C103.462 60.0794 111.966 60.094 117.206 56.6003C122.447 53.1066 122.456 47.4163 117.228 43.9046C117.228 43.9044 117.227 43.9043 117.227 43.9041C115.794 42.9444 114.054 42.2146 112.14 41.7688C112.001 41.7366 111.849 41.7416 111.716 41.7827C111.583 41.8239 111.48 41.8979 111.427 41.9893C110.838 43.0066 109.944 43.9274 108.798 44.6959C107.219 45.7402 105.226 46.4624 103.039 46.7816C102.928 46.7978 102.826 46.8362 102.748 46.8917L102.748 46.8914Z" fill="white"/>
<path d="M103.158 47.1514C102.648 48.6903 101.5 50.0919 99.8451 51.1977C98.6397 52.0001 97.1966 52.6258 95.6037 53.0367C96.0105 53.8258 96.5868 54.5712 97.3143 55.2495L115.255 43.2894C114.244 42.7963 113.131 42.4045 111.952 42.1262C111.335 43.1925 110.398 44.1581 109.195 44.9641C107.54 46.0596 105.449 46.817 103.158 47.1514Z" fill="#DE1C25"/>
<path d="M97.8743 55.7233C98.1145 55.9231 98.368 56.1156 98.6338 56.3002C101.041 57.9169 104.308 58.8284 107.716 58.8343C111.124 58.8401 114.394 57.9398 116.806 56.3315C118.001 55.5351 118.949 54.5888 119.597 53.5467C120.244 52.5046 120.578 51.387 120.58 50.2579C120.582 49.1287 120.252 48.01 119.608 46.9657C118.964 45.9214 118.019 44.9719 116.827 44.1714C116.555 43.9911 116.271 43.8191 115.976 43.6557L97.8743 55.7233Z" fill="#0078D9"/>
<path d="M109.561 54.9701L110.446 55.5649L106.699 58.0629C106.405 57.811 106.21 57.5172 106.114 57.1814C106.016 56.844 106.019 56.3095 106.122 55.5778C106.203 54.9876 106.227 54.6083 106.194 54.4399C106.144 54.2097 106.023 54.03 105.831 53.9008C105.618 53.758 105.391 53.6917 105.148 53.702C104.906 53.709 104.672 53.7878 104.447 53.9383C104.223 54.0871 104.106 54.2457 104.094 54.4141C104.082 54.5825 104.205 54.767 104.463 54.9674L103.303 55.6137C102.841 55.2189 102.664 54.8332 102.77 54.4566C102.876 54.08 103.18 53.7243 103.683 53.3895C104.233 53.0226 104.798 52.8232 105.377 52.7914C105.956 52.7595 106.442 52.8757 106.836 53.1401C107.06 53.2905 107.228 53.4645 107.34 53.6621C107.453 53.8565 107.522 54.0932 107.549 54.3723C107.566 54.5573 107.545 54.8549 107.483 55.2651C107.422 55.6754 107.391 55.9413 107.39 56.0629C107.392 56.1829 107.408 56.2903 107.438 56.3852L109.561 54.9701Z" fill="white"/>
<path d="M109.405 52.6668C109.025 52.7812 108.681 52.8198 108.373 52.7828C108.065 52.7426 107.803 52.6496 107.586 52.5037C107.215 52.2545 107.053 51.9523 107.1 51.597C107.15 51.24 107.442 50.8831 107.977 50.5264C108.507 50.173 109.039 49.9804 109.573 49.9486C110.109 49.915 110.562 50.0228 110.933 50.272C111.164 50.427 111.303 50.61 111.349 50.8212C111.394 51.0308 111.342 51.2487 111.193 51.4748C111.613 51.343 112.01 51.2952 112.382 51.3315C112.757 51.3662 113.084 51.4769 113.362 51.6638C113.821 51.9722 114.03 52.3328 113.987 52.7455C113.947 53.1566 113.655 53.5439 113.109 53.9074C112.602 54.2455 112.061 54.4472 111.486 54.5126C110.808 54.5896 110.224 54.4641 109.735 54.1359C109.466 53.9551 109.295 53.7396 109.22 53.4894C109.144 53.2377 109.205 52.9635 109.405 52.6668V52.6668ZM108.666 51.8747C108.856 52.0023 109.063 52.0621 109.289 52.0541C109.517 52.0443 109.731 51.9727 109.931 51.8391C110.134 51.7038 110.244 51.5599 110.259 51.4074C110.272 51.2533 110.184 51.1124 109.994 50.9848C109.815 50.8648 109.612 50.8096 109.383 50.8194C109.156 50.8259 108.943 50.8951 108.745 51.027C108.54 51.1639 108.43 51.3095 108.417 51.4635C108.404 51.6176 108.487 51.7547 108.666 51.8747V51.8747ZM110.698 53.3719C110.96 53.5481 111.24 53.6357 111.536 53.6347C111.835 53.632 112.098 53.5555 112.324 53.405C112.544 53.2579 112.657 53.0891 112.661 52.8985C112.663 52.7064 112.531 52.5207 112.264 52.3415C112.031 52.185 111.77 52.1086 111.483 52.1125C111.194 52.1149 110.936 52.1913 110.71 52.3417C110.449 52.5159 110.334 52.7 110.365 52.8941C110.399 53.0865 110.51 53.2458 110.698 53.3719V53.3719Z" fill="white"/>
<path d="M112.322 47.6301C112.862 47.27 113.456 47.104 114.104 47.132C114.874 47.1637 115.731 47.4964 116.674 48.1299C117.615 48.762 118.109 49.338 118.156 49.858C118.193 50.2871 117.942 50.6817 117.402 51.0418C116.859 51.4036 116.236 51.5707 115.533 51.543C114.827 51.5138 113.997 51.1786 113.043 50.5374C112.106 49.9084 111.615 49.3339 111.568 48.8139C111.53 48.3848 111.782 47.9902 112.322 47.6301ZM113.113 48.1611C112.983 48.2474 112.905 48.3494 112.878 48.4671C112.849 48.5834 112.902 48.7239 113.036 48.8887C113.209 49.1034 113.587 49.4067 114.171 49.7987C114.755 50.1906 115.189 50.4384 115.475 50.5418C115.758 50.6437 115.985 50.686 116.156 50.6686C116.33 50.6496 116.482 50.597 116.611 50.5108C116.74 50.4246 116.819 50.3233 116.849 50.2071C116.875 50.0893 116.822 49.948 116.687 49.7832C116.517 49.5701 116.139 49.2675 115.556 48.8755C114.972 48.4835 114.539 48.2366 114.256 48.1347C113.97 48.0313 113.741 47.9891 113.567 48.0081C113.393 48.0239 113.242 48.0749 113.113 48.1611V48.1611Z" fill="white"/>
<path d="M84.0782 68.3476C89.0655 65.0227 89.0748 59.6182 84.0989 56.2762C79.1231 52.9342 71.0464 52.9203 66.0591 56.2452C61.0718 59.57 61.0625 64.9746 66.0384 68.3166C71.0142 71.6586 79.0909 71.6725 84.0782 68.3476Z" fill="#0179DA"/>
<path d="M69.4393 58.5683C69.4335 58.5726 69.4292 58.578 69.4237 58.5827C69.409 58.5946 69.3962 58.6072 69.3833 58.6202C69.3647 58.6388 69.3463 58.6571 69.331 58.6768C69.3272 58.6814 69.3224 58.6846 69.3198 58.6893C69.315 58.6966 69.3119 58.7038 69.3075 58.7112C69.2935 58.7328 69.2813 58.7545 69.2714 58.7771C69.2649 58.7917 69.26 58.8062 69.2556 58.821C69.25 58.839 69.2455 58.8567 69.2428 58.8749C69.2398 58.8941 69.2386 58.913 69.2387 58.9321C69.2389 58.9479 69.2399 58.9636 69.2422 58.9794C69.2449 59 69.2498 59.02 69.2559 59.04C69.2603 59.0541 69.2648 59.068 69.2709 59.0819C69.2803 59.1039 69.2925 59.1252 69.306 59.1462C69.3111 59.1538 69.3131 59.1618 69.3186 59.1696L70.8718 61.3144C70.8726 61.318 70.8749 61.3205 70.8767 61.3238L72.039 62.9284L72.8245 64.0134L72.8249 64.0136L75.8379 68.1732C75.9521 68.3776 76.2411 68.5246 76.5879 68.5296C76.7834 68.5324 76.9616 68.4878 77.1046 68.4141C77.1047 68.4141 77.1073 68.4128 77.1073 68.4128C77.1449 68.3928 77.1801 68.3714 77.2125 68.3478C77.222 68.3409 77.2304 68.3338 77.2394 68.3267C77.2615 68.309 77.2817 68.2904 77.3001 68.2705C77.3119 68.2575 77.323 68.2446 77.3334 68.2314C77.3458 68.2149 77.3575 68.1988 77.3675 68.1816C77.379 68.1625 77.3882 68.143 77.3965 68.1232C77.4011 68.1119 77.4058 68.1005 77.4093 68.0888C77.4182 68.0602 77.4226 68.0314 77.4245 68.002C77.4245 67.999 77.426 67.9959 77.4267 67.9924L77.4284 67.9495L77.4269 67.9485L77.5473 63.9616L83.5058 63.8959C83.5119 63.8959 83.5173 63.8954 83.5232 63.8959L83.5719 63.8952C83.5764 63.8952 83.5811 63.8942 83.5863 63.8937C83.6302 63.8925 83.6734 63.8897 83.716 63.8839C83.7335 63.8815 83.7503 63.8785 83.7675 63.8755C83.7971 63.8701 83.8263 63.8639 83.8549 63.8563C83.8806 63.8496 83.905 63.8419 83.9294 63.8337C83.9491 63.8266 83.9688 63.8195 83.9879 63.8115C84.017 63.7993 84.0447 63.7861 84.0713 63.7717C84.0822 63.7655 84.0935 63.76 84.1037 63.7532C84.1392 63.7316 84.172 63.7085 84.2013 63.6831C84.2012 63.683 84.2032 63.6813 84.2032 63.6813C84.3139 63.5858 84.3813 63.4668 84.3778 63.336C84.3716 63.1039 84.1529 62.91 83.8479 62.8328L73.6301 59.4878C73.6278 59.4863 73.6232 59.4863 73.6202 59.4852L70.4175 58.4368C70.405 58.4326 70.3913 58.431 70.3784 58.4275C70.3493 58.4191 70.3198 58.4115 70.2894 58.4054C70.2672 58.401 70.245 58.3975 70.2226 58.3944C70.1931 58.3904 70.1639 58.3871 70.134 58.3852C70.109 58.3837 70.0845 58.3831 70.0597 58.383C70.0332 58.3829 70.0068 58.3836 69.9801 58.3853C69.951 58.3871 69.9225 58.3903 69.8939 58.3941C69.8725 58.3971 69.8515 58.4002 69.8303 58.4044C69.7969 58.4108 69.7648 58.4189 69.733 58.428C69.722 58.4312 69.7103 58.4326 69.6994 58.4362C69.6925 58.4388 69.6871 58.4413 69.6805 58.4436C69.6513 58.4539 69.6236 58.4656 69.5962 58.4782C69.5769 58.487 69.5579 58.4955 69.5401 58.5051C69.5195 58.5168 69.4994 58.5291 69.4799 58.5421C69.4669 58.5507 69.4514 58.5581 69.4392 58.5672L69.4393 58.5683Z" fill="white"/>
<path opacity="0.24" d="M124.796 45.4853C124.831 45.5275 124.867 45.5698 124.902 45.6122C124.867 45.5698 124.834 45.5271 124.798 45.4851L124.796 45.4853Z" fill="#052646"/>
<path opacity="0.24" d="M124.902 45.6115C124.938 45.6553 124.975 45.6988 125.01 45.7429C124.975 45.699 124.938 45.6553 124.902 45.6115Z" fill="#052646"/>
<path opacity="0.24" d="M125.009 45.7424C125.099 45.8563 125.187 45.9706 125.271 46.0861C125.187 45.9706 125.099 45.8562 125.009 45.7424Z" fill="#052646"/>
<path opacity="0.24" d="M42.7649 43.4578C42.709 43.4991 42.6555 43.5411 42.6006 43.5827C42.6554 43.541 42.7088 43.4989 42.7649 43.4578Z" fill="#052646"/>
<path opacity="0.24" d="M42.2806 43.83C42.2084 43.8883 42.1381 43.9472 42.0679 44.0061C42.1381 43.9472 42.2083 43.8882 42.2806 43.83Z" fill="#052646"/>
<path opacity="0.24" d="M41.825 44.2159C41.7532 44.2794 41.6824 44.3431 41.6131 44.4074C41.6824 44.3431 41.7533 44.2794 41.825 44.2159Z" fill="#052646"/>
<path opacity="0.24" d="M41.3971 44.6123C41.3267 44.6809 41.2568 44.7496 41.1892 44.8192C41.2567 44.7497 41.3269 44.6809 41.3971 44.6123Z" fill="#052646"/>
<path opacity="0.24" d="M41.0105 45.0078C40.9397 45.0839 40.8681 45.16 40.8005 45.2371C40.8681 45.1599 40.9397 45.084 41.0105 45.0078Z" fill="#052646"/>
<path opacity="0.24" d="M40.1746 55.077C40.264 55.2027 40.3575 55.3274 40.4547 55.4512C40.3575 55.3274 40.264 55.2027 40.1746 55.077Z" fill="#052646"/>
<path opacity="0.24" d="M40.4692 55.4719C40.5629 55.5904 40.66 55.708 40.7609 55.8246C40.6601 55.708 40.5628 55.5904 40.4692 55.4719Z" fill="#052646"/>
<path opacity="0.24" d="M40.803 55.8721C40.8971 55.9796 40.9944 56.0862 41.0947 56.192C40.9944 56.0862 40.897 55.9797 40.803 55.8721Z" fill="#052646"/>
<path opacity="0.24" d="M41.16 56.2609C41.2537 56.3579 41.3504 56.4541 41.4493 56.5496C41.3505 56.4541 41.2535 56.3579 41.16 56.2609Z" fill="#052646"/>
<path opacity="0.24" d="M41.5349 56.632C41.6361 56.7277 41.7406 56.8224 41.8472 56.9165C41.7407 56.8224 41.636 56.7278 41.5349 56.632Z" fill="#052646"/>
<path opacity="0.24" d="M41.9267 56.9883C42.0347 57.082 42.1463 57.1743 42.2596 57.266C42.1464 57.1742 42.0347 57.082 41.9267 56.9883Z" fill="#052646"/>
<path opacity="0.24" d="M42.3509 57.34C42.4575 57.4249 42.5676 57.5087 42.6791 57.5917C42.5676 57.5086 42.4575 57.425 42.3509 57.34Z" fill="#052646"/>
<path opacity="0.24" d="M42.8028 57.6843C42.9534 57.7936 43.1065 57.9021 43.2649 58.0085C43.1066 57.9021 42.9529 57.7938 42.8028 57.6843Z" fill="#052646"/>
<path opacity="0.24" d="M124.938 55.7003L124.942 55.6998C125.017 55.6076 125.09 55.5145 125.161 55.4211C125.09 55.5147 125.015 55.6075 124.939 55.7001L124.938 55.7003Z" fill="#052646"/>
<path opacity="0.24" d="M126.736 51.9257C126.699 52.1315 126.654 52.3367 126.599 52.541C126.654 52.3367 126.699 52.1315 126.736 51.9257Z" fill="#052646"/>
<path opacity="0.24" d="M126.594 52.5627C126.567 52.6634 126.537 52.7639 126.505 52.8642C126.537 52.7639 126.567 52.6635 126.594 52.5627Z" fill="#052646"/>
<path opacity="0.24" d="M126.485 52.9271C126.421 53.1219 126.349 53.3159 126.269 53.5086C126.349 53.3158 126.421 53.122 126.485 52.9271Z" fill="#052646"/>
<path opacity="0.24" d="M126.259 53.5341C126.215 53.6373 126.17 53.74 126.121 53.8424C126.17 53.74 126.215 53.6373 126.259 53.5341Z" fill="#052646"/>
<path opacity="0.24" d="M126.112 53.8635C126.021 54.0562 125.921 54.2476 125.812 54.4372C125.921 54.2476 126.021 54.0562 126.112 53.8635Z" fill="#052646"/>
<path opacity="0.24" d="M90.6313 78.7043C90.7468 78.6594 90.8607 78.6118 90.9748 78.5647C90.8606 78.6117 90.7468 78.6594 90.6313 78.7043Z" fill="#052646"/>
<path opacity="0.24" d="M91.2565 78.4465C91.3605 78.4015 91.4635 78.355 91.5664 78.3082C91.4636 78.3549 91.3605 78.4016 91.2565 78.4465Z" fill="#052646"/>
<path opacity="0.24" d="M91.8735 78.1653C91.9699 78.1191 92.0653 78.072 92.1605 78.0242C92.0654 78.072 91.97 78.1192 91.8735 78.1653Z" fill="#052646"/>
<path opacity="0.24" d="M92.4752 77.8624C92.5636 77.8157 92.6519 77.769 92.7392 77.7208C92.6519 77.7688 92.5636 77.8158 92.4752 77.8624Z" fill="#052646"/>
<path opacity="0.24" d="M93.1108 77.5078C93.1733 77.4713 93.2364 77.4357 93.2981 77.3983C93.2361 77.4356 93.1732 77.4712 93.1108 77.5078Z" fill="#052646"/>
</g>
<defs>
<linearGradient id="paint0_linear_2129_13351" x1="165.366" y1="141.399" x2="0.214233" y2="141.399" gradientUnits="userSpaceOnUse">
<stop offset="0.246861" stop-color="#E6ECF0"/>
<stop offset="0.484375" stop-color="#C0D2DD"/>
<stop offset="0.725132" stop-color="#C1D0DB"/>
</linearGradient>
<clipPath id="clip0_2129_13351">
<rect width="60.907" height="60.907" fill="white" transform="matrix(0.83205 -0.5547 0.830139 0.557556 32.1294 50.5295)"/>
</clipPath>
</defs>
</svg>
