<svg width="166" height="123" viewBox="0 0 166 123" fill="none" xmlns="http://www.w3.org/2000/svg">
<path d="M0.606689 54.148H165.758V66.2545H165.67C166.2 69.9471 164.348 73.761 160.118 76.5812L96.6737 118.877C89.1653 123.883 77.0057 123.862 69.5145 118.831L6.21594 76.3167C2.10339 73.5546 0.252786 69.8566 0.662351 66.2545H0.606689V54.148Z" fill="url(#paint0_linear_2129_13327)"/>
<path d="M6.21594 64.2103C-1.27524 59.1789 -1.26126 51.0423 6.24717 46.0366L69.6914 3.74046C77.1999 -1.26515 89.3595 -1.24426 96.8506 3.78713L160.149 46.3011C167.64 51.3325 167.626 59.4691 160.118 64.4747L96.6737 106.771C89.1653 111.776 77.0057 111.756 69.5145 106.724L6.21594 64.2103Z" fill="white"/>
<g clip-path="url(#clip0_2129_13327)">
<path d="M97.9111 29.2333C95.0996 27.5077 92.8234 26.5622 90.5972 25.8945C88.2902 25.213 86.0129 24.8365 83.2086 24.8385C80.4043 24.8404 78.1156 25.1888 75.8163 25.8691C73.5778 26.5223 71.3085 27.4669 68.4911 29.1827C65.6635 30.9053 64.7717 31.4593 57.8998 36.0406C51.0177 40.6286 50.1865 41.2233 47.6118 43.1022C45.0371 44.9811 43.6273 46.5029 42.6326 47.9916C41.6074 49.5411 41.048 51.0644 41.0549 52.941C41.0618 54.8175 41.5856 56.3494 42.6055 57.889C43.595 59.3811 44.9996 60.9077 47.5679 62.7954C50.1462 64.6899 50.9754 65.2875 57.8315 69.8923C64.6977 74.504 65.5876 75.061 68.3991 76.7866C71.2106 78.5121 73.4869 79.4577 75.713 80.1254C78.0201 80.8068 80.2973 81.1833 83.1016 81.1813C85.906 81.1929 88.1946 80.831 90.4939 80.1508C92.7324 79.4975 95.0018 78.553 97.8192 76.8371C100.647 75.1145 101.539 74.5605 108.41 69.9793C115.293 65.3912 116.124 64.7965 118.698 62.9176C121.273 61.0388 122.683 59.5169 123.678 58.0283C124.693 56.4854 125.252 54.9622 125.245 53.0856C125.238 51.2091 124.715 49.6772 123.695 48.1376C122.715 46.6388 121.3 45.1189 118.732 43.2312C116.154 41.3367 115.325 40.7391 108.469 36.1342C101.613 31.5294 100.723 30.9588 97.9111 29.2333ZM113.989 46.1225C116.345 47.854 117.275 49.0344 117.81 49.855C118.527 50.9469 118.819 51.8891 118.817 53.0814C118.814 54.2737 118.509 55.1944 117.799 56.3042C117.25 57.1298 116.317 58.3069 113.965 60.0236C111.421 61.8822 110.651 62.4364 103.88 66.9501C97.1096 71.4638 96.2786 71.9772 93.4916 73.6728C90.9073 75.2468 89.1446 75.867 87.919 76.224C86.2883 76.7021 84.8807 76.8962 83.0989 76.8931C81.3171 76.8901 79.9406 76.6845 78.2811 76.2074C77.0466 75.8395 75.2861 75.2132 72.7173 73.6371C69.9362 71.9319 69.1069 71.4156 62.3519 66.8787C55.5969 62.3418 54.8285 61.785 52.2906 59.9176C49.9347 58.1861 49.0053 57.0057 48.4701 56.1851C47.7532 55.0932 47.4612 54.1511 47.4633 52.9588C47.4653 51.7665 47.7706 50.8457 48.4812 49.7359C49.0293 48.9103 49.9628 47.7332 52.3145 46.0165C54.8588 44.1579 55.6291 43.6037 62.3997 39.09C69.1702 34.5763 70.0013 34.0629 72.7882 32.3673C75.3726 30.7933 77.1352 30.1731 78.3608 29.8162C79.9916 29.338 81.3991 29.1439 83.1809 29.147C84.9627 29.1501 86.3392 29.3557 87.9987 29.8327C89.2332 30.2007 90.9937 30.8269 93.5625 32.403C96.3436 34.1082 97.1729 34.6245 103.928 39.1614C110.683 43.6983 111.441 44.2619 113.989 46.1225Z" fill="url(#paint1_linear_2129_13327)"/>
<path d="M70.1554 44.2994C62.9592 49.0969 62.9559 56.8808 70.1255 61.6962C77.3052 66.5183 88.9376 66.5316 96.1237 61.7408C103.31 56.9501 103.313 49.1527 96.1536 44.3441C88.9739 39.5219 77.3516 39.502 70.1554 44.2994ZM91.563 58.6777C86.9007 61.7859 79.3483 61.773 74.6966 58.6487C70.045 55.5245 70.0537 50.4708 74.716 47.3626C79.3784 44.2543 86.9308 44.2673 91.5824 47.3915C96.2341 50.5158 96.2254 55.5695 91.563 58.6777Z" fill="url(#paint2_linear_2129_13327)"/>
<path d="M86.2035 36.9834C87.8828 35.8639 87.8859 34.0441 86.2105 32.9188C84.535 31.7934 81.8154 31.7888 80.1361 32.9083C78.4568 34.0279 78.4537 35.8477 80.1291 36.973C81.8046 38.0983 84.5242 38.1029 86.2035 36.9834Z" fill="#BC30A0"/>
<path d="M57.8002 69.9126C64.6664 74.5243 65.5564 75.0813 68.3679 76.8068C71.1794 78.5324 73.4556 79.4779 75.6817 80.1456C77.9888 80.8271 80.2661 81.2036 83.0704 81.2016C85.8646 81.2064 88.1633 80.8513 90.4626 80.171C92.7011 79.5178 94.9705 78.5732 97.7879 76.8574C100.615 75.1348 101.507 74.5808 108.379 69.9995C115.261 65.4115 116.092 64.8168 118.667 62.9379C121.242 61.059 122.652 59.5372 123.646 58.0485C124.661 56.5057 125.221 54.9824 125.214 53.1059C125.217 51.2361 124.683 49.6974 123.663 48.1579C122.684 46.659 121.269 45.1391 118.701 43.2514C116.123 41.3569 115.293 40.7594 108.437 36.1545C101.571 31.5429 100.681 30.9858 97.8697 29.2603C95.0582 27.5348 92.782 26.5892 90.5559 25.9215C88.2488 25.2401 85.9715 24.8636 83.1672 24.8655C80.373 24.8472 78.0844 25.2091 75.7851 25.8893C73.5466 26.5426 71.2772 27.4871 68.4598 29.203C65.6323 30.9256 64.7404 31.4796 57.8685 36.0608C50.9865 40.6489 50.1553 41.2436 47.5806 43.1225C45.0059 45.0013 43.596 46.5232 42.6013 48.0118C41.5863 49.5547 41.0269 51.0779 41.0338 52.9545C41.0407 54.831 41.5645 56.3629 42.5843 57.9025C43.5638 59.4013 44.9684 60.928 47.5366 62.8157C50.1049 64.7034 50.934 65.301 57.8002 69.9126ZM62.3713 66.8652C55.6265 62.3351 54.8479 61.7714 52.31 59.9041C49.9541 58.1726 49.0247 56.9922 48.4896 56.1716C47.7726 55.0797 47.4807 54.1375 47.4827 52.9452C47.4848 51.7529 47.7901 50.8321 48.5006 49.7223C49.0488 48.8968 49.9822 47.7197 52.3339 46.003C54.8782 44.1444 55.6486 43.5902 62.4191 39.0765C69.1896 34.5628 70.0207 34.0494 72.8077 32.3538C75.392 30.7798 77.1546 30.1596 78.3802 29.8026C80.011 29.3244 81.4186 29.1304 83.2004 29.1335C84.9822 29.1365 86.3587 29.3421 88.0182 29.8192C89.2527 30.1871 91.0131 30.8134 93.5819 32.3895C96.3631 34.0947 97.1923 34.6109 103.947 39.1479C110.702 43.6848 111.471 44.2416 114.009 46.109C116.365 47.8405 117.294 49.0208 117.829 49.8415C118.546 50.9334 118.838 51.8755 118.836 53.0678C118.834 54.2601 118.529 55.1809 117.818 56.2907C117.27 57.1163 116.336 58.2934 113.985 60.0101C111.44 61.8687 110.67 62.4229 103.9 66.9365C97.129 71.4502 96.298 71.9637 93.511 73.6593C90.9267 75.2333 89.1641 75.8535 87.9385 76.2104C86.3077 76.6886 84.9001 76.8827 83.1183 76.8796C81.3365 76.8765 79.96 76.6709 78.3005 76.1939C77.066 75.8259 75.3055 75.1997 72.7368 73.6236C69.9455 71.9252 69.1162 71.3953 62.3713 66.8652Z" fill="url(#paint3_linear_2129_13327)"/>
</g>
<defs>
<linearGradient id="paint0_linear_2129_13327" x1="165.759" y1="141.399" x2="0.606689" y2="141.399" gradientUnits="userSpaceOnUse">
<stop offset="0.246861" stop-color="#E6ECF0"/>
<stop offset="0.484375" stop-color="#C0D2DD"/>
<stop offset="0.725132" stop-color="#C1D0DB"/>
</linearGradient>
<linearGradient id="paint1_linear_2129_13327" x1="79.2506" y1="26.9768" x2="82.8786" y2="81.7865" gradientUnits="userSpaceOnUse">
<stop stop-color="#AE3DAE"/>
<stop offset="0.0468721" stop-color="#B23BA6"/>
<stop offset="0.1216" stop-color="#BD368E"/>
<stop offset="0.2148" stop-color="#CE2E69"/>
<stop offset="0.3216" stop-color="#E62335"/>
<stop offset="0.418" stop-color="#FF1800"/>
</linearGradient>
<linearGradient id="paint2_linear_2129_13327" x1="78.9321" y1="41.8881" x2="83.0844" y2="66.5646" gradientUnits="userSpaceOnUse">
<stop stop-color="#E12F6A"/>
<stop offset="0.1705" stop-color="#EA3751"/>
<stop offset="0.3563" stop-color="#F13D3E"/>
<stop offset="0.5467" stop-color="#F64133"/>
<stop offset="0.7469" stop-color="#F7422F"/>
<stop offset="0.7946" stop-color="#F74C2F"/>
<stop offset="0.8743" stop-color="#F7652F"/>
<stop offset="0.9757" stop-color="#F78F2E"/>
<stop offset="1" stop-color="#F79A2E"/>
</linearGradient>
<linearGradient id="paint3_linear_2129_13327" x1="67.2744" y1="27.0068" x2="82.2538" y2="82.088" gradientUnits="userSpaceOnUse">
<stop offset="0.2341" stop-color="#9E35A5" stop-opacity="0"/>
<stop offset="0.4512" stop-color="#D42F7F" stop-opacity="0.5"/>
<stop offset="0.7524" stop-color="#F7772E"/>
<stop offset="0.9624" stop-color="#FEF780"/>
</linearGradient>
<clipPath id="clip0_2129_13327">
<rect width="60.907" height="60.907" fill="white" transform="matrix(0.83205 -0.5547 0.830139 0.557556 32.5203 52.9331)"/>
</clipPath>
</defs>
</svg>
