<svg width="166" height="123" viewBox="0 0 166 123" fill="none" xmlns="http://www.w3.org/2000/svg">
<path d="M0.46875 54.1479H165.62V66.2544H165.532C166.062 69.9469 164.21 73.7609 159.98 76.5811L96.5357 118.877C89.0273 123.883 76.8677 123.862 69.3766 118.831L6.078 76.3166C1.96545 73.5545 0.114846 69.8564 0.524412 66.2544H0.46875V54.1479Z" fill="url(#paint0_linear_2129_13434)"/>
<path d="M6.078 64.2101C-1.41318 59.1787 -1.3992 51.0421 6.10923 46.0365L69.5535 3.74034C77.0619 -1.26527 89.2215 -1.24438 96.7127 3.78701L160.011 46.301C167.502 51.3324 167.488 59.469 159.98 64.4746L96.5357 106.771C89.0273 111.776 76.8677 111.755 69.3766 106.724L6.078 64.2101Z" fill="white"/>
<g clip-path="url(#clip0_2129_13434)">
<path d="M79.7938 54.2757L84.0603 51.4313L78.1611 50.4852L80.6023 57.6699L78.7182 58.9259L75.8577 50.2607C75.8099 50.0816 75.8269 49.8977 75.9072 49.7243C75.9876 49.551 76.129 49.3933 76.3195 49.2644C76.51 49.1355 76.7442 49.0393 77.0024 48.9837C77.2605 48.9281 77.5352 48.9148 77.8033 48.9448L90.7702 50.8912L88.8861 52.1473L86.5264 51.7501L82.2095 54.628L79.8022 54.2701M100.846 42.2037L93.984 37.5948L92.3826 38.6624L99.9206 43.7251C100.025 43.7957 100.15 43.8514 100.287 43.8889C100.424 43.9264 100.571 43.9448 100.719 43.9432C100.873 43.9448 101.025 43.9258 101.167 43.8873C101.309 43.8488 101.438 43.7915 101.546 43.7189L108.824 38.8663L108.301 37.2448L100.846 42.2149M73.1453 59.0308C73.8915 58.5333 74.3102 57.8568 74.3093 57.15C74.3084 56.4433 73.888 55.7642 73.1406 55.2622C72.3931 54.7602 71.3798 54.4763 70.3236 54.4731C69.2675 54.4699 68.2549 54.7475 67.5087 55.245L60.5099 59.9109L68.8442 65.5086L70.4427 64.4429L63.5835 59.8359L68.8858 56.301C69.2429 56.0629 69.7275 55.93 70.233 55.9316C70.7385 55.9331 71.2235 56.069 71.5812 56.3092C71.939 56.5495 72.1402 56.8745 72.1406 57.2128C72.141 57.551 71.9406 57.8748 71.5835 58.1129L67.0734 61.1196L76.011 60.7307L78.3318 59.1835L72.4258 59.5104L73.1453 59.0308ZM59.0122 72.0632L63.847 68.84C64.9031 68.0982 65.4823 67.1082 65.4611 66.0809C65.4398 65.0537 64.8199 64.0704 63.7335 63.3407C62.647 62.6109 61.1798 62.1925 59.6447 62.1744C58.1096 62.1564 56.6279 62.5403 55.5155 63.2442L50.6807 66.4674C50.111 66.8279 49.6556 67.2614 49.3413 67.7424C49.027 68.2234 48.8602 68.7422 48.8507 69.2682C48.8412 69.7941 48.9891 70.3166 49.2858 70.8048C49.5826 71.293 50.0221 71.737 50.5784 72.1107C51.1347 72.4843 51.7967 72.7801 52.5251 72.9805C53.2536 73.1808 54.0338 73.2818 54.8199 73.2774C55.6059 73.2729 56.3818 73.1632 57.1019 72.9547C57.8219 72.7462 58.4714 72.4431 59.0122 72.0632ZM62.2712 67.9278L57.6519 71.0073C56.9305 71.458 55.9738 71.7024 54.9842 71.6887C53.9946 71.675 53.0497 71.4043 52.3493 70.9339C51.6489 70.4634 51.2479 69.8301 51.2311 69.1679C51.2143 68.5057 51.583 67.8664 52.2593 67.3853L56.8786 64.3058C57.2277 64.0575 57.6482 63.8589 58.1152 63.7219C58.5822 63.5849 59.0862 63.5122 59.597 63.5083C60.1079 63.5043 60.6153 63.5691 61.089 63.6989C61.5628 63.8286 61.9933 64.0206 62.3548 64.2635C62.7164 64.5063 63.0018 64.7951 63.1939 65.1126C63.386 65.4301 63.481 65.7699 63.4732 66.1117C63.4654 66.4535 63.3549 66.7904 63.1485 67.1024C62.942 67.4144 62.6436 67.6951 62.2712 67.9278ZM94.1101 48.6647L99.0456 45.3743L98.514 43.7658L92.7526 47.6068C92.4035 47.8552 91.9829 48.0538 91.5159 48.1908C91.0489 48.3278 90.545 48.4004 90.0341 48.4044C89.5233 48.4083 89.0159 48.3435 88.5421 48.2138C88.0684 48.084 87.6379 47.892 87.2763 47.6492C86.9147 47.4063 86.6294 47.1176 86.4373 46.8001C86.2451 46.4826 86.1502 46.1428 86.158 45.801C86.1658 45.4591 86.2762 45.1222 86.4827 44.8103C86.6892 44.4983 86.9875 44.2176 87.36 43.9849L92.0492 40.8587L91.5232 39.2391L85.7785 43.0689C85.2089 43.4293 84.7535 43.8628 84.4392 44.3438C84.1249 44.8249 83.9581 45.3437 83.9485 45.8696C83.939 46.3956 84.087 46.918 84.3837 47.4062C84.6804 47.8944 85.1199 48.3384 85.6763 48.7121C86.2326 49.0858 86.8945 49.3815 87.623 49.5819C88.3514 49.7822 89.1317 49.8832 89.9177 49.8788C90.7038 49.8744 91.4797 49.7647 92.1997 49.5561C92.9197 49.3476 93.5693 49.0445 94.1101 48.6647ZM112.204 34.6393C111.617 35.0305 110.855 35.2822 110.033 35.3562C109.211 35.4302 108.374 35.3224 107.648 35.0492L114.485 30.4915L113.956 28.8775L106.179 34.0622C105.773 33.5761 105.614 33.0153 105.728 32.4653C105.842 31.9153 106.221 31.4062 106.808 31.0155L111.5 27.8875L110.966 26.2735L105.227 30.0995C104.171 30.8413 103.592 31.8313 103.613 32.8586C103.634 33.8859 104.254 34.8691 105.34 35.5989C106.427 36.3286 107.894 36.7471 109.429 36.7651C110.964 36.7831 112.446 36.3992 113.558 35.6953L118.494 32.4049L117.965 30.7946L112.198 34.6393" fill="#C74634"/>
</g>
<defs>
<linearGradient id="paint0_linear_2129_13434" x1="165.621" y1="141.399" x2="0.46875" y2="141.399" gradientUnits="userSpaceOnUse">
<stop offset="0.246861" stop-color="#E6ECF0"/>
<stop offset="0.484375" stop-color="#C0D2DD"/>
<stop offset="0.725132" stop-color="#C1D0DB"/>
</linearGradient>
<clipPath id="clip0_2129_13434">
<rect width="78.0338" height="78.0338" fill="white" transform="matrix(0.83205 -0.5547 0.830139 0.557556 18.0869 50.4614)"/>
</clipPath>
</defs>
</svg>
