<svg width="165" height="123" viewBox="0 0 165 123" fill="none" xmlns="http://www.w3.org/2000/svg">
<path d="M0 54.3168H165V66.461H164.912C165.441 70.1651 163.591 73.9909 159.365 76.8198L95.9787 119.248C88.4772 124.269 76.3288 124.248 68.8445 119.201L5.60409 76.5546C1.49533 73.7838 -0.353578 70.0743 0.0556106 66.461H0V54.3168Z" fill="url(#paint0_linear_2129_13248)"/>
<path d="M5.60409 64.4104C-1.8802 59.3633 -1.86623 51.2014 5.63529 46.1802L69.0213 3.75224C76.5228 -1.26897 88.6712 -1.24801 96.1555 3.79905L159.396 46.4454C166.88 51.4925 166.866 59.6544 159.365 64.6756L95.9787 107.104C88.4772 112.125 76.3288 112.104 68.8445 107.057L5.60409 64.4104Z" fill="white"/>
<g clip-path="url(#clip0_2129_13248)">
<path d="M108.016 67.0926C122.032 57.7488 122.058 42.5606 108.074 33.1688C94.0909 23.7769 71.3932 23.7379 57.3775 33.0816C43.3619 42.4254 43.3358 57.6136 57.3192 67.0055C71.3027 76.3973 94.0004 76.4363 108.016 67.0926Z" fill="#34E0A1"/>
<path d="M93.3325 36.2713L93.0585 31.9917L86.2722 36.5159C80.5508 37.22 75.0943 39.0462 70.657 42.0044C66.2253 44.9589 63.4902 48.5976 62.4195 52.4177L55.6162 56.9533L62.0106 57.1525C61.8487 59.5541 63.1415 61.9961 65.8826 63.8372C71.0555 67.3115 79.4375 67.3363 84.603 63.8926C87.0568 62.2567 88.3447 60.1298 88.4643 57.9766L94.7311 58.1735L94.4629 53.9813C97.6813 53.9093 100.859 53.0554 103.313 51.4195C108.478 47.9758 108.478 42.3632 103.305 38.8889C100.564 37.0441 96.9194 36.1699 93.3325 36.2713ZM81.5781 61.8573C78.0814 64.1883 72.4105 64.1715 68.9089 61.8197C65.4073 59.4679 65.4032 55.673 68.8998 53.342C72.3963 51.011 78.0674 51.0278 81.569 53.3796C85.0706 55.7314 85.0746 59.5262 81.5781 61.8573ZM84.4108 51.2382C80.2395 48.4366 73.6295 48.0508 68.1019 49.689C69.3586 47.6397 71.2281 45.7213 73.7187 44.0608C76.2094 42.4004 79.0861 41.1547 82.1534 40.3214C79.6905 44.014 80.2396 48.4367 84.4108 51.2382ZM100.288 49.384C96.7913 51.7151 91.1203 51.6984 87.6186 49.3465C84.117 46.9947 84.113 43.1999 87.6096 40.8688C91.1062 38.5377 96.7772 38.5546 100.279 40.9064C103.78 43.2582 103.784 47.053 100.288 49.384ZM90.6231 42.8927C88.7897 44.115 88.7919 46.1035 90.6278 47.3366C92.4637 48.5696 95.4354 48.5785 97.2687 47.3562C99.102 46.1341 99.0999 44.1455 97.264 42.9125C95.4308 41.6813 92.4563 41.6706 90.6231 42.8927ZM78.557 55.3876C80.3929 56.6207 80.395 58.6092 78.5617 59.8314C76.7285 61.0535 73.7568 61.0447 71.9209 59.8117C70.085 58.5786 70.0828 56.5901 71.9161 55.3679C73.7465 54.1438 76.7211 54.1545 78.557 55.3876Z" fill="#052646"/>
</g>
<defs>
<linearGradient id="paint0_linear_2129_13248" x1="165" y1="141.84" x2="0" y2="141.84" gradientUnits="userSpaceOnUse">
<stop offset="0.246861" stop-color="#E6ECF0"/>
<stop offset="0.484375" stop-color="#C0D2DD"/>
<stop offset="0.725132" stop-color="#C1D0DB"/>
</linearGradient>
<clipPath id="clip0_2129_13248">
<rect width="61" height="61" fill="white" transform="matrix(0.83205 -0.5547 0.830139 0.557556 32 50)"/>
</clipPath>
</defs>
</svg>
