<svg width="166" height="123" viewBox="0 0 166 123" fill="none" xmlns="http://www.w3.org/2000/svg">
<path d="M0.151855 54.1481H165.304V66.2546H165.215C165.745 69.9472 163.893 73.7612 159.663 76.5813L96.2188 118.877C88.7104 123.883 76.5508 123.862 69.0597 118.831L5.7611 76.3169C1.64856 73.5547 -0.202048 69.8567 0.207517 66.2546H0.151855V54.1481Z" fill="url(#paint0_linear_2129_13309)"/>
<path d="M5.7611 64.2104C-1.73007 59.179 -1.71609 51.0424 5.79233 46.0368L69.2366 3.74059C76.745 -1.26503 88.9046 -1.24414 96.3958 3.78725L159.694 46.3012C167.186 51.3326 167.172 59.4692 159.663 64.4748L96.2188 106.771C88.7104 111.777 76.5508 111.756 69.0597 106.724L5.7611 64.2104Z" fill="white"/>
<g clip-path="url(#clip0_2129_13309)">
<path d="M108.023 35.0466C94.059 25.668 71.3988 25.6291 57.4031 34.9596C43.4073 44.2901 43.3813 59.4532 57.3449 68.8317C69.9644 77.3076 89.6839 78.1585 103.702 71.3519L86.0401 59.4894L79.6114 63.7752L72.2978 58.8631L78.7265 54.5773L73.1578 50.8372C66.8268 46.585 67.0992 41.7143 72.8895 37.8541C75.6659 36.0032 79.0667 34.4034 79.0667 34.4034L85.2861 38.5806L82.093 40.7094C78.9415 42.8104 79.9228 44.7703 81.9176 46.1101L86.6548 49.2918L93.6804 44.608L99.8696 50.2698L93.9684 54.2039L111.63 66.0664C121.84 56.7208 120.642 43.5224 108.023 35.0466Z" fill="#1877F2"/>
<path d="M99.8558 50.2796L93.6676 44.6172L86.642 49.301L81.9049 46.1193C79.9101 44.7795 78.9426 42.8103 82.0803 40.7186L85.2734 38.5898L79.0539 34.4126C79.0539 34.4126 75.6531 36.0124 72.8767 37.8633C67.0874 41.7229 66.8151 46.5948 73.1451 50.8463L78.7138 54.5865L72.285 58.8723L79.5986 63.7844L86.0274 59.4986L103.689 71.3611C105.188 70.6392 106.605 69.826 107.952 68.9279C109.299 68.0298 110.507 67.0766 111.604 66.0848L93.9418 54.2223L99.8558 50.2796Z" fill="white"/>
</g>
<defs>
<linearGradient id="paint0_linear_2129_13309" x1="165.304" y1="141.399" x2="0.151855" y2="141.399" gradientUnits="userSpaceOnUse">
<stop offset="0.246861" stop-color="#E6ECF0"/>
<stop offset="0.484375" stop-color="#C0D2DD"/>
<stop offset="0.725132" stop-color="#C1D0DB"/>
</linearGradient>
<clipPath id="clip0_2129_13309">
<rect width="60.907" height="60.907" fill="white" transform="matrix(0.83205 -0.5547 0.830139 0.557556 32.0632 51.8522)"/>
</clipPath>
</defs>
</svg>
